G04 start of page 6 for group -4062 idx -4062 *
G04 Title: (unknown), soldermask *
G04 Creator: pcb 1.99y *
G04 CreationDate: Tue 31 Mar 2009 05:55:46 AM GMT UTC *
G04 For: jean *
G04 Format: Gerber/RS-274X *
G04 PCB-Dimensions: 600000 500000 *
G04 PCB-Coordinate-Origin: lower left *
%MOIN*%
%FSLAX25Y25*%
%LNBACKMASK*%
%ADD11C,0.0200*%
%ADD37C,0.0660*%
%ADD38C,0.0570*%
%ADD39C,0.0870*%
%ADD41R,0.0257X0.0257*%
%ADD42R,0.0355X0.0355*%
G54D37*X71500Y396000D03*
X81500D03*
X91500D03*
X101500D03*
X111500D03*
G54D38*X150227Y406500D03*
X160069D03*
X150227Y398626D03*
X160069D03*
G54D39*X178771Y387799D03*
X131527D03*
G54D37*X10000Y442500D03*
Y432500D03*
Y422500D03*
Y412500D03*
G54D11*G36*
X6700Y475800D02*Y469200D01*
X13300D01*
Y475800D01*
X6700D01*
G37*
G54D37*X10000Y462500D03*
Y452500D03*
Y402500D03*
Y392500D03*
G54D11*G36*
X58200Y399300D02*Y392700D01*
X64800D01*
Y399300D01*
X58200D01*
G37*
G36*
X207300Y493900D02*Y487300D01*
X213900D01*
Y493900D01*
X207300D01*
G37*
G54D37*X200600Y490600D03*
X190600D03*
Y480600D03*
X200600D03*
X210600D03*
G54D11*G36*
X231700Y493800D02*Y487200D01*
X238300D01*
Y493800D01*
X231700D01*
G37*
G54D37*X245000Y490500D03*
X255000D03*
X265000D03*
X275000D03*
X285000D03*
G54D42*X150059Y445492D02*Y444508D01*
X144941Y445492D02*Y444508D01*
X156508Y445441D02*X157492D01*
X156508Y450559D02*X157492D01*
X380008Y399559D02*X380992D01*
X380008Y394441D02*X380992D01*
G54D41*X330607Y434074D02*X331393D01*
X326607D02*X327393D01*
X330607Y430926D02*X331393D01*
X326607D02*X327393D01*
X324574Y444893D02*Y444107D01*
X321426Y444893D02*Y444107D01*
X324574Y440893D02*Y440107D01*
X321426Y440893D02*Y440107D01*
X293926Y413893D02*Y413107D01*
X291607Y419926D02*X292393D01*
X291607Y423074D02*X292393D01*
X287107Y419926D02*X287893D01*
X287107Y423074D02*X287893D01*
X297074Y413893D02*Y413107D01*
X293926Y409893D02*Y409107D01*
X297074Y409893D02*Y409107D01*
M02*
