G04 start of page 11 for group -4015 idx -4015 *
G04 Title: (unknown), toppaste *
G04 Creator: pcb 1.99y *
G04 CreationDate: Tue 31 Mar 2009 05:55:46 AM GMT UTC *
G04 For: jean *
G04 Format: Gerber/RS-274X *
G04 PCB-Dimensions: 600000 500000 *
G04 PCB-Coordinate-Origin: lower left *
%MOIN*%
%FSLAX25Y25*%
%LNFRONTPASTE*%
%ADD11C,0.0200*%
%ADD20R,0.0295X0.0295*%
%ADD21R,0.0197X0.0197*%
%ADD29R,0.0200X0.0200*%
%ADD30R,0.0490X0.0490*%
%ADD31R,0.0157X0.0157*%
%ADD32R,0.0345X0.0345*%
%ADD33R,0.0240X0.0240*%
%ADD34R,0.1000X0.1000*%
%ADD35C,0.0120*%
%ADD36R,0.0120X0.0120*%
G54D20*X79508Y452941D02*X80492D01*
X79508Y458059D02*X80492D01*
X285008Y387559D02*X285992D01*
X285008Y382441D02*X285992D01*
X310008Y387559D02*X310992D01*
X310008Y382441D02*X310992D01*
G54D21*X303607Y384926D02*X304393D01*
X303607Y388074D02*X304393D01*
X279607Y384926D02*X280393D01*
X279607Y388074D02*X280393D01*
X255107Y384926D02*X255893D01*
X255107Y388074D02*X255893D01*
G54D11*G36*
X171033Y447003D02*X184970Y446999D01*
X184967Y436999D01*
X171030Y437003D01*
X171033Y447003D01*
G37*
G54D34*X203591Y442001D02*X207528D01*
G54D20*X200859Y389392D02*Y388408D01*
X195741Y389392D02*Y388408D01*
G54D21*X85107Y486426D02*X85893D01*
X85107Y489574D02*X85893D01*
G54D33*X229300Y397000D02*Y395400D01*
X237100Y397000D02*Y395400D01*
Y405200D02*Y403600D01*
X233200Y405200D02*Y403600D01*
X229300Y405200D02*Y403600D01*
G54D20*X207059Y414492D02*Y413508D01*
X201941Y414492D02*Y413508D01*
G54D21*X278074Y432393D02*Y431607D01*
X274926Y432393D02*Y431607D01*
G54D31*X281602Y447248D02*X286028D01*
X281602Y444099D02*X286028D01*
X281602Y440949D02*X286028D01*
X281602Y437800D02*X286028D01*
X281602Y434650D02*X286028D01*
X281602Y431500D02*X286028D01*
X281602Y428351D02*X286028D01*
X281602Y425201D02*X286028D01*
X281602Y422052D02*X286028D01*
X281602Y418902D02*X286028D01*
X281602Y415752D02*X286028D01*
X292752Y409028D02*Y404602D01*
X295901Y409028D02*Y404602D01*
X299051Y409028D02*Y404602D01*
X302200Y409028D02*Y404602D01*
X305350Y409028D02*Y404602D01*
X308500Y409028D02*Y404602D01*
X311649Y409028D02*Y404602D01*
X314799Y409028D02*Y404602D01*
X317948Y409028D02*Y404602D01*
X321098Y409028D02*Y404602D01*
X324248Y409028D02*Y404602D01*
X330972Y415752D02*X335398D01*
X330972Y418901D02*X335398D01*
X330972Y422051D02*X335398D01*
X330972Y425200D02*X335398D01*
X330972Y428350D02*X335398D01*
X330972Y431500D02*X335398D01*
X330972Y434649D02*X335398D01*
X330972Y437799D02*X335398D01*
X330972Y440948D02*X335398D01*
X330972Y444098D02*X335398D01*
X330972Y447248D02*X335398D01*
X324248Y458398D02*Y453972D01*
X321099Y458398D02*Y453972D01*
X317949Y458398D02*Y453972D01*
X314800Y458398D02*Y453972D01*
X311650Y458398D02*Y453972D01*
X308500Y458398D02*Y453972D01*
X305351Y458398D02*Y453972D01*
X302201Y458398D02*Y453972D01*
X299052Y458398D02*Y453972D01*
X295902Y458398D02*Y453972D01*
X292752Y458398D02*Y453972D01*
X160966Y446277D02*X165392D01*
X160966Y449426D02*X165392D01*
X160966Y452576D02*X165392D01*
X160966Y455725D02*X165392D01*
X160966Y458875D02*X165392D01*
X160966Y462025D02*X165392D01*
X160966Y465174D02*X165392D01*
X160966Y468324D02*X165392D01*
X155423Y478292D02*Y473866D01*
X152274Y478292D02*Y473866D01*
X149124Y478292D02*Y473866D01*
X145975Y478292D02*Y473866D01*
X142825Y478292D02*Y473866D01*
X139675Y478292D02*Y473866D01*
X136526Y478292D02*Y473866D01*
X133376Y478292D02*Y473866D01*
X123408Y468323D02*X127834D01*
X123408Y465174D02*X127834D01*
X123408Y462024D02*X127834D01*
X123408Y458875D02*X127834D01*
X123408Y455725D02*X127834D01*
X123408Y452575D02*X127834D01*
X123408Y449426D02*X127834D01*
X123408Y446276D02*X127834D01*
X133377Y440734D02*Y436308D01*
X136526Y440734D02*Y436308D01*
X139676Y440734D02*Y436308D01*
X142825Y440734D02*Y436308D01*
X145975Y440734D02*Y436308D01*
X149125Y440734D02*Y436308D01*
X152274Y440734D02*Y436308D01*
X155424Y440734D02*Y436308D01*
G54D20*X27008Y429441D02*X27992D01*
X27008Y434559D02*X27992D01*
G54D33*X195700Y397600D02*Y396000D01*
X203500Y397600D02*Y396000D01*
Y405800D02*Y404200D01*
X199600Y405800D02*Y404200D01*
X195700Y405800D02*Y404200D01*
G54D21*X278074Y425393D02*Y424607D01*
X274926Y425393D02*Y424607D01*
G54D35*X359500Y395500D02*Y392900D01*
G54D36*X361500Y395500D02*Y392900D01*
X363500Y395500D02*Y392900D01*
X365500Y395500D02*Y392900D01*
X367500Y395500D02*Y392900D01*
X369500Y395500D02*Y392900D01*
X371500Y395500D02*Y392900D01*
X373500Y395500D02*Y392900D01*
X375500Y395500D02*Y392900D01*
X377500Y395500D02*Y392900D01*
X379500Y395500D02*Y392900D01*
X381500Y395500D02*Y392900D01*
X383500Y395500D02*Y392900D01*
X385500Y395500D02*Y392900D01*
X387500Y395500D02*Y392900D01*
X389500Y395500D02*Y392900D01*
Y471600D02*Y469000D01*
X387500Y471600D02*Y469000D01*
X385500Y471600D02*Y469000D01*
X383500Y471600D02*Y469000D01*
X381500Y471600D02*Y469000D01*
X379500Y471600D02*Y469000D01*
X377500Y471600D02*Y469000D01*
X375500Y471600D02*Y469000D01*
X373500Y471600D02*Y469000D01*
X371500Y471600D02*Y469000D01*
X369500Y471600D02*Y469000D01*
X367500Y471600D02*Y469000D01*
X365500Y471600D02*Y469000D01*
X363500Y471600D02*Y469000D01*
X361500Y471600D02*Y469000D01*
X359500Y471600D02*Y469000D01*
G54D30*X126200Y427000D02*X129800D01*
X126200Y417000D02*X129800D01*
G54D20*X234359Y388792D02*Y387808D01*
G54D32*X229241Y388792D02*Y387808D01*
G54D20*X27008Y449559D02*X27992D01*
X27008Y444441D02*X27992D01*
G54D29*X33500Y449500D02*X40000D01*
X33500Y444500D02*X40000D01*
X33500Y439500D02*X40000D01*
X33500Y434500D02*X40000D01*
X33500Y429500D02*X40000D01*
X33500Y424500D02*X40000D01*
X33500Y419500D02*X40000D01*
X33500Y414500D02*X40000D01*
X54000D02*X60500D01*
X54000Y419500D02*X60500D01*
X54000Y424500D02*X60500D01*
X54000Y429500D02*X60500D01*
X54000Y434500D02*X60500D01*
X54000Y439500D02*X60500D01*
X54000Y444500D02*X60500D01*
X54000Y449500D02*X60500D01*
G54D20*X203341Y421892D02*Y420908D01*
X208459Y421892D02*Y420908D01*
G54D21*X199426Y433393D02*Y432607D01*
X202574Y433393D02*Y432607D01*
G54D20*X241459Y414092D02*Y413108D01*
X236341Y414092D02*Y413108D01*
G54D30*X229400Y426600D02*Y423000D01*
X239400Y426600D02*Y423000D01*
G54D21*X119107Y441074D02*X119893D01*
X119107Y437926D02*X119893D01*
G54D20*X49559Y409492D02*Y408508D01*
X44441Y409492D02*Y408508D01*
X150008Y422941D02*X150992D01*
X150008Y428059D02*X150992D01*
G54D30*X182000Y422800D02*Y419200D01*
X172000Y422800D02*Y419200D01*
G54D20*X144508Y422941D02*X145492D01*
X144508Y428059D02*X145492D01*
X49059Y455492D02*Y454508D01*
X43941Y455492D02*Y454508D01*
G54D29*X79500Y489500D02*Y483000D01*
X74500Y489500D02*Y483000D01*
X69500Y489500D02*Y483000D01*
X64500Y489500D02*Y483000D01*
Y469000D02*Y462500D01*
X69500Y469000D02*Y462500D01*
X74500Y469000D02*Y462500D01*
X79500Y469000D02*Y462500D01*
G54D20*X261008Y387559D02*X261992D01*
X261008Y382441D02*X261992D01*
G54D21*X197474Y421693D02*Y420907D01*
X194326Y421693D02*Y420907D01*
G54D20*X59559Y455492D02*Y454508D01*
X54441Y455492D02*Y454508D01*
G54D21*X189074Y433393D02*Y432607D01*
X185926Y433393D02*Y432607D01*
X278074Y436893D02*Y436107D01*
X274926Y436893D02*Y436107D01*
M02*
