G04 start of page 3 for group 1 idx 0 *
G04 Title: (unknown), component *
G04 Creator: pcb 1.99y *
G04 CreationDate: Mon 27 Apr 2009 03:53:18 PM GMT UTC *
G04 For: jean *
G04 Format: Gerber/RS-274X *
G04 PCB-Dimensions: 600000 500000 *
G04 PCB-Coordinate-Origin: lower left *
%MOIN*%
%FSLAX25Y25*%
%LNFRONT*%
%ADD11C,0.0200*%
%ADD12C,0.0400*%
%ADD13C,0.0100*%
%ADD14C,0.0300*%
%ADD15C,0.0150*%
%ADD17C,0.0600*%
%ADD18C,0.0510*%
%ADD19C,0.0810*%
%ADD20R,0.0295X0.0295*%
%ADD21R,0.0197X0.0197*%
%ADD22C,0.0380*%
%ADD23C,0.0500*%
%ADD24C,0.0250*%
%ADD25C,0.0650*%
%ADD26C,0.0550*%
%ADD27C,0.1200*%
%ADD28C,0.0900*%
%ADD29R,0.0200X0.0200*%
%ADD30R,0.0490X0.0490*%
%ADD31R,0.0157X0.0157*%
%ADD32R,0.0345X0.0345*%
%ADD33R,0.1000X0.1000*%
%ADD34R,0.0240X0.0240*%
%ADD35C,0.0120*%
%ADD36R,0.0120X0.0120*%
G54D11*G36*
X6200Y374400D02*Y492400D01*
X14200D01*
Y471400D01*
X11200D01*
X10940Y471377D01*
X10687Y471310D01*
X10450Y471199D01*
X10236Y471049D01*
X10051Y470864D01*
X9901Y470650D01*
X9790Y470413D01*
X9723Y470160D01*
X9700Y469900D01*
Y463900D01*
X9723Y463640D01*
X9790Y463387D01*
X9901Y463150D01*
X10051Y462936D01*
X10236Y462751D01*
X10450Y462601D01*
X10687Y462490D01*
X10940Y462423D01*
X11200Y462400D01*
X14200D01*
Y461400D01*
X13419Y461332D01*
X12661Y461129D01*
X11950Y460797D01*
X11307Y460347D01*
X10753Y459793D01*
X10303Y459150D01*
X9971Y458439D01*
X9768Y457681D01*
X9700Y456900D01*
X9768Y456119D01*
X9971Y455361D01*
X10303Y454650D01*
X10753Y454007D01*
X11307Y453453D01*
X11950Y453003D01*
X12661Y452671D01*
X13419Y452468D01*
X14200Y452400D01*
Y451400D01*
X13419Y451332D01*
X12661Y451129D01*
X11950Y450797D01*
X11307Y450347D01*
X10753Y449793D01*
X10303Y449150D01*
X9971Y448439D01*
X9768Y447681D01*
X9700Y446900D01*
X9768Y446119D01*
X9971Y445361D01*
X10303Y444650D01*
X10753Y444007D01*
X11307Y443453D01*
X11950Y443003D01*
X12661Y442671D01*
X13419Y442468D01*
X14200Y442400D01*
Y441400D01*
X13419Y441332D01*
X12661Y441129D01*
X11950Y440797D01*
X11307Y440347D01*
X10753Y439793D01*
X10303Y439150D01*
X9971Y438439D01*
X9768Y437681D01*
X9700Y436900D01*
X9768Y436119D01*
X9971Y435361D01*
X10303Y434650D01*
X10753Y434007D01*
X11307Y433453D01*
X11950Y433003D01*
X12661Y432671D01*
X13419Y432468D01*
X14200Y432400D01*
Y421400D01*
X13419Y421332D01*
X12661Y421129D01*
X11950Y420797D01*
X11307Y420347D01*
X10753Y419793D01*
X10303Y419150D01*
X9971Y418439D01*
X9768Y417681D01*
X9700Y416900D01*
X9768Y416119D01*
X9971Y415361D01*
X10303Y414650D01*
X10753Y414007D01*
X11307Y413453D01*
X11950Y413003D01*
X12661Y412671D01*
X13419Y412468D01*
X14200Y412400D01*
Y411400D01*
X13419Y411332D01*
X12661Y411129D01*
X11950Y410797D01*
X11307Y410347D01*
X10753Y409793D01*
X10303Y409150D01*
X9971Y408439D01*
X9768Y407681D01*
X9700Y406900D01*
X9768Y406119D01*
X9971Y405361D01*
X10303Y404650D01*
X10753Y404007D01*
X11307Y403453D01*
X11950Y403003D01*
X12661Y402671D01*
X13419Y402468D01*
X14200Y402400D01*
Y401400D01*
X13419Y401332D01*
X12661Y401129D01*
X11950Y400797D01*
X11307Y400347D01*
X10753Y399793D01*
X10303Y399150D01*
X9971Y398439D01*
X9768Y397681D01*
X9700Y396900D01*
X9768Y396119D01*
X9971Y395361D01*
X10303Y394650D01*
X10753Y394007D01*
X11307Y393453D01*
X11950Y393003D01*
X12661Y392671D01*
X13419Y392468D01*
X14200Y392400D01*
Y391400D01*
X13419Y391332D01*
X12661Y391129D01*
X11950Y390797D01*
X11307Y390347D01*
X10753Y389793D01*
X10303Y389150D01*
X9971Y388439D01*
X9768Y387681D01*
X9700Y386900D01*
X9768Y386119D01*
X9971Y385361D01*
X10303Y384650D01*
X10753Y384007D01*
X11307Y383453D01*
X11950Y383003D01*
X12661Y382671D01*
X13419Y382468D01*
X14200Y382400D01*
Y374400D01*
X6200D01*
G37*
G36*
X14200Y492400D02*X39575D01*
Y445901D01*
X36700D01*
X36688Y445900D01*
X34550D01*
X34534Y445935D01*
X34434Y446078D01*
X34311Y446201D01*
X34168Y446301D01*
X34010Y446375D01*
X33842Y446420D01*
X33668Y446435D01*
X29732D01*
X29558Y446420D01*
X29390Y446375D01*
X29232Y446301D01*
X29089Y446201D01*
X28966Y446078D01*
X28866Y445935D01*
X28792Y445777D01*
X28747Y445609D01*
X28732Y445435D01*
Y442483D01*
X28747Y442309D01*
X28792Y442141D01*
X28866Y441983D01*
X28966Y441840D01*
X29089Y441717D01*
X29232Y441617D01*
X29390Y441543D01*
X29547Y441501D01*
X29524Y441499D01*
X29322Y441445D01*
X29132Y441356D01*
X28961Y441236D01*
X28813Y441088D01*
X28693Y440917D01*
X28604Y440727D01*
X28550Y440525D01*
X28532Y440317D01*
Y437365D01*
X28550Y437157D01*
X28604Y436955D01*
X28693Y436765D01*
X28813Y436594D01*
X28961Y436446D01*
X29132Y436326D01*
X29322Y436237D01*
X29524Y436183D01*
X29718Y436166D01*
X29723Y436139D01*
X29730Y436053D01*
X29753Y435969D01*
X29768Y435883D01*
X29800Y435795D01*
X29821Y435716D01*
X29855Y435642D01*
X29887Y435555D01*
X29932Y435476D01*
X29968Y435400D01*
X30015Y435333D01*
X30061Y435253D01*
X30120Y435183D01*
X30168Y435114D01*
X30228Y435054D01*
X30285Y434986D01*
X32786Y432485D01*
X32854Y432428D01*
X32914Y432368D01*
X32983Y432320D01*
X33053Y432261D01*
X33133Y432215D01*
X33200Y432168D01*
X33276Y432132D01*
X33355Y432087D01*
X33442Y432055D01*
X33516Y432021D01*
X33597Y431999D01*
X33683Y431968D01*
X33767Y431953D01*
X33853Y431930D01*
X33938Y431923D01*
X34026Y431907D01*
X34119D01*
X34200Y431900D01*
X36688D01*
X36700Y431899D01*
X39575D01*
Y430901D01*
X36700D01*
X36688Y430900D01*
X34550D01*
X34534Y430935D01*
X34434Y431078D01*
X34311Y431201D01*
X34168Y431301D01*
X34010Y431375D01*
X33842Y431420D01*
X33668Y431435D01*
X29732D01*
X29558Y431420D01*
X29390Y431375D01*
X29232Y431301D01*
X29089Y431201D01*
X28966Y431078D01*
X28866Y430935D01*
X28792Y430777D01*
X28747Y430609D01*
X28732Y430435D01*
Y427483D01*
X28747Y427309D01*
X28792Y427141D01*
X28866Y426983D01*
X28966Y426840D01*
X29089Y426717D01*
X29232Y426617D01*
X29390Y426543D01*
X29558Y426498D01*
X29732Y426483D01*
X33668D01*
X33842Y426498D01*
X34010Y426543D01*
X34168Y426617D01*
X34311Y426717D01*
X34434Y426840D01*
X34476Y426900D01*
X36688D01*
X36700Y426899D01*
X39575D01*
Y425901D01*
X36700D01*
X36688Y425900D01*
X34476D01*
X34434Y425960D01*
X34311Y426083D01*
X34168Y426183D01*
X34010Y426257D01*
X33842Y426302D01*
X33668Y426317D01*
X29732D01*
X29558Y426302D01*
X29390Y426257D01*
X29232Y426183D01*
X29089Y426083D01*
X28966Y425960D01*
X28866Y425817D01*
X28792Y425659D01*
X28747Y425491D01*
X28732Y425317D01*
Y422365D01*
X28747Y422191D01*
X28792Y422023D01*
X28866Y421865D01*
X28966Y421722D01*
X29089Y421599D01*
X29232Y421499D01*
X29390Y421425D01*
X29558Y421380D01*
X29732Y421365D01*
X33668D01*
X33842Y421380D01*
X34010Y421425D01*
X34168Y421499D01*
X34311Y421599D01*
X34434Y421722D01*
X34534Y421865D01*
X34550Y421900D01*
X36688D01*
X36700Y421899D01*
X39575D01*
Y420701D01*
X36700D01*
X36561Y420689D01*
X36426Y420653D01*
X36299Y420594D01*
X36185Y420514D01*
X36086Y420415D01*
X36006Y420301D01*
X35947Y420174D01*
X35911Y420039D01*
X35899Y419900D01*
Y417900D01*
X35911Y417761D01*
X35947Y417626D01*
X36006Y417499D01*
X36086Y417385D01*
X36185Y417286D01*
X36299Y417206D01*
X36426Y417147D01*
X36561Y417111D01*
X36700Y417099D01*
X39575D01*
Y415701D01*
X38552D01*
X38384Y415779D01*
X38047Y415870D01*
X37700Y415900D01*
X29200D01*
X29119Y415893D01*
X29026D01*
X28933Y415877D01*
X28853Y415870D01*
X28778Y415850D01*
X28682Y415833D01*
X28582Y415797D01*
X28516Y415779D01*
X28455Y415751D01*
X28354Y415714D01*
X28264Y415662D01*
X28200Y415632D01*
X28140Y415590D01*
X28052Y415539D01*
X27977Y415476D01*
X27914Y415432D01*
X27860Y415378D01*
X27785Y415315D01*
X21370Y408900D01*
X18214D01*
X18097Y409150D01*
X17647Y409793D01*
X17093Y410347D01*
X16450Y410797D01*
X15739Y411129D01*
X14981Y411332D01*
X14200Y411400D01*
Y412400D01*
X14981Y412468D01*
X15739Y412671D01*
X16450Y413003D01*
X17093Y413453D01*
X17647Y414007D01*
X18097Y414650D01*
X18429Y415361D01*
X18439Y415400D01*
X19200D01*
X19293Y415408D01*
X19374D01*
X19455Y415422D01*
X19547Y415430D01*
X19632Y415453D01*
X19718Y415468D01*
X19806Y415500D01*
X19884Y415521D01*
X19965Y415558D01*
X20045Y415588D01*
X20117Y415629D01*
X20200Y415668D01*
X20276Y415721D01*
X20347Y415762D01*
X20413Y415817D01*
X20486Y415868D01*
X20551Y415933D01*
X20614Y415986D01*
X23614Y418986D01*
X23615Y418985D01*
X23679Y419061D01*
X23732Y419114D01*
X23774Y419174D01*
X23839Y419252D01*
X23892Y419343D01*
X23932Y419400D01*
X23959Y419459D01*
X24014Y419554D01*
X24051Y419656D01*
X24079Y419716D01*
X24097Y419782D01*
X24133Y419882D01*
X24150Y419978D01*
X24170Y420053D01*
X24177Y420134D01*
X24193Y420226D01*
Y420319D01*
X24200Y420400D01*
Y463900D01*
X24193Y463980D01*
Y464075D01*
X24177Y464164D01*
X24170Y464247D01*
X24148Y464330D01*
X24132Y464418D01*
X24100Y464506D01*
X24079Y464584D01*
X24046Y464656D01*
X24013Y464746D01*
X23966Y464828D01*
X23932Y464900D01*
X23885Y464967D01*
X23838Y465048D01*
X23781Y465116D01*
X23732Y465186D01*
X23671Y465247D01*
X23614Y465315D01*
X20615Y468314D01*
X20547Y468371D01*
X20486Y468432D01*
X20416Y468481D01*
X20348Y468538D01*
X20267Y468585D01*
X20200Y468632D01*
X20128Y468666D01*
X20046Y468713D01*
X19956Y468746D01*
X19884Y468779D01*
X19806Y468800D01*
X19718Y468832D01*
X19630Y468848D01*
X19547Y468870D01*
X19464Y468877D01*
X19375Y468893D01*
X19280D01*
X19200Y468900D01*
X18700D01*
Y469900D01*
X18677Y470160D01*
X18610Y470413D01*
X18499Y470650D01*
X18349Y470864D01*
X18164Y471049D01*
X17950Y471199D01*
X17713Y471310D01*
X17460Y471377D01*
X17200Y471400D01*
X14200D01*
Y492400D01*
G37*
G36*
Y402400D02*X14981Y402468D01*
X15739Y402671D01*
X16450Y403003D01*
X17093Y403453D01*
X17647Y404007D01*
X18097Y404650D01*
X18214Y404900D01*
X22200D01*
X22292Y404908D01*
X22374D01*
X22454Y404922D01*
X22547Y404930D01*
X22632Y404953D01*
X22718Y404968D01*
X22802Y404999D01*
X22884Y405021D01*
X22965Y405059D01*
X23045Y405088D01*
X23116Y405129D01*
X23200Y405168D01*
X23275Y405221D01*
X23347Y405262D01*
X23410Y405315D01*
X23486Y405368D01*
X23552Y405434D01*
X23614Y405486D01*
X30028Y411900D01*
X37700D01*
X38047Y411930D01*
X38384Y412021D01*
X38552Y412099D01*
X39575D01*
Y410701D01*
X38552D01*
X38384Y410779D01*
X38047Y410870D01*
X37700Y410900D01*
X31200D01*
X31119Y410893D01*
X31026D01*
X30933Y410877D01*
X30853Y410870D01*
X30778Y410850D01*
X30682Y410833D01*
X30582Y410797D01*
X30516Y410779D01*
X30455Y410751D01*
X30354Y410714D01*
X30264Y410662D01*
X30200Y410632D01*
X30140Y410590D01*
X30052Y410539D01*
X29977Y410476D01*
X29914Y410432D01*
X29860Y410378D01*
X29785Y410315D01*
X18370Y398900D01*
X18213D01*
X18097Y399150D01*
X17647Y399793D01*
X17093Y400347D01*
X16450Y400797D01*
X15739Y401129D01*
X14981Y401332D01*
X14200Y401400D01*
Y402400D01*
G37*
G36*
Y392400D02*X14981Y392468D01*
X15739Y392671D01*
X16450Y393003D01*
X17093Y393453D01*
X17647Y394007D01*
X18097Y394650D01*
X18214Y394900D01*
X19200D01*
X19293Y394908D01*
X19374D01*
X19454Y394922D01*
X19547Y394930D01*
X19632Y394953D01*
X19718Y394968D01*
X19805Y395000D01*
X19884Y395021D01*
X19965Y395058D01*
X20045Y395088D01*
X20114Y395128D01*
X20200Y395168D01*
X20276Y395221D01*
X20347Y395262D01*
X20410Y395315D01*
X20486Y395368D01*
X20552Y395434D01*
X20614Y395486D01*
X32028Y406900D01*
X37700D01*
X38047Y406930D01*
X38384Y407021D01*
X38552Y407099D01*
X39575D01*
Y374400D01*
X14200D01*
Y382400D01*
X14981Y382468D01*
X15739Y382671D01*
X16450Y383003D01*
X17093Y383453D01*
X17647Y384007D01*
X18097Y384650D01*
X18429Y385361D01*
X18632Y386119D01*
X18700Y386900D01*
X18632Y387681D01*
X18429Y388439D01*
X18097Y389150D01*
X17647Y389793D01*
X17093Y390347D01*
X16450Y390797D01*
X15739Y391129D01*
X14981Y391332D01*
X14200Y391400D01*
Y392400D01*
G37*
G36*
X18700Y456900D02*X18632Y457681D01*
X18429Y458439D01*
X18097Y459150D01*
X17647Y459793D01*
X17093Y460347D01*
X16450Y460797D01*
X15739Y461129D01*
X14981Y461332D01*
X14200Y461400D01*
Y462400D01*
X17200D01*
X17460Y462423D01*
X17713Y462490D01*
X17950Y462601D01*
X18164Y462751D01*
X18349Y462936D01*
X18499Y463150D01*
X18610Y463387D01*
X18677Y463640D01*
X18700Y463900D01*
Y464571D01*
X20200Y463071D01*
Y438900D01*
X18214D01*
X18097Y439150D01*
X17647Y439793D01*
X17093Y440347D01*
X16450Y440797D01*
X15739Y441129D01*
X14981Y441332D01*
X14200Y441400D01*
Y442400D01*
X14981Y442468D01*
X15739Y442671D01*
X16450Y443003D01*
X17093Y443453D01*
X17647Y444007D01*
X18097Y444650D01*
X18429Y445361D01*
X18632Y446119D01*
X18700Y446900D01*
X18632Y447681D01*
X18429Y448439D01*
X18097Y449150D01*
X17647Y449793D01*
X17093Y450347D01*
X16450Y450797D01*
X15739Y451129D01*
X14981Y451332D01*
X14200Y451400D01*
Y452400D01*
X14981Y452468D01*
X15739Y452671D01*
X16450Y453003D01*
X17093Y453453D01*
X17647Y454007D01*
X18097Y454650D01*
X18429Y455361D01*
X18632Y456119D01*
X18700Y456900D01*
G37*
G36*
X14200Y432400D02*X14981Y432468D01*
X15739Y432671D01*
X16450Y433003D01*
X17093Y433453D01*
X17647Y434007D01*
X18097Y434650D01*
X18214Y434900D01*
X20200D01*
Y421230D01*
X18370Y419400D01*
X17922D01*
X17647Y419793D01*
X17093Y420347D01*
X16450Y420797D01*
X15739Y421129D01*
X14981Y421332D01*
X14200Y421400D01*
Y432400D01*
G37*
G36*
X39575Y435901D02*X36700D01*
X36688Y435900D01*
X35029D01*
X34461Y436468D01*
X34587Y436594D01*
X34707Y436765D01*
X34796Y436955D01*
X34850Y437157D01*
X34868Y437365D01*
Y440317D01*
X34850Y440525D01*
X34796Y440727D01*
X34707Y440917D01*
X34587Y441088D01*
X34439Y441236D01*
X34268Y441356D01*
X34078Y441445D01*
X33876Y441499D01*
X33853Y441501D01*
X34010Y441543D01*
X34168Y441617D01*
X34311Y441717D01*
X34434Y441840D01*
X34476Y441900D01*
X36688D01*
X36700Y441899D01*
X39575D01*
Y440901D01*
X36700D01*
X36526Y440886D01*
X36358Y440841D01*
X36199Y440767D01*
X36057Y440667D01*
X35933Y440543D01*
X35833Y440401D01*
X35759Y440242D01*
X35714Y440074D01*
X35699Y439900D01*
Y437900D01*
X35714Y437726D01*
X35759Y437558D01*
X35833Y437399D01*
X35933Y437257D01*
X36057Y437133D01*
X36199Y437033D01*
X36358Y436959D01*
X36526Y436914D01*
X36700Y436899D01*
X39575D01*
Y435901D01*
G37*
G36*
Y492400D02*X55950D01*
Y451400D01*
X55732D01*
X55720Y451542D01*
X55675Y451710D01*
X55601Y451868D01*
X55501Y452011D01*
X55378Y452134D01*
X55235Y452234D01*
X55077Y452308D01*
X54909Y452353D01*
X54735Y452368D01*
X51783D01*
X51609Y452353D01*
X51441Y452308D01*
X51283Y452234D01*
X51140Y452134D01*
X51017Y452011D01*
X50917Y451868D01*
X50843Y451710D01*
X50798Y451542D01*
X50783Y451368D01*
Y447432D01*
X50798Y447258D01*
X50843Y447090D01*
X50917Y446932D01*
X51017Y446789D01*
X51140Y446666D01*
X51283Y446566D01*
X51441Y446492D01*
X51609Y446447D01*
X51783Y446432D01*
X54735D01*
X54909Y446447D01*
X55077Y446492D01*
X55235Y446566D01*
X55378Y446666D01*
X55501Y446789D01*
X55601Y446932D01*
X55675Y447090D01*
X55720Y447258D01*
X55732Y447400D01*
X55950D01*
Y406062D01*
X55878Y406134D01*
X55735Y406234D01*
X55577Y406308D01*
X55409Y406353D01*
X55235Y406368D01*
X52283D01*
X52109Y406353D01*
X51941Y406308D01*
X51783Y406234D01*
X51640Y406134D01*
X51517Y406011D01*
X51417Y405868D01*
X51343Y405710D01*
X51298Y405542D01*
X51283Y405368D01*
Y401432D01*
X51298Y401258D01*
X51343Y401090D01*
X51417Y400932D01*
X51517Y400789D01*
X51640Y400666D01*
X51783Y400566D01*
X51941Y400492D01*
X52109Y400447D01*
X52283Y400432D01*
X55235D01*
X55409Y400447D01*
X55577Y400492D01*
X55735Y400566D01*
X55878Y400666D01*
X55950Y400738D01*
Y374400D01*
X39575D01*
Y407099D01*
X45200D01*
X45339Y407111D01*
X45474Y407147D01*
X45601Y407206D01*
X45715Y407286D01*
X45814Y407385D01*
X45894Y407499D01*
X45953Y407626D01*
X45989Y407761D01*
X46001Y407900D01*
Y409900D01*
X45989Y410039D01*
X45953Y410174D01*
X45894Y410301D01*
X45814Y410415D01*
X45715Y410514D01*
X45601Y410594D01*
X45474Y410653D01*
X45339Y410689D01*
X45200Y410701D01*
X39575D01*
Y412099D01*
X45200D01*
X45339Y412111D01*
X45474Y412147D01*
X45601Y412206D01*
X45715Y412286D01*
X45814Y412385D01*
X45894Y412499D01*
X45953Y412626D01*
X45989Y412761D01*
X46001Y412900D01*
Y414900D01*
X45989Y415039D01*
X45953Y415174D01*
X45894Y415301D01*
X45814Y415415D01*
X45715Y415514D01*
X45601Y415594D01*
X45474Y415653D01*
X45339Y415689D01*
X45200Y415701D01*
X39575D01*
Y417099D01*
X43348D01*
X43516Y417021D01*
X43853Y416930D01*
X44200Y416900D01*
X45871D01*
X46700Y416071D01*
Y406250D01*
X46665Y406234D01*
X46522Y406134D01*
X46399Y406011D01*
X46299Y405868D01*
X46225Y405710D01*
X46180Y405542D01*
X46165Y405368D01*
Y401432D01*
X46180Y401258D01*
X46225Y401090D01*
X46299Y400932D01*
X46399Y400789D01*
X46522Y400666D01*
X46665Y400566D01*
X46823Y400492D01*
X46991Y400447D01*
X47165Y400432D01*
X50117D01*
X50291Y400447D01*
X50459Y400492D01*
X50617Y400566D01*
X50760Y400666D01*
X50883Y400789D01*
X50983Y400932D01*
X51057Y401090D01*
X51102Y401258D01*
X51117Y401432D01*
Y405368D01*
X51102Y405542D01*
X51057Y405710D01*
X50983Y405868D01*
X50883Y406011D01*
X50760Y406134D01*
X50700Y406176D01*
Y416900D01*
X50693Y416981D01*
Y417075D01*
X50677Y417165D01*
X50670Y417247D01*
X50648Y417329D01*
X50632Y417418D01*
X50600Y417506D01*
X50579Y417584D01*
X50546Y417655D01*
X50513Y417746D01*
X50465Y417829D01*
X50432Y417900D01*
X50384Y417969D01*
X50338Y418048D01*
X50282Y418115D01*
X50232Y418186D01*
X50171Y418247D01*
X50114Y418315D01*
X48115Y420314D01*
X48048Y420370D01*
X47986Y420432D01*
X47915Y420481D01*
X47848Y420538D01*
X47769Y420584D01*
X47700Y420632D01*
X47629Y420665D01*
X47546Y420713D01*
X47455Y420746D01*
X47384Y420779D01*
X47306Y420800D01*
X47218Y420832D01*
X47129Y420848D01*
X47047Y420870D01*
X46965Y420877D01*
X46875Y420893D01*
X46781D01*
X46700Y420900D01*
X44200D01*
X43853Y420870D01*
X43516Y420779D01*
X43348Y420701D01*
X39575D01*
Y421899D01*
X45200D01*
X45374Y421914D01*
X45542Y421959D01*
X45701Y422033D01*
X45843Y422133D01*
X45967Y422257D01*
X46067Y422399D01*
X46141Y422558D01*
X46186Y422726D01*
X46201Y422900D01*
Y424900D01*
X46186Y425074D01*
X46141Y425242D01*
X46067Y425401D01*
X45967Y425543D01*
X45843Y425667D01*
X45701Y425767D01*
X45542Y425841D01*
X45374Y425886D01*
X45200Y425901D01*
X39575D01*
Y426899D01*
X45200D01*
X45374Y426914D01*
X45542Y426959D01*
X45701Y427033D01*
X45843Y427133D01*
X45967Y427257D01*
X46067Y427399D01*
X46141Y427558D01*
X46186Y427726D01*
X46201Y427900D01*
Y429900D01*
X46186Y430074D01*
X46141Y430242D01*
X46067Y430401D01*
X45967Y430543D01*
X45843Y430667D01*
X45701Y430767D01*
X45542Y430841D01*
X45374Y430886D01*
X45200Y430901D01*
X39575D01*
Y431899D01*
X45200D01*
X45374Y431914D01*
X45542Y431959D01*
X45701Y432033D01*
X45843Y432133D01*
X45967Y432257D01*
X46067Y432399D01*
X46141Y432558D01*
X46186Y432726D01*
X46201Y432900D01*
Y434900D01*
X46186Y435074D01*
X46141Y435242D01*
X46067Y435401D01*
X45967Y435543D01*
X45843Y435667D01*
X45701Y435767D01*
X45542Y435841D01*
X45374Y435886D01*
X45200Y435901D01*
X39575D01*
Y436899D01*
X45200D01*
X45212Y436900D01*
X46200D01*
X46293Y436908D01*
X46374D01*
X46454Y436922D01*
X46547Y436930D01*
X46632Y436953D01*
X46718Y436968D01*
X46805Y437000D01*
X46884Y437021D01*
X46965Y437058D01*
X47045Y437088D01*
X47114Y437128D01*
X47200Y437168D01*
X47276Y437221D01*
X47347Y437262D01*
X47410Y437315D01*
X47486Y437368D01*
X47552Y437434D01*
X47614Y437486D01*
X49614Y439486D01*
X49615Y439485D01*
X49677Y439559D01*
X49732Y439614D01*
X49776Y439677D01*
X49839Y439752D01*
X49889Y439839D01*
X49932Y439900D01*
X49961Y439963D01*
X50014Y440054D01*
X50051Y440156D01*
X50079Y440216D01*
X50097Y440283D01*
X50133Y440382D01*
X50150Y440478D01*
X50170Y440553D01*
X50177Y440635D01*
X50193Y440726D01*
Y440819D01*
X50200Y440900D01*
Y446624D01*
X50260Y446666D01*
X50383Y446789D01*
X50483Y446932D01*
X50557Y447090D01*
X50602Y447258D01*
X50617Y447432D01*
Y451368D01*
X50602Y451542D01*
X50557Y451710D01*
X50483Y451868D01*
X50383Y452011D01*
X50260Y452134D01*
X50117Y452234D01*
X49959Y452308D01*
X49791Y452353D01*
X49617Y452368D01*
X46665D01*
X46491Y452353D01*
X46323Y452308D01*
X46165Y452234D01*
X46022Y452134D01*
X45899Y452011D01*
X45799Y451868D01*
X45725Y451710D01*
X45680Y451542D01*
X45665Y451368D01*
Y447432D01*
X45680Y447258D01*
X45725Y447090D01*
X45799Y446932D01*
X45899Y446789D01*
X46022Y446666D01*
X46165Y446566D01*
X46200Y446550D01*
Y444912D01*
X46186Y445074D01*
X46141Y445242D01*
X46067Y445401D01*
X45967Y445543D01*
X45843Y445667D01*
X45701Y445767D01*
X45542Y445841D01*
X45374Y445886D01*
X45200Y445901D01*
X39575D01*
Y492400D01*
G37*
G36*
X55950D02*X61450D01*
Y451915D01*
X61417Y451868D01*
X61343Y451710D01*
X61298Y451542D01*
X61283Y451368D01*
Y447432D01*
X61298Y447258D01*
X61343Y447090D01*
X61417Y446932D01*
X61450Y446885D01*
Y445701D01*
X57200D01*
X57061Y445689D01*
X56926Y445653D01*
X56799Y445594D01*
X56685Y445514D01*
X56586Y445415D01*
X56506Y445301D01*
X56447Y445174D01*
X56411Y445039D01*
X56399Y444900D01*
Y442900D01*
X56411Y442761D01*
X56447Y442626D01*
X56506Y442499D01*
X56586Y442385D01*
X56685Y442286D01*
X56799Y442206D01*
X56926Y442147D01*
X57061Y442111D01*
X57200Y442099D01*
X61450D01*
Y440701D01*
X57200D01*
X57061Y440689D01*
X56926Y440653D01*
X56799Y440594D01*
X56685Y440514D01*
X56586Y440415D01*
X56506Y440301D01*
X56447Y440174D01*
X56411Y440039D01*
X56399Y439900D01*
Y437900D01*
X56411Y437761D01*
X56447Y437626D01*
X56506Y437499D01*
X56586Y437385D01*
X56685Y437286D01*
X56799Y437206D01*
X56926Y437147D01*
X57061Y437111D01*
X57200Y437099D01*
X61450D01*
Y435701D01*
X57200D01*
X57061Y435689D01*
X56926Y435653D01*
X56799Y435594D01*
X56685Y435514D01*
X56586Y435415D01*
X56506Y435301D01*
X56447Y435174D01*
X56411Y435039D01*
X56399Y434900D01*
Y432900D01*
X56411Y432761D01*
X56447Y432626D01*
X56506Y432499D01*
X56586Y432385D01*
X56685Y432286D01*
X56799Y432206D01*
X56926Y432147D01*
X57061Y432111D01*
X57200Y432099D01*
X61450D01*
Y430701D01*
X57200D01*
X57061Y430689D01*
X56926Y430653D01*
X56799Y430594D01*
X56685Y430514D01*
X56586Y430415D01*
X56506Y430301D01*
X56447Y430174D01*
X56411Y430039D01*
X56399Y429900D01*
Y427900D01*
X56411Y427761D01*
X56447Y427626D01*
X56506Y427499D01*
X56586Y427385D01*
X56685Y427286D01*
X56799Y427206D01*
X56926Y427147D01*
X57061Y427111D01*
X57200Y427099D01*
X61450D01*
Y425701D01*
X57200D01*
X57061Y425689D01*
X56926Y425653D01*
X56799Y425594D01*
X56685Y425514D01*
X56586Y425415D01*
X56506Y425301D01*
X56447Y425174D01*
X56411Y425039D01*
X56399Y424900D01*
Y422900D01*
X56411Y422761D01*
X56447Y422626D01*
X56506Y422499D01*
X56586Y422385D01*
X56685Y422286D01*
X56799Y422206D01*
X56926Y422147D01*
X57061Y422111D01*
X57200Y422099D01*
X61450D01*
Y420701D01*
X57200D01*
X57061Y420689D01*
X56926Y420653D01*
X56799Y420594D01*
X56685Y420514D01*
X56586Y420415D01*
X56506Y420301D01*
X56447Y420174D01*
X56411Y420039D01*
X56399Y419900D01*
Y417900D01*
X56411Y417761D01*
X56447Y417626D01*
X56506Y417499D01*
X56586Y417385D01*
X56685Y417286D01*
X56799Y417206D01*
X56926Y417147D01*
X57061Y417111D01*
X57200Y417099D01*
X61450D01*
Y415701D01*
X57200D01*
X57061Y415689D01*
X56926Y415653D01*
X56799Y415594D01*
X56685Y415514D01*
X56586Y415415D01*
X56506Y415301D01*
X56447Y415174D01*
X56411Y415039D01*
X56399Y414900D01*
Y412900D01*
X56411Y412761D01*
X56447Y412626D01*
X56506Y412499D01*
X56586Y412385D01*
X56685Y412286D01*
X56799Y412206D01*
X56926Y412147D01*
X57061Y412111D01*
X57200Y412099D01*
X61450D01*
Y410701D01*
X57200D01*
X57061Y410689D01*
X56926Y410653D01*
X56799Y410594D01*
X56685Y410514D01*
X56586Y410415D01*
X56506Y410301D01*
X56447Y410174D01*
X56411Y410039D01*
X56399Y409900D01*
Y407900D01*
X56411Y407761D01*
X56447Y407626D01*
X56506Y407499D01*
X56586Y407385D01*
X56685Y407286D01*
X56799Y407206D01*
X56926Y407147D01*
X57061Y407111D01*
X57200Y407099D01*
X61450D01*
Y394220D01*
X61401Y394150D01*
X61290Y393913D01*
X61223Y393660D01*
X61200Y393400D01*
Y387400D01*
X61223Y387140D01*
X61290Y386887D01*
X61401Y386650D01*
X61450Y386580D01*
Y374400D01*
X55950D01*
Y400738D01*
X56001Y400789D01*
X56101Y400932D01*
X56175Y401090D01*
X56220Y401258D01*
X56235Y401432D01*
Y405368D01*
X56220Y405542D01*
X56175Y405710D01*
X56101Y405868D01*
X56001Y406011D01*
X55950Y406062D01*
Y447400D01*
X56168D01*
X56180Y447258D01*
X56225Y447090D01*
X56299Y446932D01*
X56399Y446789D01*
X56522Y446666D01*
X56665Y446566D01*
X56823Y446492D01*
X56991Y446447D01*
X57165Y446432D01*
X60117D01*
X60291Y446447D01*
X60459Y446492D01*
X60617Y446566D01*
X60760Y446666D01*
X60883Y446789D01*
X60983Y446932D01*
X61057Y447090D01*
X61102Y447258D01*
X61117Y447432D01*
Y451368D01*
X61102Y451542D01*
X61057Y451710D01*
X60983Y451868D01*
X60883Y452011D01*
X60760Y452134D01*
X60617Y452234D01*
X60459Y452308D01*
X60291Y452353D01*
X60117Y452368D01*
X57165D01*
X56991Y452353D01*
X56823Y452308D01*
X56665Y452234D01*
X56522Y452134D01*
X56399Y452011D01*
X56299Y451868D01*
X56225Y451710D01*
X56180Y451542D01*
X56168Y451400D01*
X55950D01*
Y492400D01*
G37*
G36*
X39575Y441899D02*X45200D01*
X45374Y441914D01*
X45542Y441959D01*
X45701Y442033D01*
X45843Y442133D01*
X45967Y442257D01*
X46067Y442399D01*
X46141Y442558D01*
X46186Y442726D01*
X46200Y442888D01*
Y441730D01*
X45370Y440900D01*
X45212D01*
X45200Y440901D01*
X39575D01*
Y441899D01*
G37*
G36*
X61450Y492400D02*X68700D01*
Y485701D01*
X67700D01*
X67561Y485689D01*
X67426Y485653D01*
X67299Y485594D01*
X67185Y485514D01*
X67086Y485415D01*
X67006Y485301D01*
X66947Y485174D01*
X66911Y485039D01*
X66899Y484900D01*
Y476400D01*
X66911Y476261D01*
X66947Y476126D01*
X67006Y475999D01*
X67086Y475885D01*
X67185Y475786D01*
X67299Y475706D01*
X67426Y475647D01*
X67561Y475611D01*
X67700Y475599D01*
X68700D01*
Y475150D01*
X66200D01*
X66132Y475144D01*
X66047D01*
X65961Y475129D01*
X65896Y475123D01*
X65833Y475106D01*
X65747Y475091D01*
X65663Y475061D01*
X65601Y475044D01*
X65545Y475018D01*
X65460Y474987D01*
X65388Y474945D01*
X65325Y474916D01*
X65266Y474874D01*
X65196Y474834D01*
X65136Y474783D01*
X65075Y474741D01*
X65024Y474690D01*
X64962Y474638D01*
X62962Y472638D01*
X62963Y472637D01*
X62921Y472587D01*
X62859Y472525D01*
X62807Y472451D01*
X62767Y472403D01*
X62736Y472350D01*
X62684Y472275D01*
X62645Y472192D01*
X62615Y472139D01*
X62594Y472082D01*
X62556Y471999D01*
X62536Y471922D01*
X62510Y471853D01*
X62496Y471775D01*
X62477Y471704D01*
X62470Y471626D01*
X62457Y471552D01*
Y471479D01*
X62450Y471400D01*
Y452368D01*
X62283D01*
X62109Y452353D01*
X61941Y452308D01*
X61783Y452234D01*
X61640Y452134D01*
X61517Y452011D01*
X61450Y451915D01*
Y492400D01*
G37*
G36*
X68700D02*X73700D01*
Y487876D01*
X72462Y486638D01*
X72463Y486637D01*
X72422Y486588D01*
X72359Y486525D01*
X72306Y486449D01*
X72267Y486403D01*
X72236Y486350D01*
X72184Y486275D01*
X72145Y486191D01*
X72115Y486139D01*
X72092Y486078D01*
X72056Y485999D01*
X72036Y485925D01*
X72010Y485853D01*
X71997Y485778D01*
X71977Y485704D01*
X71970Y485626D01*
X71957Y485552D01*
Y485479D01*
X71950Y485400D01*
Y485180D01*
X71947Y485174D01*
X71911Y485039D01*
X71899Y484900D01*
Y477075D01*
X69974Y475150D01*
X68700D01*
Y475599D01*
X69700D01*
X69839Y475611D01*
X69974Y475647D01*
X70101Y475706D01*
X70215Y475786D01*
X70314Y475885D01*
X70394Y475999D01*
X70453Y476126D01*
X70489Y476261D01*
X70501Y476400D01*
Y484900D01*
X70489Y485039D01*
X70453Y485174D01*
X70394Y485301D01*
X70314Y485415D01*
X70215Y485514D01*
X70101Y485594D01*
X69974Y485653D01*
X69839Y485689D01*
X69700Y485701D01*
X68700D01*
Y492400D01*
G37*
G36*
X73700Y425400D02*X66325D01*
X66314Y425415D01*
X66215Y425514D01*
X66101Y425594D01*
X65974Y425653D01*
X65839Y425689D01*
X65700Y425701D01*
X61450D01*
Y427099D01*
X63848D01*
X64016Y427021D01*
X64353Y426930D01*
X64700Y426900D01*
X67474D01*
X67772Y426602D01*
X68200Y426302D01*
X68674Y426081D01*
X69179Y425946D01*
X69700Y425900D01*
X70221Y425946D01*
X70726Y426081D01*
X71200Y426302D01*
X71628Y426602D01*
X71998Y426972D01*
X72298Y427400D01*
X72519Y427874D01*
X72654Y428379D01*
X72700Y428900D01*
X72654Y429421D01*
X72519Y429926D01*
X72298Y430400D01*
X71998Y430828D01*
X71908Y430918D01*
X72221Y430946D01*
X72726Y431081D01*
X73200Y431302D01*
X73628Y431602D01*
X73700Y431674D01*
Y425400D01*
G37*
G36*
Y436126D02*X73628Y436198D01*
X73200Y436498D01*
X72726Y436719D01*
X72221Y436854D01*
X71908Y436882D01*
X71998Y436972D01*
X72298Y437400D01*
X72519Y437874D01*
X72654Y438379D01*
X72700Y438900D01*
X72654Y439421D01*
X72519Y439926D01*
X72298Y440400D01*
X71998Y440828D01*
X71908Y440918D01*
X72221Y440946D01*
X72726Y441081D01*
X73200Y441302D01*
X73628Y441602D01*
X73700Y441674D01*
Y436126D01*
G37*
G36*
X69200Y445900D02*X66200D01*
Y447183D01*
X66220Y447258D01*
X66235Y447432D01*
Y451368D01*
X66220Y451542D01*
X66175Y451710D01*
X66101Y451868D01*
X66001Y452011D01*
X65950Y452062D01*
Y470676D01*
X66924Y471650D01*
X69200D01*
Y471400D01*
X68679Y471354D01*
X68174Y471219D01*
X67700Y470998D01*
X67272Y470698D01*
X66902Y470328D01*
X66602Y469900D01*
X66381Y469426D01*
X66246Y468921D01*
X66200Y468400D01*
X66246Y467879D01*
X66381Y467374D01*
X66602Y466900D01*
X66902Y466472D01*
X67200Y466174D01*
Y465025D01*
X67185Y465014D01*
X67086Y464915D01*
X67006Y464801D01*
X66947Y464674D01*
X66911Y464539D01*
X66899Y464400D01*
Y455900D01*
X66911Y455761D01*
X66947Y455626D01*
X67006Y455499D01*
X67086Y455385D01*
X67185Y455286D01*
X67299Y455206D01*
X67426Y455147D01*
X67561Y455111D01*
X67700Y455099D01*
X69200D01*
Y445900D01*
G37*
G36*
X73700Y446126D02*X73628Y446198D01*
X73200Y446498D01*
X72726Y446719D01*
X72221Y446854D01*
X71700Y446900D01*
X71179Y446854D01*
X70674Y446719D01*
X70200Y446498D01*
X69772Y446198D01*
X69474Y445900D01*
X69200D01*
Y455099D01*
X69700D01*
X69839Y455111D01*
X69974Y455147D01*
X70101Y455206D01*
X70215Y455286D01*
X70314Y455385D01*
X70394Y455499D01*
X70453Y455626D01*
X70489Y455761D01*
X70501Y455900D01*
Y464400D01*
X70489Y464539D01*
X70453Y464674D01*
X70394Y464801D01*
X70314Y464915D01*
X70215Y465014D01*
X70200Y465025D01*
Y465574D01*
X70226Y465581D01*
X70700Y465802D01*
X71128Y466102D01*
X71498Y466472D01*
X71798Y466900D01*
X72019Y467374D01*
X72154Y467879D01*
X72200Y468400D01*
X72154Y468921D01*
X72019Y469426D01*
X71798Y469900D01*
X71498Y470328D01*
X71128Y470698D01*
X70700Y470998D01*
X70226Y471219D01*
X69721Y471354D01*
X69200Y471400D01*
Y471650D01*
X70700D01*
X70779Y471657D01*
X70852D01*
X70926Y471670D01*
X71004Y471677D01*
X71078Y471697D01*
X71153Y471710D01*
X71225Y471736D01*
X71299Y471756D01*
X71378Y471792D01*
X71439Y471815D01*
X71491Y471845D01*
X71575Y471884D01*
X71650Y471936D01*
X71703Y471967D01*
X71749Y472006D01*
X71825Y472059D01*
X71888Y472122D01*
X71937Y472163D01*
X73700Y473926D01*
Y465201D01*
X72700D01*
X72561Y465189D01*
X72426Y465153D01*
X72299Y465094D01*
X72185Y465014D01*
X72086Y464915D01*
X72006Y464801D01*
X71947Y464674D01*
X71911Y464539D01*
X71899Y464400D01*
Y455900D01*
X71911Y455761D01*
X71947Y455626D01*
X72006Y455499D01*
X72086Y455385D01*
X72185Y455286D01*
X72299Y455206D01*
X72426Y455147D01*
X72561Y455111D01*
X72700Y455099D01*
X73700D01*
Y446126D01*
G37*
G36*
Y492400D02*X84200D01*
Y488650D01*
X75200D01*
X75132Y488644D01*
X75047D01*
X74962Y488629D01*
X74896Y488623D01*
X74834Y488606D01*
X74747Y488591D01*
X74663Y488560D01*
X74601Y488544D01*
X74543Y488517D01*
X74460Y488487D01*
X74387Y488445D01*
X74325Y488416D01*
X74265Y488374D01*
X74196Y488334D01*
X74136Y488283D01*
X74075Y488241D01*
X74024Y488190D01*
X73962Y488138D01*
X73700Y487876D01*
Y492400D01*
G37*
G36*
X84200Y425400D02*X73700D01*
Y431674D01*
X73998Y431972D01*
X74298Y432400D01*
X74519Y432874D01*
X74654Y433379D01*
X74700Y433900D01*
X74654Y434421D01*
X74519Y434926D01*
X74298Y435400D01*
X73998Y435828D01*
X73700Y436126D01*
Y441674D01*
X73998Y441972D01*
X74123Y442150D01*
X74500D01*
X74579Y442157D01*
X74652D01*
X74726Y442170D01*
X74804Y442177D01*
X74878Y442197D01*
X74953Y442210D01*
X75025Y442236D01*
X75099Y442256D01*
X75178Y442292D01*
X75239Y442315D01*
X75291Y442345D01*
X75375Y442384D01*
X75450Y442436D01*
X75503Y442467D01*
X75549Y442506D01*
X75625Y442559D01*
X75688Y442622D01*
X75737Y442663D01*
X80137Y447063D01*
X80138Y447062D01*
X80190Y447124D01*
X80241Y447175D01*
X80284Y447236D01*
X80334Y447296D01*
X80375Y447366D01*
X80416Y447425D01*
X80445Y447487D01*
X80487Y447560D01*
X80517Y447643D01*
X80544Y447701D01*
X80560Y447763D01*
X80591Y447847D01*
X80606Y447934D01*
X80623Y447996D01*
X80629Y448062D01*
X80644Y448147D01*
Y448232D01*
X80650Y448300D01*
Y450650D01*
X81290D01*
X81292Y450641D01*
X81366Y450483D01*
X81466Y450340D01*
X81589Y450217D01*
X81732Y450117D01*
X81890Y450043D01*
X82058Y449998D01*
X82232Y449983D01*
X84200D01*
Y449817D01*
X82232D01*
X82058Y449802D01*
X81890Y449757D01*
X81732Y449683D01*
X81589Y449583D01*
X81466Y449460D01*
X81366Y449317D01*
X81292Y449159D01*
X81247Y448991D01*
X81232Y448817D01*
Y445865D01*
X81247Y445691D01*
X81292Y445523D01*
X81366Y445365D01*
X81466Y445222D01*
X81589Y445099D01*
X81732Y444999D01*
X81890Y444925D01*
X82058Y444880D01*
X82232Y444865D01*
X84200D01*
Y425400D01*
G37*
G36*
Y465201D02*X82700D01*
X82561Y465189D01*
X82426Y465153D01*
X82299Y465094D01*
X82185Y465014D01*
X82086Y464915D01*
X82006Y464801D01*
X81947Y464674D01*
X81911Y464539D01*
X81899Y464400D01*
Y457752D01*
X81821Y457584D01*
X81730Y457247D01*
X81700Y456900D01*
Y454779D01*
X81589Y454701D01*
X81466Y454578D01*
X81366Y454435D01*
X81292Y454277D01*
X81258Y454150D01*
X80650D01*
Y456000D01*
X80623Y456304D01*
X80544Y456599D01*
X80501Y456692D01*
Y464400D01*
X80489Y464539D01*
X80453Y464674D01*
X80394Y464801D01*
X80314Y464915D01*
X80215Y465014D01*
X80101Y465094D01*
X79974Y465153D01*
X79839Y465189D01*
X79700Y465201D01*
X77700D01*
X77561Y465189D01*
X77426Y465153D01*
X77299Y465094D01*
X77185Y465014D01*
X77086Y464915D01*
X77006Y464801D01*
X76947Y464674D01*
X76911Y464539D01*
X76899Y464400D01*
Y455900D01*
X76911Y455761D01*
X76947Y455626D01*
X77006Y455499D01*
X77086Y455385D01*
X77150Y455321D01*
Y449026D01*
X73975Y445851D01*
X73700Y446126D01*
Y455099D01*
X74700D01*
X74839Y455111D01*
X74974Y455147D01*
X75101Y455206D01*
X75215Y455286D01*
X75314Y455385D01*
X75394Y455499D01*
X75453Y455626D01*
X75489Y455761D01*
X75501Y455900D01*
Y464400D01*
X75489Y464539D01*
X75453Y464674D01*
X75394Y464801D01*
X75314Y464915D01*
X75215Y465014D01*
X75101Y465094D01*
X74974Y465153D01*
X74839Y465189D01*
X74700Y465201D01*
X73700D01*
Y473926D01*
X74937Y475163D01*
X74938Y475162D01*
X75134Y475396D01*
X75287Y475660D01*
X75391Y475947D01*
X75404Y476020D01*
X75453Y476126D01*
X75489Y476261D01*
X75501Y476400D01*
Y484727D01*
X75924Y485150D01*
X76941D01*
X76911Y485039D01*
X76899Y484900D01*
Y476400D01*
X76911Y476261D01*
X76947Y476126D01*
X77006Y475999D01*
X77086Y475885D01*
X77185Y475786D01*
X77200Y475775D01*
Y474400D01*
X77201Y474389D01*
X77200Y474376D01*
X77214Y474238D01*
X77223Y474140D01*
X77225Y474131D01*
X77227Y474116D01*
X77259Y474003D01*
X77290Y473887D01*
X77296Y473874D01*
X77299Y473864D01*
X77347Y473766D01*
X77401Y473650D01*
X77407Y473642D01*
X77413Y473629D01*
X78913Y471129D01*
X78914Y471128D01*
X78983Y471033D01*
X79051Y470936D01*
X79060Y470927D01*
X79068Y470916D01*
X79158Y470829D01*
X79236Y470751D01*
X79248Y470742D01*
X79256Y470735D01*
X79334Y470682D01*
X79450Y470601D01*
X79459Y470597D01*
X79472Y470588D01*
X79584Y470538D01*
X79687Y470490D01*
X79702Y470486D01*
X79711Y470482D01*
X79802Y470460D01*
X79940Y470423D01*
X79954Y470422D01*
X79965Y470419D01*
X80086Y470410D01*
X80200Y470400D01*
X84200D01*
Y465201D01*
G37*
G36*
Y473400D02*X81049D01*
X80200Y474815D01*
Y475775D01*
X80215Y475786D01*
X80314Y475885D01*
X80394Y475999D01*
X80453Y476126D01*
X80489Y476261D01*
X80501Y476400D01*
Y484900D01*
X80489Y485039D01*
X80459Y485150D01*
X81941D01*
X81911Y485039D01*
X81899Y484900D01*
Y476400D01*
X81911Y476261D01*
X81947Y476126D01*
X82006Y475999D01*
X82086Y475885D01*
X82185Y475786D01*
X82299Y475706D01*
X82426Y475647D01*
X82561Y475611D01*
X82700Y475599D01*
X84200D01*
Y473400D01*
G37*
G36*
Y492400D02*X186250D01*
Y476400D01*
X178798D01*
X178498Y476828D01*
X178128Y477198D01*
X177700Y477498D01*
X177226Y477719D01*
X176721Y477854D01*
X176200Y477900D01*
X175679Y477854D01*
X175174Y477719D01*
X174700Y477498D01*
X174272Y477198D01*
X173902Y476828D01*
X173602Y476400D01*
X173381Y475926D01*
X173246Y475421D01*
X173200Y474900D01*
X173246Y474379D01*
X173381Y473874D01*
X173602Y473400D01*
X173902Y472972D01*
X174272Y472602D01*
X174700Y472302D01*
X175174Y472081D01*
X175679Y471946D01*
X176200Y471900D01*
X176721Y471946D01*
X177226Y472081D01*
X177700Y472302D01*
X178128Y472602D01*
X178498Y472972D01*
X178798Y473400D01*
X186250D01*
Y469576D01*
X186128Y469698D01*
X185700Y469998D01*
X185226Y470219D01*
X184721Y470354D01*
X184200Y470400D01*
X183679Y470354D01*
X183174Y470219D01*
X182700Y469998D01*
X182272Y469698D01*
X181902Y469328D01*
X181602Y468900D01*
X181381Y468426D01*
X181246Y467921D01*
X181200Y467400D01*
X181246Y466879D01*
X181381Y466374D01*
X181602Y465900D01*
X181902Y465472D01*
X182272Y465102D01*
X182700Y464802D01*
X183174Y464581D01*
X183679Y464446D01*
X184200Y464400D01*
X180321D01*
X178088Y466633D01*
X178154Y466879D01*
X178200Y467400D01*
X178154Y467921D01*
X178019Y468426D01*
X177798Y468900D01*
X177498Y469328D01*
X177128Y469698D01*
X176700Y469998D01*
X176226Y470219D01*
X175721Y470354D01*
X175200Y470400D01*
X174679Y470354D01*
X174174Y470219D01*
X173700Y469998D01*
X173272Y469698D01*
X172902Y469328D01*
X172602Y468900D01*
X172381Y468426D01*
X172246Y467921D01*
X172200Y467400D01*
X172246Y466879D01*
X172381Y466374D01*
X172602Y465900D01*
X172902Y465472D01*
X173272Y465102D01*
X173700Y464802D01*
X174174Y464581D01*
X174679Y464446D01*
X175200Y464400D01*
X175721Y464446D01*
X175967Y464512D01*
X178640Y461839D01*
X178690Y461797D01*
X178736Y461751D01*
X178789Y461714D01*
X178840Y461671D01*
X178897Y461638D01*
X178950Y461601D01*
X179010Y461573D01*
X179067Y461540D01*
X179125Y461519D01*
X179187Y461490D01*
X179255Y461472D01*
X179313Y461451D01*
X179376Y461440D01*
X179440Y461423D01*
X179507Y461417D01*
X179570Y461406D01*
X179632D01*
X179700Y461400D01*
X186250D01*
Y452471D01*
X177761Y460960D01*
X177711Y461002D01*
X177664Y461049D01*
X177609Y461087D01*
X177561Y461128D01*
X177506Y461160D01*
X177450Y461199D01*
X177386Y461229D01*
X177334Y461259D01*
X177280Y461279D01*
X177213Y461310D01*
X177141Y461329D01*
X177089Y461348D01*
X177029Y461359D01*
X176960Y461377D01*
X176894Y461383D01*
X176831Y461394D01*
X176768D01*
X176700Y461400D01*
X171778D01*
X171789Y461424D01*
X171856Y461677D01*
X171879Y461937D01*
Y463511D01*
X171856Y463771D01*
X171789Y464024D01*
X171678Y464261D01*
X171528Y464475D01*
X171343Y464660D01*
X171129Y464810D01*
X170892Y464921D01*
X170639Y464988D01*
X170379Y465011D01*
X166700D01*
Y477400D01*
X166694Y477468D01*
Y477531D01*
X166683Y477594D01*
X166677Y477660D01*
X166659Y477729D01*
X166648Y477789D01*
X166629Y477841D01*
X166610Y477913D01*
X166579Y477980D01*
X166559Y478034D01*
X166529Y478086D01*
X166499Y478150D01*
X166460Y478206D01*
X166428Y478261D01*
X166387Y478309D01*
X166349Y478364D01*
X166302Y478411D01*
X166260Y478461D01*
X159761Y484960D01*
X159711Y485002D01*
X159664Y485049D01*
X159609Y485087D01*
X159561Y485128D01*
X159506Y485160D01*
X159450Y485199D01*
X159386Y485229D01*
X159334Y485259D01*
X159280Y485279D01*
X159213Y485310D01*
X159141Y485329D01*
X159089Y485348D01*
X159029Y485359D01*
X158960Y485377D01*
X158894Y485383D01*
X158831Y485394D01*
X158768D01*
X158700Y485400D01*
X122200D01*
X122143Y485395D01*
X122069D01*
X121996Y485382D01*
X121940Y485377D01*
X121881Y485361D01*
X121812Y485349D01*
X121751Y485327D01*
X121687Y485310D01*
X121628Y485282D01*
X121566Y485260D01*
X121505Y485225D01*
X121450Y485199D01*
X121403Y485166D01*
X121339Y485129D01*
X121283Y485082D01*
X121236Y485049D01*
X121195Y485008D01*
X121139Y484961D01*
X92639Y456461D01*
X92640Y456460D01*
X92603Y456416D01*
X92551Y456364D01*
X92509Y456304D01*
X92472Y456260D01*
X92443Y456210D01*
X92401Y456150D01*
X92371Y456086D01*
X92341Y456034D01*
X92322Y455981D01*
X92290Y455913D01*
X92270Y455837D01*
X92252Y455788D01*
X92242Y455733D01*
X92223Y455660D01*
X92216Y455585D01*
X92207Y455531D01*
Y455479D01*
X92200Y455400D01*
Y426022D01*
X91578Y425400D01*
X84200D01*
Y444865D01*
X86168D01*
X86342Y444880D01*
X86510Y444925D01*
X86668Y444999D01*
X86811Y445099D01*
X86934Y445222D01*
X87034Y445365D01*
X87108Y445523D01*
X87153Y445691D01*
X87168Y445865D01*
Y448817D01*
X87153Y448991D01*
X87108Y449159D01*
X87034Y449317D01*
X86934Y449460D01*
X86811Y449583D01*
X86668Y449683D01*
X86510Y449757D01*
X86342Y449802D01*
X86168Y449817D01*
X84200D01*
Y449983D01*
X86168D01*
X86342Y449998D01*
X86510Y450043D01*
X86668Y450117D01*
X86811Y450217D01*
X86934Y450340D01*
X87034Y450483D01*
X87108Y450641D01*
X87153Y450809D01*
X87168Y450983D01*
Y453935D01*
X87153Y454109D01*
X87108Y454277D01*
X87034Y454435D01*
X86934Y454578D01*
X86811Y454701D01*
X86668Y454801D01*
X86510Y454875D01*
X86342Y454920D01*
X86168Y454935D01*
X85700D01*
Y456900D01*
X85670Y457247D01*
X85579Y457584D01*
X85501Y457752D01*
Y464400D01*
X85489Y464539D01*
X85453Y464674D01*
X85394Y464801D01*
X85314Y464915D01*
X85215Y465014D01*
X85101Y465094D01*
X84974Y465153D01*
X84839Y465189D01*
X84700Y465201D01*
X84200D01*
Y470400D01*
X87602D01*
X87902Y469972D01*
X88272Y469602D01*
X88700Y469302D01*
X89174Y469081D01*
X89679Y468946D01*
X90200Y468900D01*
X90721Y468946D01*
X91226Y469081D01*
X91700Y469302D01*
X92128Y469602D01*
X92498Y469972D01*
X92798Y470400D01*
X93019Y470874D01*
X93154Y471379D01*
X93200Y471900D01*
X93154Y472421D01*
X93019Y472926D01*
X92798Y473400D01*
X92498Y473828D01*
X92128Y474198D01*
X91700Y474498D01*
X91226Y474719D01*
X90721Y474854D01*
X90200Y474900D01*
X89679Y474854D01*
X89174Y474719D01*
X88700Y474498D01*
X88272Y474198D01*
X87902Y473828D01*
X87602Y473400D01*
X84200D01*
Y475599D01*
X84700D01*
X84839Y475611D01*
X84974Y475647D01*
X85101Y475706D01*
X85215Y475786D01*
X85314Y475885D01*
X85394Y475999D01*
X85453Y476126D01*
X85489Y476261D01*
X85501Y476400D01*
Y478650D01*
X95200D01*
X95279Y478657D01*
X95352D01*
X95426Y478670D01*
X95504Y478677D01*
X95575Y478696D01*
X95653Y478710D01*
X95722Y478736D01*
X95799Y478756D01*
X95882Y478794D01*
X95939Y478815D01*
X95992Y478845D01*
X96075Y478884D01*
X96150Y478936D01*
X96203Y478967D01*
X96251Y479007D01*
X96325Y479059D01*
X96387Y479121D01*
X96437Y479163D01*
X96456Y479182D01*
X96674Y479081D01*
X97179Y478946D01*
X97700Y478900D01*
X98221Y478946D01*
X98726Y479081D01*
X99200Y479302D01*
X99628Y479602D01*
X99998Y479972D01*
X100298Y480400D01*
X100519Y480874D01*
X100654Y481379D01*
X100700Y481900D01*
X100654Y482421D01*
X100519Y482926D01*
X100298Y483400D01*
X99998Y483828D01*
X99628Y484198D01*
X99200Y484498D01*
X98726Y484719D01*
X98221Y484854D01*
X97700Y484900D01*
X97179Y484854D01*
X96674Y484719D01*
X96200Y484498D01*
X95772Y484198D01*
X95402Y483828D01*
X95102Y483400D01*
X94881Y482926D01*
X94746Y482422D01*
X94474Y482150D01*
X92018D01*
X92017Y482152D01*
X91943Y482310D01*
X91880Y482400D01*
X91943Y482490D01*
X92017Y482648D01*
X92062Y482816D01*
X92077Y482990D01*
Y484958D01*
X92062Y485132D01*
X92017Y485300D01*
X91943Y485458D01*
X91843Y485601D01*
X91720Y485724D01*
X91577Y485824D01*
X91450Y485883D01*
Y485900D01*
X91443Y485980D01*
Y486053D01*
X91430Y486130D01*
X91423Y486204D01*
X91404Y486276D01*
X91390Y486354D01*
X91363Y486428D01*
X91344Y486499D01*
X91313Y486566D01*
X91286Y486640D01*
X91250Y486703D01*
X91216Y486775D01*
X91168Y486843D01*
X91133Y486904D01*
X91088Y486958D01*
X91041Y487025D01*
X90983Y487083D01*
X90937Y487138D01*
X89938Y488137D01*
X89882Y488184D01*
X89825Y488241D01*
X89757Y488289D01*
X89704Y488333D01*
X89645Y488367D01*
X89575Y488416D01*
X89505Y488448D01*
X89440Y488486D01*
X89365Y488513D01*
X89299Y488544D01*
X89229Y488563D01*
X89154Y488590D01*
X89075Y488604D01*
X89004Y488623D01*
X88929Y488630D01*
X88853Y488643D01*
X88780D01*
X88700Y488650D01*
X84200D01*
Y492400D01*
G37*
G36*
X186250Y464400D02*X184200D01*
X184721Y464446D01*
X185226Y464581D01*
X185700Y464802D01*
X186128Y465102D01*
X186250Y465224D01*
Y464400D01*
G37*
G36*
Y492400D02*X194800D01*
Y489500D01*
X194019Y489432D01*
X193261Y489229D01*
X192550Y488897D01*
X191907Y488447D01*
X191353Y487893D01*
X190903Y487250D01*
X190571Y486539D01*
X190368Y485781D01*
X190300Y485000D01*
X190368Y484219D01*
X190571Y483461D01*
X190903Y482750D01*
X191353Y482107D01*
X191907Y481553D01*
X192550Y481103D01*
X193261Y480771D01*
X194019Y480568D01*
X194800Y480500D01*
Y479500D01*
X194019Y479432D01*
X193261Y479229D01*
X192550Y478897D01*
X191907Y478447D01*
X191353Y477893D01*
X190903Y477250D01*
X190571Y476539D01*
X190534Y476400D01*
X186250D01*
Y492400D01*
G37*
G36*
X194800Y464400D02*X186250D01*
Y465224D01*
X186498Y465472D01*
X186798Y465900D01*
X194800D01*
Y464400D01*
G37*
G36*
Y468900D02*X186798D01*
X186498Y469328D01*
X186250Y469576D01*
Y473400D01*
X190599D01*
X190903Y472750D01*
X191353Y472107D01*
X191907Y471553D01*
X192550Y471103D01*
X193261Y470771D01*
X194019Y470568D01*
X194800Y470500D01*
Y468900D01*
G37*
G36*
Y492400D02*X212659D01*
Y489500D01*
X211800D01*
X211540Y489477D01*
X211287Y489410D01*
X211050Y489299D01*
X210836Y489149D01*
X210651Y488964D01*
X210501Y488750D01*
X210390Y488513D01*
X210323Y488260D01*
X210300Y488000D01*
Y482000D01*
X210323Y481740D01*
X210390Y481487D01*
X210501Y481250D01*
X210651Y481036D01*
X210836Y480851D01*
X211050Y480701D01*
X211287Y480590D01*
X211540Y480523D01*
X211800Y480500D01*
X212659D01*
Y478948D01*
X212550Y478897D01*
X211907Y478447D01*
X211353Y477893D01*
X210903Y477250D01*
X210571Y476539D01*
X210368Y475781D01*
X210300Y475000D01*
X210368Y474219D01*
X210571Y473461D01*
X210903Y472750D01*
X211353Y472107D01*
X211907Y471553D01*
X212550Y471103D01*
X212659Y471052D01*
Y469981D01*
X207078Y464400D01*
X194800D01*
Y465900D01*
X201200D01*
X201280Y465907D01*
X201331D01*
X201384Y465916D01*
X201460Y465923D01*
X201534Y465943D01*
X201588Y465952D01*
X201639Y465970D01*
X201713Y465990D01*
X201778Y466021D01*
X201834Y466041D01*
X201885Y466071D01*
X201950Y466101D01*
X202011Y466143D01*
X202060Y466172D01*
X202104Y466209D01*
X202164Y466251D01*
X202216Y466303D01*
X202260Y466340D01*
X205260Y469340D01*
X205261Y469339D01*
X205308Y469395D01*
X205349Y469436D01*
X205382Y469483D01*
X205429Y469539D01*
X205466Y469603D01*
X205499Y469650D01*
X205525Y469705D01*
X205560Y469766D01*
X205582Y469828D01*
X205610Y469887D01*
X205627Y469951D01*
X205649Y470012D01*
X205661Y470081D01*
X205677Y470140D01*
X205682Y470196D01*
X205695Y470269D01*
Y470343D01*
X205700Y470400D01*
Y470600D01*
X206339Y470771D01*
X207050Y471103D01*
X207693Y471553D01*
X208247Y472107D01*
X208697Y472750D01*
X209029Y473461D01*
X209232Y474219D01*
X209300Y475000D01*
X209232Y475781D01*
X209029Y476539D01*
X208697Y477250D01*
X208247Y477893D01*
X207693Y478447D01*
X207050Y478897D01*
X206339Y479229D01*
X205581Y479432D01*
X204800Y479500D01*
X204019Y479432D01*
X203261Y479229D01*
X202550Y478897D01*
X201907Y478447D01*
X201353Y477893D01*
X200903Y477250D01*
X200571Y476539D01*
X200368Y475781D01*
X200300Y475000D01*
X200368Y474219D01*
X200571Y473461D01*
X200903Y472750D01*
X201353Y472107D01*
X201907Y471553D01*
X202550Y471103D01*
X202700Y471032D01*
Y471022D01*
X200578Y468900D01*
X194800D01*
Y470500D01*
X195581Y470568D01*
X196339Y470771D01*
X197050Y471103D01*
X197693Y471553D01*
X198247Y472107D01*
X198697Y472750D01*
X199029Y473461D01*
X199232Y474219D01*
X199300Y475000D01*
X199232Y475781D01*
X199029Y476539D01*
X198697Y477250D01*
X198247Y477893D01*
X197693Y478447D01*
X197050Y478897D01*
X196339Y479229D01*
X195581Y479432D01*
X194800Y479500D01*
Y480500D01*
X195581Y480568D01*
X196339Y480771D01*
X197050Y481103D01*
X197693Y481553D01*
X198247Y482107D01*
X198697Y482750D01*
X199029Y483461D01*
X199232Y484219D01*
X199300Y485000D01*
X199232Y485781D01*
X199029Y486539D01*
X198697Y487250D01*
X198247Y487893D01*
X197693Y488447D01*
X197050Y488897D01*
X196339Y489229D01*
X195581Y489432D01*
X194800Y489500D01*
Y492400D01*
G37*
G36*
X186250Y461400D02*X207700D01*
X207780Y461407D01*
X207831D01*
X207884Y461416D01*
X207960Y461423D01*
X208034Y461443D01*
X208088Y461452D01*
X208139Y461470D01*
X208213Y461490D01*
X208278Y461521D01*
X208334Y461541D01*
X208385Y461571D01*
X208450Y461601D01*
X208511Y461643D01*
X208560Y461672D01*
X208604Y461709D01*
X208664Y461751D01*
X208716Y461803D01*
X208760Y461840D01*
X212659Y465739D01*
Y447900D01*
X190821D01*
X186250Y452471D01*
Y461400D01*
G37*
G36*
X61450Y422099D02*X65700D01*
X65839Y422111D01*
X65974Y422147D01*
X66101Y422206D01*
X66215Y422286D01*
X66314Y422385D01*
X66325Y422400D01*
X92200D01*
X92279Y422407D01*
X92331D01*
X92385Y422416D01*
X92460Y422423D01*
X92533Y422442D01*
X92588Y422452D01*
X92637Y422470D01*
X92713Y422490D01*
X92781Y422522D01*
X92834Y422541D01*
X92886Y422571D01*
X92950Y422601D01*
X93010Y422643D01*
X93060Y422672D01*
X93104Y422709D01*
X93164Y422751D01*
X93216Y422803D01*
X93260Y422840D01*
X94760Y424340D01*
X94761Y424339D01*
X94808Y424395D01*
X94849Y424436D01*
X94882Y424483D01*
X94929Y424539D01*
X94966Y424603D01*
X94999Y424650D01*
X95025Y424705D01*
X95060Y424766D01*
X95083Y424829D01*
X95110Y424887D01*
X95126Y424949D01*
X95149Y425012D01*
X95161Y425081D01*
X95177Y425140D01*
X95182Y425198D01*
X95195Y425269D01*
Y425343D01*
X95200Y425400D01*
Y423022D01*
X92578Y420400D01*
X66325D01*
X66314Y420415D01*
X66215Y420514D01*
X66101Y420594D01*
X65974Y420653D01*
X65839Y420689D01*
X65700Y420701D01*
X61450D01*
Y422099D01*
G37*
G36*
Y417099D02*X65700D01*
X65839Y417111D01*
X65974Y417147D01*
X66101Y417206D01*
X66215Y417286D01*
X66314Y417385D01*
X66325Y417400D01*
X93200D01*
X93280Y417407D01*
X93331D01*
X93383Y417416D01*
X93460Y417423D01*
X93535Y417443D01*
X93588Y417452D01*
X93639Y417470D01*
X93713Y417490D01*
X93778Y417521D01*
X93834Y417541D01*
X93885Y417571D01*
X93950Y417601D01*
X94011Y417643D01*
X94060Y417672D01*
X94104Y417709D01*
X94164Y417751D01*
X94216Y417803D01*
X94260Y417840D01*
X97700Y421280D01*
Y421022D01*
X92078Y415400D01*
X66325D01*
X66314Y415415D01*
X66215Y415514D01*
X66101Y415594D01*
X65974Y415653D01*
X65839Y415689D01*
X65700Y415701D01*
X61450D01*
Y417099D01*
G37*
G36*
Y412099D02*X65700D01*
X65839Y412111D01*
X65974Y412147D01*
X66101Y412206D01*
X66215Y412286D01*
X66314Y412385D01*
X66325Y412400D01*
X92700D01*
X92780Y412407D01*
X92831D01*
X92883Y412416D01*
X92960Y412423D01*
X93035Y412443D01*
X93088Y412452D01*
X93139Y412470D01*
X93213Y412490D01*
X93279Y412521D01*
X93334Y412541D01*
X93385Y412571D01*
X93450Y412601D01*
X93510Y412643D01*
X93560Y412672D01*
X93604Y412709D01*
X93664Y412751D01*
X93716Y412803D01*
X93760Y412840D01*
X100200Y419280D01*
Y419022D01*
X92078Y410900D01*
X65200D01*
X65143Y410895D01*
X65069D01*
X64997Y410882D01*
X64940Y410877D01*
X64880Y410861D01*
X64812Y410849D01*
X64750Y410827D01*
X64687Y410810D01*
X64629Y410783D01*
X64566Y410760D01*
X64506Y410725D01*
X64454Y410701D01*
X61450D01*
Y412099D01*
G37*
G36*
Y407099D02*X65700D01*
X65839Y407111D01*
X65974Y407147D01*
X66101Y407206D01*
X66215Y407286D01*
X66314Y407385D01*
X66394Y407499D01*
X66453Y407626D01*
X66489Y407761D01*
X66501Y407900D01*
X92700D01*
X92780Y407907D01*
X92831D01*
X92883Y407916D01*
X92960Y407923D01*
X93035Y407943D01*
X93088Y407952D01*
X93139Y407970D01*
X93213Y407990D01*
X93279Y408021D01*
X93334Y408041D01*
X93385Y408071D01*
X93450Y408101D01*
X93510Y408143D01*
X93560Y408172D01*
X93604Y408209D01*
X93664Y408251D01*
X93716Y408303D01*
X93760Y408340D01*
X102760Y417340D01*
X102761Y417339D01*
X102808Y417395D01*
X102849Y417436D01*
X102882Y417483D01*
X102929Y417539D01*
X102950Y417575D01*
Y417126D01*
X84462Y398638D01*
X84463Y398637D01*
X84421Y398587D01*
X84359Y398525D01*
X84307Y398451D01*
X84267Y398403D01*
X84236Y398350D01*
X84184Y398275D01*
X84145Y398192D01*
X84115Y398139D01*
X84094Y398082D01*
X84056Y397999D01*
X84036Y397922D01*
X84010Y397853D01*
X83996Y397775D01*
X83977Y397704D01*
X83970Y397626D01*
X83957Y397552D01*
Y397479D01*
X83950Y397400D01*
Y394530D01*
X83450Y394297D01*
X82807Y393847D01*
X82253Y393293D01*
X81803Y392650D01*
X81471Y391939D01*
X81268Y391181D01*
X81200Y390400D01*
X81268Y389619D01*
X81471Y388861D01*
X81803Y388150D01*
X82253Y387507D01*
X82807Y386953D01*
X83450Y386503D01*
X84161Y386171D01*
X84919Y385968D01*
X85700Y385900D01*
X86481Y385968D01*
X87239Y386171D01*
X87950Y386503D01*
X88593Y386953D01*
X89147Y387507D01*
X89597Y388150D01*
X89929Y388861D01*
X90132Y389619D01*
X90200Y390400D01*
X90132Y391181D01*
X89929Y391939D01*
X89597Y392650D01*
X89147Y393293D01*
X88593Y393847D01*
X87950Y394297D01*
X87450Y394530D01*
Y396676D01*
X105937Y415163D01*
X105938Y415162D01*
X105990Y415224D01*
X106041Y415275D01*
X106083Y415336D01*
X106134Y415396D01*
X106174Y415465D01*
X106216Y415525D01*
X106245Y415587D01*
X106287Y415660D01*
X106317Y415743D01*
X106344Y415801D01*
X106360Y415863D01*
X106391Y415947D01*
X106406Y416034D01*
X106423Y416096D01*
X106429Y416162D01*
X106444Y416247D01*
Y416332D01*
X106450Y416400D01*
Y449168D01*
X108922Y451598D01*
X107462Y450138D01*
X107463Y450137D01*
X107422Y450088D01*
X107359Y450025D01*
X107306Y449949D01*
X107267Y449903D01*
X107236Y449850D01*
X107184Y449775D01*
X107145Y449691D01*
X107115Y449639D01*
X107092Y449578D01*
X107056Y449499D01*
X107036Y449425D01*
X107010Y449353D01*
X106997Y449278D01*
X106977Y449204D01*
X106970Y449126D01*
X106957Y449052D01*
Y448979D01*
X106950Y448900D01*
Y411126D01*
X94462Y398638D01*
X94463Y398637D01*
X94421Y398587D01*
X94359Y398525D01*
X94307Y398451D01*
X94267Y398403D01*
X94236Y398350D01*
X94184Y398275D01*
X94145Y398192D01*
X94115Y398139D01*
X94094Y398082D01*
X94056Y397999D01*
X94036Y397922D01*
X94010Y397853D01*
X93996Y397775D01*
X93977Y397704D01*
X93970Y397626D01*
X93957Y397552D01*
Y397479D01*
X93950Y397400D01*
Y394530D01*
X93450Y394297D01*
X92807Y393847D01*
X92253Y393293D01*
X91803Y392650D01*
X91471Y391939D01*
X91268Y391181D01*
X91200Y390400D01*
X91268Y389619D01*
X91471Y388861D01*
X91803Y388150D01*
X92253Y387507D01*
X92807Y386953D01*
X93450Y386503D01*
X94161Y386171D01*
X94919Y385968D01*
X95700Y385900D01*
X96481Y385968D01*
X97239Y386171D01*
X97950Y386503D01*
X98593Y386953D01*
X99147Y387507D01*
X99597Y388150D01*
X99929Y388861D01*
X100132Y389619D01*
X100200Y390400D01*
X100132Y391181D01*
X99929Y391939D01*
X99597Y392650D01*
X99147Y393293D01*
X98593Y393847D01*
X97950Y394297D01*
X97450Y394530D01*
Y396676D01*
X109937Y409163D01*
X109938Y409162D01*
X109990Y409224D01*
X110041Y409275D01*
X110083Y409336D01*
X110134Y409396D01*
X110174Y409465D01*
X110216Y409525D01*
X110245Y409587D01*
X110287Y409660D01*
X110317Y409743D01*
X110344Y409801D01*
X110360Y409863D01*
X110391Y409947D01*
X110406Y410034D01*
X110423Y410096D01*
X110429Y410162D01*
X110444Y410247D01*
Y410332D01*
X110450Y410400D01*
Y404626D01*
X104462Y398638D01*
X104463Y398637D01*
X104422Y398588D01*
X104359Y398525D01*
X104308Y398452D01*
X104267Y398403D01*
X104236Y398349D01*
X104184Y398275D01*
X104145Y398192D01*
X104115Y398139D01*
X104093Y398079D01*
X104056Y397999D01*
X104036Y397923D01*
X104010Y397853D01*
X103997Y397778D01*
X103977Y397704D01*
X103970Y397626D01*
X103957Y397552D01*
Y397479D01*
X103950Y397400D01*
Y394530D01*
X103450Y394297D01*
X102807Y393847D01*
X102253Y393293D01*
X101803Y392650D01*
X101471Y391939D01*
X101268Y391181D01*
X101200Y390400D01*
X101268Y389619D01*
X101471Y388861D01*
X101803Y388150D01*
X102253Y387507D01*
X102807Y386953D01*
X103450Y386503D01*
X104161Y386171D01*
X104919Y385968D01*
X105700Y385900D01*
X106481Y385968D01*
X107239Y386171D01*
X107950Y386503D01*
X108593Y386953D01*
X109147Y387507D01*
X109597Y388150D01*
X109929Y388861D01*
X110132Y389619D01*
X110200Y390400D01*
X110132Y391181D01*
X109929Y391939D01*
X109597Y392650D01*
X109147Y393293D01*
X108593Y393847D01*
X107950Y394297D01*
X107450Y394530D01*
Y396676D01*
X113437Y402663D01*
X113438Y402662D01*
X113490Y402724D01*
X113541Y402775D01*
X113583Y402836D01*
X113634Y402896D01*
X113674Y402965D01*
X113716Y403025D01*
X113745Y403087D01*
X113787Y403160D01*
X113817Y403243D01*
X113844Y403301D01*
X113860Y403363D01*
X113891Y403447D01*
X113906Y403534D01*
X113923Y403596D01*
X113929Y403662D01*
X113944Y403747D01*
Y403832D01*
X113950Y403900D01*
Y394530D01*
X113450Y394297D01*
X112807Y393847D01*
X112253Y393293D01*
X111803Y392650D01*
X111471Y391939D01*
X111268Y391181D01*
X111200Y390400D01*
X111268Y389619D01*
X111471Y388861D01*
X111803Y388150D01*
X112253Y387507D01*
X112807Y386953D01*
X113450Y386503D01*
X114161Y386171D01*
X114919Y385968D01*
X115700Y385900D01*
X116481Y385968D01*
X117239Y386171D01*
X117950Y386503D01*
X118593Y386953D01*
X119147Y387507D01*
X119597Y388150D01*
X119929Y388861D01*
X120132Y389619D01*
X120200Y390400D01*
X120132Y391181D01*
X119929Y391939D01*
X119597Y392650D01*
X119147Y393293D01*
X118593Y393847D01*
X117950Y394297D01*
X117450Y394530D01*
Y445682D01*
X120095Y448350D01*
X120989D01*
X120772Y448198D01*
X120402Y447828D01*
X120102Y447400D01*
X119881Y446926D01*
X119746Y446421D01*
X119700Y445900D01*
X119746Y445379D01*
X119881Y444874D01*
X120102Y444400D01*
X120402Y443972D01*
X120772Y443602D01*
X121200Y443302D01*
X121674Y443081D01*
X121804Y443046D01*
X121700Y442998D01*
X121272Y442698D01*
X120902Y442328D01*
X120602Y441900D01*
X120381Y441426D01*
X120246Y440921D01*
X120200Y440400D01*
X120246Y439879D01*
X120381Y439374D01*
X120602Y438900D01*
X120902Y438472D01*
X121272Y438102D01*
X121436Y437987D01*
X121443Y436928D01*
X121383Y436800D01*
X121338Y436632D01*
X121323Y436458D01*
Y434490D01*
X121338Y434316D01*
X121383Y434148D01*
X121457Y433990D01*
X121520Y433900D01*
X121457Y433810D01*
X121383Y433652D01*
X121338Y433484D01*
X121323Y433310D01*
Y431342D01*
X121338Y431168D01*
X121383Y431000D01*
X121457Y430842D01*
X121557Y430699D01*
X121680Y430576D01*
X121700Y430562D01*
Y426900D01*
X121704Y426850D01*
X121700Y426800D01*
Y385230D01*
X120870Y384400D01*
X68529D01*
X67700Y385229D01*
Y385900D01*
X68700D01*
X68960Y385923D01*
X69213Y385990D01*
X69450Y386101D01*
X69664Y386251D01*
X69849Y386436D01*
X69999Y386650D01*
X70110Y386887D01*
X70177Y387140D01*
X70200Y387400D01*
Y393400D01*
X70177Y393660D01*
X70110Y393913D01*
X69999Y394150D01*
X69849Y394364D01*
X69664Y394549D01*
X69450Y394699D01*
X69213Y394810D01*
X68960Y394877D01*
X68700Y394900D01*
X62700D01*
X62440Y394877D01*
X62187Y394810D01*
X61950Y394699D01*
X61736Y394549D01*
X61551Y394364D01*
X61450Y394220D01*
Y407099D01*
G37*
G36*
Y386580D02*X61551Y386436D01*
X61736Y386251D01*
X61950Y386101D01*
X62187Y385990D01*
X62440Y385923D01*
X62700Y385900D01*
X63700D01*
Y384400D01*
X63707Y384319D01*
Y384226D01*
X63723Y384139D01*
X63730Y384053D01*
X63753Y383969D01*
X63768Y383883D01*
X63800Y383795D01*
X63821Y383716D01*
X63855Y383642D01*
X63887Y383555D01*
X63932Y383476D01*
X63968Y383400D01*
X64015Y383333D01*
X64061Y383253D01*
X64120Y383183D01*
X64168Y383114D01*
X64228Y383054D01*
X64285Y382986D01*
X66286Y380985D01*
X66354Y380928D01*
X66414Y380868D01*
X66483Y380820D01*
X66553Y380761D01*
X66633Y380715D01*
X66700Y380668D01*
X66776Y380632D01*
X66855Y380587D01*
X66942Y380555D01*
X67016Y380521D01*
X67095Y380500D01*
X67183Y380468D01*
X67269Y380453D01*
X67353Y380430D01*
X67439Y380423D01*
X67526Y380407D01*
X67619D01*
X67700Y380400D01*
X121700D01*
X121793Y380408D01*
X121874D01*
X121954Y380422D01*
X122047Y380430D01*
X122132Y380453D01*
X122218Y380468D01*
X122305Y380500D01*
X122384Y380521D01*
X122465Y380558D01*
X122545Y380588D01*
X122614Y380628D01*
X122700Y380668D01*
X122776Y380721D01*
X122847Y380762D01*
X122910Y380815D01*
X122986Y380868D01*
X123052Y380934D01*
X123114Y380986D01*
X125114Y382986D01*
X125115Y382985D01*
X125178Y383060D01*
X125232Y383114D01*
X125276Y383177D01*
X125339Y383252D01*
X125390Y383340D01*
X125432Y383400D01*
X125462Y383464D01*
X125514Y383554D01*
X125551Y383655D01*
X125579Y383716D01*
X125597Y383782D01*
X125633Y383882D01*
X125650Y383978D01*
X125670Y384053D01*
X125677Y384133D01*
X125693Y384226D01*
Y384319D01*
X125700Y384400D01*
Y419400D01*
X126950D01*
Y418950D01*
X126965Y418776D01*
X127010Y418608D01*
X127084Y418450D01*
X127184Y418307D01*
X127307Y418184D01*
X127450Y418084D01*
X127608Y418010D01*
X127776Y417965D01*
X127950Y417950D01*
X135727D01*
Y414850D01*
X127950D01*
X127776Y414835D01*
X127608Y414790D01*
X127450Y414716D01*
X127307Y414616D01*
X127184Y414493D01*
X127084Y414350D01*
X127010Y414192D01*
X126965Y414024D01*
X126950Y413850D01*
Y408950D01*
X126965Y408776D01*
X127010Y408608D01*
X127084Y408450D01*
X127184Y408307D01*
X127307Y408184D01*
X127450Y408084D01*
X127608Y408010D01*
X127776Y407965D01*
X127950Y407950D01*
X135727D01*
Y387249D01*
X134850Y387172D01*
X134000Y386944D01*
X133202Y386572D01*
X132481Y386068D01*
X131858Y385445D01*
X131354Y384724D01*
X130982Y383926D01*
X130754Y383076D01*
X130677Y382199D01*
X130754Y381322D01*
X130982Y380472D01*
X131354Y379674D01*
X131858Y378953D01*
X132481Y378330D01*
X133202Y377826D01*
X134000Y377454D01*
X134850Y377226D01*
X135727Y377149D01*
Y374400D01*
X61450D01*
Y386580D01*
G37*
G36*
X135727Y424850D02*X127950D01*
X127776Y424835D01*
X127608Y424790D01*
X127450Y424716D01*
X127307Y424616D01*
X127184Y424493D01*
X127084Y424350D01*
X127010Y424192D01*
X126965Y424024D01*
X126950Y423850D01*
Y423400D01*
X125700D01*
Y425972D01*
X135290Y435562D01*
Y429921D01*
X135313Y429661D01*
X135380Y429408D01*
X135491Y429171D01*
X135641Y428957D01*
X135727Y428871D01*
Y424850D01*
G37*
G36*
Y417950D02*X136450D01*
X136624Y417965D01*
X136792Y418010D01*
X136950Y418084D01*
X137093Y418184D01*
X137216Y418307D01*
X137316Y418450D01*
X137390Y418608D01*
X137435Y418776D01*
X137450Y418950D01*
Y423850D01*
X137435Y424024D01*
X137390Y424192D01*
X137316Y424350D01*
X137216Y424493D01*
X137093Y424616D01*
X136950Y424716D01*
X136792Y424790D01*
X136624Y424835D01*
X136450Y424850D01*
X135727D01*
Y428871D01*
X135826Y428772D01*
X136040Y428622D01*
X136277Y428511D01*
X136530Y428444D01*
X136790Y428421D01*
X138364D01*
X138624Y428444D01*
X138877Y428511D01*
X139114Y428622D01*
X139151Y428648D01*
X139189Y428622D01*
X139426Y428511D01*
X139679Y428444D01*
X139939Y428421D01*
X141513D01*
X141773Y428444D01*
X142026Y428511D01*
X142263Y428622D01*
X142301Y428649D01*
X142339Y428622D01*
X142576Y428511D01*
X142700Y428478D01*
Y414400D01*
X142179Y414354D01*
X141674Y414219D01*
X141200Y413998D01*
X140772Y413698D01*
X140402Y413328D01*
X140102Y412900D01*
X139881Y412426D01*
X139746Y411921D01*
X139700Y411400D01*
X139746Y410879D01*
X139881Y410374D01*
X140102Y409900D01*
X140402Y409472D01*
X140772Y409102D01*
X141200Y408802D01*
X141674Y408581D01*
X142179Y408446D01*
X142700Y408400D01*
Y374400D01*
X135727D01*
Y377149D01*
X136604Y377226D01*
X137454Y377454D01*
X138252Y377826D01*
X138973Y378330D01*
X139596Y378953D01*
X140100Y379674D01*
X140472Y380472D01*
X140700Y381322D01*
X140777Y382199D01*
X140700Y383076D01*
X140472Y383926D01*
X140100Y384724D01*
X139596Y385445D01*
X138973Y386068D01*
X138252Y386572D01*
X137454Y386944D01*
X136604Y387172D01*
X135727Y387249D01*
Y407950D01*
X136450D01*
X136624Y407965D01*
X136792Y408010D01*
X136950Y408084D01*
X137093Y408184D01*
X137216Y408307D01*
X137316Y408450D01*
X137390Y408608D01*
X137435Y408776D01*
X137450Y408950D01*
Y413850D01*
X137435Y414024D01*
X137390Y414192D01*
X137316Y414350D01*
X137216Y414493D01*
X137093Y414616D01*
X136950Y414716D01*
X136792Y414790D01*
X136624Y414835D01*
X136450Y414850D01*
X135727D01*
Y417950D01*
G37*
G36*
X142700Y428478D02*X142829Y428444D01*
X143089Y428421D01*
X144663D01*
X144923Y428444D01*
X145176Y428511D01*
X145413Y428622D01*
X145450Y428648D01*
X145488Y428622D01*
X145725Y428511D01*
X145978Y428444D01*
X146238Y428421D01*
X147812D01*
X148072Y428444D01*
X148325Y428511D01*
X148450Y428570D01*
Y425626D01*
X147759Y424935D01*
X147232D01*
X147058Y424920D01*
X146890Y424875D01*
X146732Y424801D01*
X146589Y424701D01*
X146466Y424578D01*
X146366Y424435D01*
X146292Y424277D01*
X146247Y424109D01*
X146232Y423935D01*
Y420983D01*
X146247Y420809D01*
X146292Y420641D01*
X146366Y420483D01*
X146466Y420340D01*
X146589Y420217D01*
X146732Y420117D01*
X146890Y420043D01*
X147058Y419998D01*
X147232Y419983D01*
X151168D01*
X151342Y419998D01*
X151510Y420043D01*
X151668Y420117D01*
X151811Y420217D01*
X151934Y420340D01*
X151950Y420363D01*
X151966Y420340D01*
X152089Y420217D01*
X152232Y420117D01*
X152390Y420043D01*
X152558Y419998D01*
X152732Y419983D01*
X153841D01*
Y419817D01*
X152732D01*
X152558Y419802D01*
X152390Y419757D01*
X152232Y419683D01*
X152089Y419583D01*
X151966Y419460D01*
X151950Y419437D01*
X151934Y419460D01*
X151811Y419583D01*
X151668Y419683D01*
X151510Y419757D01*
X151342Y419802D01*
X151168Y419817D01*
X147232D01*
X147058Y419802D01*
X146890Y419757D01*
X146732Y419683D01*
X146589Y419583D01*
X146466Y419460D01*
X146366Y419317D01*
X146292Y419159D01*
X146247Y418991D01*
X146232Y418817D01*
Y415865D01*
X146247Y415691D01*
X146292Y415523D01*
X146366Y415365D01*
X146466Y415222D01*
X146589Y415099D01*
X146732Y414999D01*
X146890Y414925D01*
X147058Y414880D01*
X147232Y414865D01*
X147450D01*
Y395900D01*
X147457Y395820D01*
Y395748D01*
X147470Y395671D01*
X147477Y395596D01*
X147495Y395528D01*
X147509Y395448D01*
X147537Y395370D01*
X147556Y395301D01*
X147587Y395235D01*
X147614Y395161D01*
X147650Y395099D01*
X147684Y395025D01*
X147731Y394957D01*
X147766Y394897D01*
X147812Y394842D01*
X147859Y394775D01*
X147915Y394719D01*
X147962Y394663D01*
X150963Y391662D01*
X151019Y391615D01*
X151075Y391559D01*
X151142Y391512D01*
X151197Y391466D01*
X151259Y391430D01*
X151274Y391419D01*
X151353Y391251D01*
X151708Y390744D01*
X152145Y390307D01*
X152652Y389952D01*
X153213Y389690D01*
X153811Y389530D01*
X153841Y389527D01*
Y374400D01*
X142700D01*
Y408400D01*
X143221Y408446D01*
X143726Y408581D01*
X144200Y408802D01*
X144628Y409102D01*
X144998Y409472D01*
X145298Y409900D01*
X145519Y410374D01*
X145654Y410879D01*
X145700Y411400D01*
X145654Y411921D01*
X145519Y412426D01*
X145298Y412900D01*
X144998Y413328D01*
X144628Y413698D01*
X144200Y413998D01*
X143726Y414219D01*
X143221Y414354D01*
X142700Y414400D01*
Y428478D01*
G37*
G36*
X153841Y396525D02*X153811Y396522D01*
X153213Y396362D01*
X152652Y396100D01*
X152145Y395745D01*
X151988Y395587D01*
X150950Y396625D01*
Y400213D01*
X151091Y399686D01*
X151353Y399125D01*
X151708Y398618D01*
X152145Y398181D01*
X152652Y397826D01*
X153213Y397564D01*
X153811Y397404D01*
X153841Y397401D01*
Y396525D01*
G37*
G36*
Y419983D02*X156668D01*
X156842Y419998D01*
X157010Y420043D01*
X157168Y420117D01*
X157311Y420217D01*
X157434Y420340D01*
X157534Y420483D01*
X157608Y420641D01*
X157653Y420809D01*
X157668Y420983D01*
Y423935D01*
X157653Y424109D01*
X157608Y424277D01*
X157534Y424435D01*
X157434Y424578D01*
X157311Y424701D01*
X157168Y424801D01*
X157010Y424875D01*
X156842Y424920D01*
X156668Y424935D01*
X155640D01*
X155050Y425525D01*
Y428569D01*
X155174Y428511D01*
X155427Y428444D01*
X155687Y428421D01*
X157261D01*
X157521Y428444D01*
X157774Y428511D01*
X157800Y428523D01*
Y427300D01*
X157807Y427219D01*
Y427126D01*
X157823Y427039D01*
X157830Y426953D01*
X157853Y426869D01*
X157868Y426783D01*
X157900Y426695D01*
X157921Y426616D01*
X157955Y426542D01*
X157987Y426455D01*
X158032Y426376D01*
X158068Y426300D01*
X158115Y426233D01*
X158161Y426153D01*
X158220Y426083D01*
X158268Y426014D01*
X158328Y425954D01*
X158385Y425886D01*
X161286Y422985D01*
X161356Y422926D01*
X161414Y422868D01*
X161483Y422819D01*
X161553Y422761D01*
X161631Y422716D01*
X161700Y422668D01*
X161776Y422633D01*
X161855Y422587D01*
X161940Y422556D01*
X162016Y422521D01*
X162099Y422499D01*
X162183Y422468D01*
X162267Y422453D01*
X162353Y422430D01*
X162438Y422423D01*
X162526Y422407D01*
X162619D01*
X162700Y422400D01*
X169700D01*
Y418400D01*
X169179Y418354D01*
X168674Y418219D01*
X168200Y417998D01*
X167772Y417698D01*
X167402Y417328D01*
X167102Y416900D01*
X166881Y416426D01*
X166746Y415921D01*
X166700Y415400D01*
X166746Y414879D01*
X166881Y414374D01*
X167102Y413900D01*
X167402Y413472D01*
X167772Y413102D01*
X168200Y412802D01*
X168674Y412581D01*
X169179Y412446D01*
X169700Y412400D01*
Y403400D01*
X166770D01*
X166551Y403619D01*
X166044Y403974D01*
X165483Y404236D01*
X164885Y404396D01*
X164269Y404450D01*
X163653Y404396D01*
X163055Y404236D01*
X162494Y403974D01*
X161987Y403619D01*
X161550Y403182D01*
X161195Y402675D01*
X160933Y402114D01*
X160773Y401516D01*
X160719Y400900D01*
X160773Y400284D01*
X160933Y399686D01*
X161195Y399125D01*
X161550Y398618D01*
X161987Y398181D01*
X162494Y397826D01*
X163055Y397564D01*
X163653Y397404D01*
X164269Y397350D01*
X164885Y397404D01*
X165483Y397564D01*
X166044Y397826D01*
X166551Y398181D01*
X166770Y398400D01*
X169700D01*
Y374400D01*
X153841D01*
Y389527D01*
X154427Y389476D01*
X155043Y389530D01*
X155641Y389690D01*
X156202Y389952D01*
X156709Y390307D01*
X157146Y390744D01*
X157501Y391251D01*
X157763Y391812D01*
X157923Y392410D01*
X157977Y393026D01*
X157923Y393642D01*
X157763Y394240D01*
X157501Y394801D01*
X157146Y395308D01*
X156709Y395745D01*
X156202Y396100D01*
X155641Y396362D01*
X155043Y396522D01*
X154427Y396576D01*
X153841Y396525D01*
Y397401D01*
X154427Y397350D01*
X155043Y397404D01*
X155641Y397564D01*
X156202Y397826D01*
X156709Y398181D01*
X157146Y398618D01*
X157501Y399125D01*
X157763Y399686D01*
X157923Y400284D01*
X157977Y400900D01*
X157923Y401516D01*
X157763Y402114D01*
X157501Y402675D01*
X157146Y403182D01*
X156709Y403619D01*
X156202Y403974D01*
X155950Y404092D01*
Y406650D01*
X159700D01*
X160004Y406677D01*
X160299Y406756D01*
X160575Y406884D01*
X160825Y407059D01*
X161041Y407275D01*
X161216Y407525D01*
X161344Y407801D01*
X161423Y408096D01*
X161450Y408400D01*
Y411400D01*
X161423Y411704D01*
X161344Y411999D01*
X161216Y412275D01*
X161041Y412525D01*
X160825Y412741D01*
X160575Y412916D01*
X160299Y413044D01*
X160004Y413123D01*
X159700Y413150D01*
X156450D01*
Y414865D01*
X156668D01*
X156842Y414880D01*
X157010Y414925D01*
X157168Y414999D01*
X157311Y415099D01*
X157434Y415222D01*
X157534Y415365D01*
X157608Y415523D01*
X157653Y415691D01*
X157668Y415865D01*
Y418817D01*
X157653Y418991D01*
X157608Y419159D01*
X157534Y419317D01*
X157434Y419460D01*
X157311Y419583D01*
X157168Y419683D01*
X157010Y419757D01*
X156842Y419802D01*
X156668Y419817D01*
X153841D01*
Y419983D01*
G37*
G36*
X169700Y422400D02*X176200D01*
Y420650D01*
X173750D01*
X173576Y420635D01*
X173408Y420590D01*
X173250Y420516D01*
X173107Y420416D01*
X172984Y420293D01*
X172884Y420150D01*
X172810Y419992D01*
X172765Y419824D01*
X172750Y419650D01*
Y411150D01*
X172765Y410976D01*
X172810Y410808D01*
X172884Y410650D01*
X172984Y410507D01*
X173107Y410384D01*
X173250Y410284D01*
X173408Y410210D01*
X173576Y410165D01*
X173750Y410150D01*
X176200D01*
Y403400D01*
X169700D01*
Y412400D01*
X170221Y412446D01*
X170726Y412581D01*
X171200Y412802D01*
X171628Y413102D01*
X171998Y413472D01*
X172298Y413900D01*
X172519Y414374D01*
X172654Y414879D01*
X172700Y415400D01*
X172654Y415921D01*
X172519Y416426D01*
X172298Y416900D01*
X171998Y417328D01*
X171628Y417698D01*
X171200Y417998D01*
X170726Y418219D01*
X170221Y418354D01*
X169700Y418400D01*
Y422400D01*
G37*
G36*
X176200D02*X182871D01*
X184200Y421071D01*
Y420650D01*
X183750D01*
X183576Y420635D01*
X183408Y420590D01*
X183250Y420516D01*
X183107Y420416D01*
X182984Y420293D01*
X182884Y420150D01*
X182810Y419992D01*
X182765Y419824D01*
X182750Y419650D01*
Y411150D01*
X182765Y410976D01*
X182810Y410808D01*
X182884Y410650D01*
X182984Y410507D01*
X183107Y410384D01*
X183250Y410284D01*
X183408Y410210D01*
X183576Y410165D01*
X183750Y410150D01*
X188650D01*
X188824Y410165D01*
X188992Y410210D01*
X189150Y410284D01*
X189293Y410384D01*
X189416Y410507D01*
X189516Y410650D01*
X189590Y410808D01*
X189635Y410976D01*
X189650Y411150D01*
Y412900D01*
X193950D01*
Y401400D01*
X193959Y401298D01*
Y401205D01*
X193975Y401116D01*
X193984Y401009D01*
X194012Y400903D01*
X194027Y400819D01*
X194058Y400732D01*
X194086Y400630D01*
X194129Y400537D01*
X194161Y400450D01*
X194206Y400372D01*
X194251Y400275D01*
X194312Y400187D01*
X194357Y400110D01*
X194415Y400041D01*
X194476Y399954D01*
X194551Y399879D01*
X194609Y399810D01*
X196610Y397809D01*
X196679Y397751D01*
X196754Y397676D01*
X196840Y397615D01*
X196910Y397557D01*
X196988Y397512D01*
X197075Y397451D01*
X197173Y397405D01*
X197201Y397389D01*
X197223Y397140D01*
X197290Y396887D01*
X197401Y396650D01*
X197551Y396436D01*
X197736Y396251D01*
X197950Y396101D01*
X198187Y395990D01*
X198440Y395923D01*
X198700Y395900D01*
X200450D01*
X199250Y394700D01*
X198700D01*
X198440Y394677D01*
X198187Y394610D01*
X197950Y394499D01*
X197736Y394349D01*
X197551Y394164D01*
X197401Y393950D01*
X197290Y393713D01*
X197223Y393460D01*
X197200Y393200D01*
Y392605D01*
X197034Y392407D01*
X196741Y391900D01*
X192735D01*
X181968Y402667D01*
X181887Y402735D01*
X181807Y402815D01*
X181713Y402881D01*
X181634Y402947D01*
X181545Y402998D01*
X181450Y403065D01*
X181347Y403113D01*
X181257Y403165D01*
X181158Y403201D01*
X181055Y403249D01*
X180946Y403278D01*
X180848Y403314D01*
X180743Y403333D01*
X180634Y403362D01*
X180521Y403372D01*
X180419Y403390D01*
X180314D01*
X180200Y403400D01*
X176200D01*
Y410150D01*
X178650D01*
X178824Y410165D01*
X178992Y410210D01*
X179150Y410284D01*
X179293Y410384D01*
X179416Y410507D01*
X179516Y410650D01*
X179590Y410808D01*
X179635Y410976D01*
X179650Y411150D01*
Y419650D01*
X179635Y419824D01*
X179590Y419992D01*
X179516Y420150D01*
X179416Y420293D01*
X179293Y420416D01*
X179150Y420516D01*
X178992Y420590D01*
X178824Y420635D01*
X178650Y420650D01*
X176200D01*
Y422400D01*
G37*
G36*
X169700Y398400D02*X179165D01*
X182971Y394594D01*
Y387249D01*
X182094Y387172D01*
X181244Y386944D01*
X180446Y386572D01*
X179725Y386068D01*
X179102Y385445D01*
X178598Y384724D01*
X178226Y383926D01*
X177998Y383076D01*
X177921Y382199D01*
X177998Y381322D01*
X178226Y380472D01*
X178598Y379674D01*
X179102Y378953D01*
X179725Y378330D01*
X180446Y377826D01*
X181244Y377454D01*
X182094Y377226D01*
X182971Y377149D01*
Y374400D01*
X169700D01*
Y398400D01*
G37*
G36*
X182971Y394594D02*X189933Y387632D01*
X190013Y387565D01*
X190093Y387485D01*
X190186Y387420D01*
X190267Y387352D01*
X190359Y387299D01*
X190450Y387235D01*
X190549Y387189D01*
X190644Y387134D01*
X190748Y387096D01*
X190845Y387051D01*
X190950Y387023D01*
X191054Y386985D01*
X191160Y386966D01*
X191266Y386938D01*
X191380Y386928D01*
X191483Y386910D01*
X191586D01*
X191700Y386900D01*
X197295D01*
X197350Y383889D01*
X197351Y383888D01*
X197396Y383463D01*
X197465Y383223D01*
Y381332D01*
X197480Y381158D01*
X197525Y380990D01*
X197599Y380832D01*
X197636Y380779D01*
X197528Y380483D01*
X197459Y380097D01*
Y379705D01*
X197527Y379319D01*
X197661Y378950D01*
X197857Y378610D01*
X198109Y378310D01*
X200610Y375809D01*
X200679Y375751D01*
X200754Y375676D01*
X200841Y375615D01*
X200910Y375557D01*
X200987Y375512D01*
X201075Y375451D01*
X201172Y375406D01*
X201250Y375361D01*
X201337Y375329D01*
X201430Y375286D01*
X201532Y375258D01*
X201619Y375227D01*
X201703Y375212D01*
X201809Y375184D01*
X201916Y375175D01*
X202005Y375159D01*
X202098D01*
X202200Y375150D01*
X212659D01*
Y374400D01*
X182971D01*
Y377149D01*
X183848Y377226D01*
X184698Y377454D01*
X185496Y377826D01*
X186217Y378330D01*
X186840Y378953D01*
X187344Y379674D01*
X187716Y380472D01*
X187944Y381322D01*
X188021Y382199D01*
X187944Y383076D01*
X187716Y383926D01*
X187344Y384724D01*
X186840Y385445D01*
X186217Y386068D01*
X185496Y386572D01*
X184698Y386944D01*
X183848Y387172D01*
X182971Y387249D01*
Y394594D01*
G37*
G36*
X61450Y437099D02*X65700D01*
X65839Y437111D01*
X65974Y437147D01*
X66101Y437206D01*
X66215Y437286D01*
X66314Y437385D01*
X66394Y437499D01*
X66453Y437626D01*
X66489Y437761D01*
X66501Y437900D01*
Y439900D01*
X66489Y440039D01*
X66453Y440174D01*
X66394Y440301D01*
X66314Y440415D01*
X66215Y440514D01*
X66101Y440594D01*
X65974Y440653D01*
X65839Y440689D01*
X65700Y440701D01*
X61450D01*
Y442099D01*
X63348D01*
X63516Y442021D01*
X63853Y441930D01*
X64200Y441900D01*
X64450Y441922D01*
X64700Y441900D01*
X69474D01*
X69492Y441882D01*
X69179Y441854D01*
X68674Y441719D01*
X68200Y441498D01*
X67772Y441198D01*
X67402Y440828D01*
X67102Y440400D01*
X66881Y439926D01*
X66746Y439421D01*
X66700Y438900D01*
X66746Y438379D01*
X66881Y437874D01*
X67102Y437400D01*
X67402Y436972D01*
X67772Y436602D01*
X68200Y436302D01*
X68674Y436081D01*
X69179Y435946D01*
X69492Y435918D01*
X69474Y435900D01*
X64700D01*
X64353Y435870D01*
X64016Y435779D01*
X63848Y435701D01*
X61450D01*
Y437099D01*
G37*
G36*
Y446885D02*X61517Y446789D01*
X61640Y446666D01*
X61783Y446566D01*
X61941Y446492D01*
X62109Y446447D01*
X62200Y446439D01*
Y445701D01*
X61450D01*
Y446885D01*
G37*
G36*
Y432099D02*X63848D01*
X64016Y432021D01*
X64353Y431930D01*
X64700Y431900D01*
X69474D01*
X69492Y431882D01*
X69179Y431854D01*
X68674Y431719D01*
X68200Y431498D01*
X67772Y431198D01*
X67474Y430900D01*
X64700D01*
X64353Y430870D01*
X64016Y430779D01*
X63848Y430701D01*
X61450D01*
Y432099D01*
G37*
G36*
X212659Y423850D02*X199100D01*
X198997Y423841D01*
X198904D01*
X198814Y423825D01*
X198709Y423816D01*
X198607Y423789D01*
X198518Y423773D01*
X198429Y423741D01*
X198330Y423714D01*
X198239Y423672D01*
X198149Y423639D01*
X198067Y423592D01*
X197975Y423549D01*
X197895Y423493D01*
X197809Y423443D01*
X197735Y423380D01*
X197654Y423324D01*
X197584Y423254D01*
X197509Y423191D01*
X194609Y420291D01*
X194610Y420290D01*
X194557Y420227D01*
X194476Y420146D01*
X194410Y420052D01*
X194358Y419990D01*
X194318Y419921D01*
X194251Y419825D01*
X194202Y419719D01*
X194162Y419650D01*
X194133Y419572D01*
X194086Y419470D01*
X194056Y419360D01*
X194028Y419282D01*
X194014Y419204D01*
X193984Y419091D01*
X193974Y418975D01*
X193960Y418896D01*
Y418815D01*
X193950Y418700D01*
Y417900D01*
X189650D01*
Y419650D01*
X189635Y419824D01*
X189590Y419992D01*
X189516Y420150D01*
X189416Y420293D01*
X189293Y420416D01*
X189150Y420516D01*
X188992Y420590D01*
X188824Y420635D01*
X188650Y420650D01*
X188200D01*
Y421900D01*
X188193Y421980D01*
Y422075D01*
X188177Y422164D01*
X188170Y422247D01*
X188148Y422328D01*
X188132Y422418D01*
X188100Y422505D01*
X188079Y422584D01*
X188046Y422654D01*
X188013Y422746D01*
X187965Y422829D01*
X187932Y422900D01*
X187884Y422969D01*
X187838Y423048D01*
X187781Y423116D01*
X187732Y423186D01*
X187671Y423247D01*
X187614Y423315D01*
X185115Y425814D01*
X185047Y425871D01*
X184986Y425932D01*
X184917Y425980D01*
X184848Y426038D01*
X184768Y426084D01*
X184700Y426132D01*
X184629Y426165D01*
X184546Y426213D01*
X184452Y426247D01*
X184384Y426279D01*
X184305Y426301D01*
X184218Y426332D01*
X184130Y426348D01*
X184047Y426370D01*
X183964Y426377D01*
X183875Y426393D01*
X183781D01*
X183700Y426400D01*
X163529D01*
X161800Y428129D01*
Y429363D01*
X161821Y429408D01*
X161888Y429661D01*
X161911Y429921D01*
Y435921D01*
X161888Y436181D01*
X161821Y436434D01*
X161800Y436479D01*
Y439200D01*
X161778Y439450D01*
X161800Y439700D01*
Y446944D01*
X161821Y446946D01*
X162326Y447081D01*
X162800Y447302D01*
X162879Y447357D01*
Y446189D01*
X162902Y445929D01*
X162969Y445676D01*
X163080Y445439D01*
X163107Y445401D01*
X163080Y445363D01*
X162969Y445126D01*
X162902Y444873D01*
X162879Y444613D01*
Y443039D01*
X162902Y442779D01*
X162969Y442526D01*
X163080Y442289D01*
X163106Y442252D01*
X163080Y442214D01*
X162969Y441977D01*
X162902Y441724D01*
X162879Y441464D01*
Y439890D01*
X162902Y439630D01*
X162969Y439377D01*
X163080Y439140D01*
X163230Y438926D01*
X163415Y438741D01*
X163629Y438591D01*
X163866Y438480D01*
X164119Y438413D01*
X164379Y438390D01*
X170379D01*
X170639Y438413D01*
X170892Y438480D01*
X171129Y438591D01*
X171343Y438741D01*
X171502Y438900D01*
X174232D01*
X174230Y431404D01*
X174245Y431230D01*
X174290Y431062D01*
X174364Y430904D01*
X174464Y430761D01*
X174587Y430638D01*
X174730Y430538D01*
X174888Y430464D01*
X175056Y430419D01*
X175230Y430404D01*
X185557Y430401D01*
X188142Y427697D01*
Y426023D01*
X188157Y425849D01*
X188202Y425681D01*
X188276Y425523D01*
X188376Y425380D01*
X188499Y425257D01*
X188642Y425157D01*
X188800Y425083D01*
X188968Y425038D01*
X189142Y425023D01*
X191110D01*
X191284Y425038D01*
X191452Y425083D01*
X191610Y425157D01*
X191700Y425220D01*
X191790Y425157D01*
X191948Y425083D01*
X192116Y425038D01*
X192290Y425023D01*
X194258D01*
X194432Y425038D01*
X194600Y425083D01*
X194758Y425157D01*
X194901Y425257D01*
X195024Y425380D01*
X195124Y425523D01*
X195198Y425681D01*
X195243Y425849D01*
X195258Y426023D01*
Y426834D01*
X195381Y426374D01*
X195602Y425900D01*
X195902Y425472D01*
X196272Y425102D01*
X196700Y424802D01*
X197174Y424581D01*
X197679Y424446D01*
X198200Y424400D01*
X198721Y424446D01*
X199226Y424581D01*
X199700Y424802D01*
X200128Y425102D01*
X200498Y425472D01*
X200798Y425900D01*
X201019Y426374D01*
X201154Y426879D01*
X201200Y427400D01*
X201154Y427921D01*
X201019Y428426D01*
X200798Y428900D01*
X200498Y429328D01*
X200128Y429698D01*
X199700Y429998D01*
X199226Y430219D01*
X198721Y430354D01*
X198200Y430400D01*
X197679Y430354D01*
X197174Y430219D01*
X196700Y429998D01*
X196272Y429698D01*
X195902Y429328D01*
X195602Y428900D01*
X195381Y428426D01*
X195258Y427966D01*
Y428777D01*
X195243Y428951D01*
X195198Y429119D01*
X195124Y429277D01*
X195024Y429420D01*
X194901Y429543D01*
X194758Y429643D01*
X194600Y429717D01*
X194432Y429762D01*
X194258Y429777D01*
X192290D01*
X192116Y429762D01*
X191948Y429717D01*
X191790Y429643D01*
X191700Y429580D01*
X191610Y429643D01*
X191452Y429717D01*
X191284Y429762D01*
X191110Y429777D01*
X190305D01*
X189608Y430507D01*
X189666Y430534D01*
X189809Y430634D01*
X189932Y430757D01*
X190032Y430900D01*
X190106Y431058D01*
X190151Y431226D01*
X190166Y431400D01*
X190169Y441399D01*
X190154Y441573D01*
X190109Y441741D01*
X190035Y441899D01*
X189935Y442042D01*
X189812Y442165D01*
X189669Y442265D01*
X189511Y442339D01*
X189343Y442384D01*
X189169Y442399D01*
X185685Y442400D01*
X202779D01*
X202617Y442386D01*
X202449Y442341D01*
X202291Y442267D01*
X202148Y442167D01*
X202025Y442044D01*
X201925Y441901D01*
X201851Y441743D01*
X201806Y441575D01*
X201791Y441401D01*
Y431401D01*
X201806Y431227D01*
X201851Y431059D01*
X201925Y430901D01*
X202025Y430758D01*
X202148Y430635D01*
X202291Y430535D01*
X202449Y430461D01*
X202617Y430416D01*
X202791Y430401D01*
X205200D01*
Y429580D01*
X205110Y429643D01*
X204952Y429717D01*
X204784Y429762D01*
X204610Y429777D01*
X202642D01*
X202468Y429762D01*
X202300Y429717D01*
X202142Y429643D01*
X201999Y429543D01*
X201876Y429420D01*
X201776Y429277D01*
X201702Y429119D01*
X201657Y428951D01*
X201642Y428777D01*
Y426023D01*
X201657Y425849D01*
X201702Y425681D01*
X201776Y425523D01*
X201876Y425380D01*
X201999Y425257D01*
X202142Y425157D01*
X202300Y425083D01*
X202468Y425038D01*
X202642Y425023D01*
X204610D01*
X204784Y425038D01*
X204952Y425083D01*
X205110Y425157D01*
X205200Y425220D01*
X205290Y425157D01*
X205448Y425083D01*
X205616Y425038D01*
X205790Y425023D01*
X207758D01*
X207932Y425038D01*
X208100Y425083D01*
X208258Y425157D01*
X208401Y425257D01*
X208524Y425380D01*
X208624Y425523D01*
X208698Y425681D01*
X208743Y425849D01*
X208758Y426023D01*
Y428777D01*
X208743Y428951D01*
X208698Y429119D01*
X208624Y429277D01*
X208524Y429420D01*
X208401Y429543D01*
X208258Y429643D01*
X208200Y429670D01*
Y430401D01*
X212659D01*
Y423850D01*
G37*
G36*
Y442401D02*X208200D01*
X208194Y442468D01*
Y442531D01*
X208183Y442593D01*
X208177Y442660D01*
X208159Y442729D01*
X208148Y442789D01*
X208129Y442841D01*
X208110Y442913D01*
X208078Y442980D01*
X208059Y443034D01*
X208029Y443086D01*
X207999Y443150D01*
X207959Y443206D01*
X207928Y443261D01*
X207887Y443310D01*
X207849Y443364D01*
X207802Y443411D01*
X207760Y443461D01*
X206321Y444900D01*
X212659D01*
Y442401D01*
G37*
G36*
X205059Y379650D02*X203131D01*
X202137Y380643D01*
X202183Y380689D01*
X202283Y380832D01*
X202357Y380990D01*
X202402Y381158D01*
X202417Y381332D01*
Y385268D01*
X202402Y385442D01*
X202357Y385610D01*
X202283Y385768D01*
X202215Y385866D01*
X202180Y387763D01*
X202374Y387926D01*
X205059Y390611D01*
Y386069D01*
X203583D01*
X203444Y386057D01*
X203309Y386021D01*
X203182Y385962D01*
X203068Y385882D01*
X202969Y385783D01*
X202889Y385669D01*
X202830Y385542D01*
X202794Y385407D01*
X202782Y385268D01*
Y381332D01*
X202794Y381193D01*
X202830Y381058D01*
X202889Y380931D01*
X202969Y380817D01*
X203068Y380718D01*
X203182Y380638D01*
X203309Y380579D01*
X203444Y380543D01*
X203583Y380531D01*
X205059D01*
Y379650D01*
G37*
G36*
Y411368D02*X204665D01*
X204491Y411353D01*
X204323Y411308D01*
X204165Y411234D01*
X204022Y411134D01*
X203899Y411011D01*
X203799Y410868D01*
X203725Y410710D01*
X203680Y410542D01*
X203665Y410368D01*
Y409241D01*
X202562Y408138D01*
X202563Y408137D01*
X202522Y408088D01*
X202459Y408025D01*
X202408Y407952D01*
X202367Y407903D01*
X202337Y407850D01*
X202284Y407775D01*
X202244Y407689D01*
X202215Y407639D01*
X202192Y407578D01*
X202156Y407499D01*
X202136Y407425D01*
X202110Y407353D01*
X202097Y407278D01*
X202077Y407204D01*
X202070Y407126D01*
X202057Y407052D01*
Y406979D01*
X202050Y406900D01*
Y402793D01*
X201850Y402699D01*
X201613Y402810D01*
X201360Y402877D01*
X201100Y402900D01*
X198700D01*
X198450Y402878D01*
Y413323D01*
X199510D01*
X199684Y413338D01*
X199852Y413383D01*
X200010Y413457D01*
X200100Y413520D01*
X200190Y413457D01*
X200348Y413383D01*
X200516Y413338D01*
X200690Y413323D01*
X202658D01*
X202832Y413338D01*
X203000Y413383D01*
X203158Y413457D01*
X203301Y413557D01*
X203424Y413680D01*
X203438Y413700D01*
X205059D01*
Y411368D01*
G37*
G36*
Y417700D02*X203438D01*
X203424Y417720D01*
X203301Y417843D01*
X203158Y417943D01*
X203000Y418017D01*
X202832Y418062D01*
X202658Y418077D01*
X200690D01*
X200516Y418062D01*
X200348Y418017D01*
X200190Y417943D01*
X200100Y417880D01*
X200010Y417943D01*
X199852Y418017D01*
X199684Y418062D01*
X199510Y418077D01*
X198757D01*
X200030Y419350D01*
X205059D01*
Y417700D01*
G37*
G36*
X212659Y379650D02*X205059D01*
Y380531D01*
X206535D01*
X206674Y380543D01*
X206809Y380579D01*
X206936Y380638D01*
X207050Y380718D01*
X207149Y380817D01*
X207229Y380931D01*
X207288Y381058D01*
X207324Y381193D01*
X207336Y381332D01*
Y385268D01*
X207324Y385407D01*
X207288Y385542D01*
X207229Y385669D01*
X207149Y385783D01*
X207050Y385882D01*
X206936Y385962D01*
X206809Y386021D01*
X206674Y386057D01*
X206535Y386069D01*
X205059D01*
Y390611D01*
X205099Y390651D01*
Y389200D01*
X205120Y388957D01*
X205183Y388721D01*
X205287Y388499D01*
X205427Y388299D01*
X205599Y388127D01*
X205799Y387987D01*
X206021Y387883D01*
X206257Y387820D01*
X206500Y387799D01*
X208900D01*
X209143Y387820D01*
X209379Y387883D01*
X209601Y387987D01*
X209801Y388127D01*
X209973Y388299D01*
X210113Y388499D01*
X210217Y388721D01*
X210280Y388957D01*
X210301Y389200D01*
Y393200D01*
X210280Y393443D01*
X210217Y393679D01*
X210113Y393901D01*
X209973Y394101D01*
X209801Y394273D01*
X209601Y394413D01*
X209379Y394517D01*
X209143Y394580D01*
X209067Y394587D01*
X209207Y394685D01*
X209515Y394993D01*
X209765Y395350D01*
X209949Y395745D01*
X210062Y396166D01*
X210091Y396496D01*
X210199Y396650D01*
X210310Y396887D01*
X210377Y397140D01*
X210400Y397400D01*
Y401400D01*
X210377Y401660D01*
X210310Y401913D01*
X210199Y402150D01*
X210049Y402364D01*
X209864Y402549D01*
X209650Y402699D01*
X209413Y402810D01*
X209160Y402877D01*
X208900Y402900D01*
X206500D01*
X206240Y402877D01*
X205987Y402810D01*
X205750Y402699D01*
X205550Y402793D01*
Y405432D01*
X207617D01*
X207791Y405447D01*
X207959Y405492D01*
X208117Y405566D01*
X208260Y405666D01*
X208383Y405789D01*
X208483Y405932D01*
X208557Y406090D01*
X208602Y406258D01*
X208617Y406432D01*
Y410368D01*
X208602Y410542D01*
X208557Y410710D01*
X208483Y410868D01*
X208383Y411011D01*
X208260Y411134D01*
X208117Y411234D01*
X207959Y411308D01*
X207791Y411353D01*
X207617Y411368D01*
X205059D01*
Y413700D01*
X205076D01*
X205080Y413658D01*
X205125Y413490D01*
X205199Y413332D01*
X205299Y413189D01*
X205422Y413066D01*
X205565Y412966D01*
X205723Y412892D01*
X205891Y412847D01*
X206065Y412832D01*
X209017D01*
X209191Y412847D01*
X209359Y412892D01*
X209517Y412966D01*
X209660Y413066D01*
X209783Y413189D01*
X209883Y413332D01*
X209957Y413490D01*
X210002Y413658D01*
X210017Y413832D01*
Y417768D01*
X210002Y417942D01*
X209957Y418110D01*
X209883Y418268D01*
X209783Y418411D01*
X209660Y418534D01*
X209517Y418634D01*
X209359Y418708D01*
X209191Y418753D01*
X209017Y418768D01*
X206065D01*
X205891Y418753D01*
X205723Y418708D01*
X205565Y418634D01*
X205422Y418534D01*
X205299Y418411D01*
X205199Y418268D01*
X205125Y418110D01*
X205080Y417942D01*
X205065Y417768D01*
Y417700D01*
X205059D01*
Y419350D01*
X212659D01*
Y418768D01*
X211183D01*
X211009Y418753D01*
X210841Y418708D01*
X210683Y418634D01*
X210540Y418534D01*
X210417Y418411D01*
X210317Y418268D01*
X210243Y418110D01*
X210198Y417942D01*
X210183Y417768D01*
Y413832D01*
X210198Y413658D01*
X210243Y413490D01*
X210317Y413332D01*
X210417Y413189D01*
X210540Y413066D01*
X210683Y412966D01*
X210841Y412892D01*
X211009Y412847D01*
X211183Y412832D01*
X212659D01*
Y411368D01*
X209783D01*
X209609Y411353D01*
X209441Y411308D01*
X209283Y411234D01*
X209140Y411134D01*
X209017Y411011D01*
X208917Y410868D01*
X208843Y410710D01*
X208798Y410542D01*
X208783Y410368D01*
Y406432D01*
X208798Y406258D01*
X208843Y406090D01*
X208917Y405932D01*
X209017Y405789D01*
X209140Y405666D01*
X209283Y405566D01*
X209441Y405492D01*
X209609Y405447D01*
X209783Y405432D01*
X212659D01*
Y388859D01*
X212200Y388900D01*
X211679Y388854D01*
X211174Y388719D01*
X210700Y388498D01*
X210272Y388198D01*
X209902Y387828D01*
X209602Y387400D01*
X209381Y386926D01*
X209246Y386421D01*
X209200Y385900D01*
X209246Y385379D01*
X209381Y384874D01*
X209602Y384400D01*
X209902Y383972D01*
X210272Y383602D01*
X210700Y383302D01*
X211174Y383081D01*
X211679Y382946D01*
X212200Y382900D01*
X212659Y382941D01*
Y379650D01*
G37*
G36*
Y492400D02*X249200D01*
Y489400D01*
X248419Y489332D01*
X247661Y489129D01*
X246950Y488797D01*
X246307Y488347D01*
X245753Y487793D01*
X245303Y487150D01*
X244971Y486439D01*
X244768Y485681D01*
X244700Y484900D01*
X244768Y484119D01*
X244971Y483361D01*
X245303Y482650D01*
X245753Y482007D01*
X246307Y481453D01*
X246950Y481003D01*
X247661Y480671D01*
X248419Y480468D01*
X249200Y480400D01*
Y468900D01*
X246821D01*
X240700Y475021D01*
Y480400D01*
X242200D01*
X242460Y480423D01*
X242713Y480490D01*
X242950Y480601D01*
X243164Y480751D01*
X243349Y480936D01*
X243499Y481150D01*
X243610Y481387D01*
X243677Y481640D01*
X243700Y481900D01*
Y487900D01*
X243677Y488160D01*
X243610Y488413D01*
X243499Y488650D01*
X243349Y488864D01*
X243164Y489049D01*
X242950Y489199D01*
X242713Y489310D01*
X242460Y489377D01*
X242200Y489400D01*
X236200D01*
X235940Y489377D01*
X235687Y489310D01*
X235450Y489199D01*
X235236Y489049D01*
X235051Y488864D01*
X234901Y488650D01*
X234790Y488413D01*
X234723Y488160D01*
X234700Y487900D01*
Y487400D01*
X219300D01*
Y488000D01*
X219277Y488260D01*
X219210Y488513D01*
X219099Y488750D01*
X218949Y488964D01*
X218764Y489149D01*
X218550Y489299D01*
X218313Y489410D01*
X218060Y489477D01*
X217800Y489500D01*
X212659D01*
Y492400D01*
G37*
G36*
X249200D02*X259200D01*
Y489400D01*
X258419Y489332D01*
X257661Y489129D01*
X256950Y488797D01*
X256307Y488347D01*
X255753Y487793D01*
X255303Y487150D01*
X254971Y486439D01*
X254768Y485681D01*
X254700Y484900D01*
X254768Y484119D01*
X254971Y483361D01*
X255303Y482650D01*
X255753Y482007D01*
X256307Y481453D01*
X256950Y481003D01*
X257661Y480671D01*
X258419Y480468D01*
X259200Y480400D01*
Y468900D01*
X249200D01*
Y480400D01*
X249981Y480468D01*
X250739Y480671D01*
X251450Y481003D01*
X252093Y481453D01*
X252647Y482007D01*
X253097Y482650D01*
X253429Y483361D01*
X253632Y484119D01*
X253700Y484900D01*
X253632Y485681D01*
X253429Y486439D01*
X253097Y487150D01*
X252647Y487793D01*
X252093Y488347D01*
X251450Y488797D01*
X250739Y489129D01*
X249981Y489332D01*
X249200Y489400D01*
Y492400D01*
G37*
G36*
X259200D02*X269200D01*
Y489400D01*
X268419Y489332D01*
X267661Y489129D01*
X266950Y488797D01*
X266307Y488347D01*
X265753Y487793D01*
X265303Y487150D01*
X264971Y486439D01*
X264768Y485681D01*
X264700Y484900D01*
X264768Y484119D01*
X264971Y483361D01*
X265303Y482650D01*
X265753Y482007D01*
X266307Y481453D01*
X266950Y481003D01*
X267661Y480671D01*
X268419Y480468D01*
X269200Y480400D01*
Y468900D01*
X259200D01*
Y480400D01*
X259981Y480468D01*
X260739Y480671D01*
X261450Y481003D01*
X262093Y481453D01*
X262647Y482007D01*
X263097Y482650D01*
X263429Y483361D01*
X263632Y484119D01*
X263700Y484900D01*
X263632Y485681D01*
X263429Y486439D01*
X263097Y487150D01*
X262647Y487793D01*
X262093Y488347D01*
X261450Y488797D01*
X260739Y489129D01*
X259981Y489332D01*
X259200Y489400D01*
Y492400D01*
G37*
G36*
X269200D02*X279200D01*
Y489400D01*
X278419Y489332D01*
X277661Y489129D01*
X276950Y488797D01*
X276307Y488347D01*
X275753Y487793D01*
X275303Y487150D01*
X274971Y486439D01*
X274768Y485681D01*
X274700Y484900D01*
X274768Y484119D01*
X274971Y483361D01*
X275303Y482650D01*
X275753Y482007D01*
X276307Y481453D01*
X276950Y481003D01*
X277661Y480671D01*
X278419Y480468D01*
X279200Y480400D01*
Y473856D01*
X279179Y473854D01*
X278674Y473719D01*
X278200Y473498D01*
X277772Y473198D01*
X277402Y472828D01*
X277102Y472400D01*
X276881Y471926D01*
X276746Y471421D01*
X276700Y470900D01*
X276746Y470379D01*
X276881Y469874D01*
X277102Y469400D01*
X277402Y468972D01*
X277772Y468602D01*
X278200Y468302D01*
X278674Y468081D01*
X279179Y467946D01*
X279200Y467944D01*
Y463522D01*
X278700Y463022D01*
Y463400D01*
X278694Y463468D01*
Y463531D01*
X278683Y463593D01*
X278677Y463660D01*
X278659Y463729D01*
X278648Y463789D01*
X278629Y463841D01*
X278610Y463913D01*
X278578Y463980D01*
X278559Y464034D01*
X278529Y464086D01*
X278499Y464150D01*
X278459Y464206D01*
X278428Y464261D01*
X278387Y464310D01*
X278349Y464364D01*
X278302Y464411D01*
X278260Y464461D01*
X274261Y468460D01*
X274211Y468502D01*
X274164Y468549D01*
X274110Y468587D01*
X274061Y468628D01*
X274006Y468659D01*
X273950Y468699D01*
X273886Y468729D01*
X273834Y468759D01*
X273780Y468778D01*
X273713Y468810D01*
X273641Y468829D01*
X273589Y468848D01*
X273529Y468859D01*
X273460Y468877D01*
X273393Y468883D01*
X273331Y468894D01*
X273268D01*
X273200Y468900D01*
X269200D01*
Y480400D01*
X269981Y480468D01*
X270739Y480671D01*
X271450Y481003D01*
X272093Y481453D01*
X272647Y482007D01*
X273097Y482650D01*
X273429Y483361D01*
X273632Y484119D01*
X273700Y484900D01*
X273632Y485681D01*
X273429Y486439D01*
X273097Y487150D01*
X272647Y487793D01*
X272093Y488347D01*
X271450Y488797D01*
X270739Y489129D01*
X269981Y489332D01*
X269200Y489400D01*
Y492400D01*
G37*
G36*
X279200D02*X285200D01*
Y486929D01*
X284971Y486439D01*
X284768Y485681D01*
X284700Y484900D01*
X284768Y484119D01*
X284971Y483361D01*
X285200Y482871D01*
Y478522D01*
X280466Y473788D01*
X280221Y473854D01*
X279700Y473900D01*
X279200Y473856D01*
Y480400D01*
X279981Y480468D01*
X280739Y480671D01*
X281450Y481003D01*
X282093Y481453D01*
X282647Y482007D01*
X283097Y482650D01*
X283429Y483361D01*
X283632Y484119D01*
X283700Y484900D01*
X283632Y485681D01*
X283429Y486439D01*
X283097Y487150D01*
X282647Y487793D01*
X282093Y488347D01*
X281450Y488797D01*
X280739Y489129D01*
X279981Y489332D01*
X279200Y489400D01*
Y492400D01*
G37*
G36*
Y467944D02*X279700Y467900D01*
X280221Y467946D01*
X280726Y468081D01*
X281200Y468302D01*
X281628Y468602D01*
X281998Y468972D01*
X282298Y469400D01*
X282519Y469874D01*
X282654Y470379D01*
X282700Y470900D01*
X282654Y471421D01*
X282588Y471668D01*
X285200Y474280D01*
Y469522D01*
X279200Y463522D01*
Y467944D01*
G37*
G36*
X285200Y492400D02*X308700D01*
X308643Y492395D01*
X308569D01*
X308498Y492382D01*
X308440Y492377D01*
X308381Y492361D01*
X308312Y492349D01*
X308249Y492326D01*
X308187Y492310D01*
X308129Y492283D01*
X308066Y492260D01*
X308006Y492225D01*
X307950Y492199D01*
X307902Y492165D01*
X307839Y492129D01*
X307782Y492081D01*
X307736Y492049D01*
X307695Y492008D01*
X307639Y491961D01*
X285200Y469522D01*
Y474280D01*
X290260Y479340D01*
X290261Y479339D01*
X290308Y479395D01*
X290349Y479436D01*
X290382Y479483D01*
X290429Y479539D01*
X290466Y479603D01*
X290499Y479650D01*
X290525Y479705D01*
X290560Y479766D01*
X290582Y479828D01*
X290610Y479887D01*
X290627Y479951D01*
X290649Y480012D01*
X290661Y480081D01*
X290677Y480140D01*
X290682Y480196D01*
X290695Y480269D01*
Y480343D01*
X290700Y480400D01*
Y480660D01*
X290739Y480671D01*
X291450Y481003D01*
X292093Y481453D01*
X292647Y482007D01*
X293097Y482650D01*
X293429Y483361D01*
X293632Y484119D01*
X293700Y484900D01*
X293632Y485681D01*
X293429Y486439D01*
X293097Y487150D01*
X292647Y487793D01*
X292093Y488347D01*
X291450Y488797D01*
X290739Y489129D01*
X289981Y489332D01*
X289200Y489400D01*
X288419Y489332D01*
X287661Y489129D01*
X286950Y488797D01*
X286307Y488347D01*
X285753Y487793D01*
X285303Y487150D01*
X285200Y486929D01*
Y492400D01*
G37*
G36*
Y482871D02*X285303Y482650D01*
X285753Y482007D01*
X286307Y481453D01*
X286950Y481003D01*
X287448Y480770D01*
X285200Y478522D01*
Y482871D01*
G37*
G36*
X212659Y480500D02*X217800D01*
X218060Y480523D01*
X218313Y480590D01*
X218550Y480701D01*
X218764Y480851D01*
X218949Y481036D01*
X219099Y481250D01*
X219210Y481487D01*
X219277Y481740D01*
X219300Y482000D01*
Y482400D01*
X222450D01*
Y432332D01*
X213968Y423850D01*
X212659D01*
Y430401D01*
X216728D01*
X216902Y430416D01*
X217070Y430461D01*
X217228Y430535D01*
X217371Y430635D01*
X217494Y430758D01*
X217594Y430901D01*
X217668Y431059D01*
X217713Y431227D01*
X217728Y431401D01*
Y441401D01*
X217713Y441575D01*
X217668Y441743D01*
X217594Y441901D01*
X217494Y442044D01*
X217371Y442167D01*
X217228Y442267D01*
X217070Y442341D01*
X216902Y442386D01*
X216728Y442401D01*
X212659D01*
Y444900D01*
X215602D01*
X215902Y444472D01*
X216272Y444102D01*
X216700Y443802D01*
X217174Y443581D01*
X217679Y443446D01*
X218200Y443400D01*
X218721Y443446D01*
X219226Y443581D01*
X219700Y443802D01*
X220128Y444102D01*
X220498Y444472D01*
X220798Y444900D01*
X221019Y445374D01*
X221154Y445879D01*
X221200Y446400D01*
X221154Y446921D01*
X221019Y447426D01*
X220798Y447900D01*
X220498Y448328D01*
X220128Y448698D01*
X219700Y448998D01*
X219226Y449219D01*
X218721Y449354D01*
X218200Y449400D01*
X217679Y449354D01*
X217174Y449219D01*
X216700Y448998D01*
X216272Y448698D01*
X215902Y448328D01*
X215602Y447900D01*
X212659D01*
Y465739D01*
X215760Y468840D01*
X215761Y468839D01*
X215808Y468895D01*
X215849Y468936D01*
X215881Y468982D01*
X215929Y469039D01*
X215965Y469102D01*
X215999Y469150D01*
X216025Y469206D01*
X216060Y469266D01*
X216083Y469329D01*
X216110Y469387D01*
X216126Y469449D01*
X216149Y469512D01*
X216161Y469581D01*
X216177Y469640D01*
X216182Y469698D01*
X216195Y469769D01*
Y469843D01*
X216200Y469900D01*
Y470734D01*
X216339Y470771D01*
X217050Y471103D01*
X217693Y471553D01*
X218247Y472107D01*
X218697Y472750D01*
X219029Y473461D01*
X219232Y474219D01*
X219300Y475000D01*
X219232Y475781D01*
X219029Y476539D01*
X218697Y477250D01*
X218247Y477893D01*
X217693Y478447D01*
X217050Y478897D01*
X216339Y479229D01*
X215581Y479432D01*
X214800Y479500D01*
X214019Y479432D01*
X213261Y479229D01*
X212659Y478948D01*
Y480500D01*
G37*
G36*
Y375150D02*X231700D01*
X231815Y375160D01*
X231896D01*
X231975Y375174D01*
X232091Y375184D01*
X232204Y375214D01*
X232282Y375228D01*
X232360Y375256D01*
X232470Y375286D01*
X232572Y375333D01*
X232650Y375362D01*
X232719Y375402D01*
X232825Y375451D01*
X232921Y375518D01*
X232990Y375558D01*
X233052Y375610D01*
X233146Y375676D01*
X233227Y375757D01*
X233290Y375810D01*
X234790Y377310D01*
X234791Y377309D01*
X234852Y377382D01*
X234924Y377454D01*
X234980Y377535D01*
X235043Y377609D01*
X235093Y377695D01*
X235149Y377775D01*
X235192Y377867D01*
X235239Y377949D01*
X235272Y378039D01*
X235314Y378130D01*
X235341Y378229D01*
X235373Y378318D01*
X235389Y378407D01*
X235416Y378509D01*
X235425Y378614D01*
X235441Y378704D01*
Y378797D01*
X235450Y378900D01*
Y379526D01*
X235509Y379542D01*
X235667Y379616D01*
X235810Y379716D01*
X235933Y379839D01*
X236033Y379982D01*
X236107Y380140D01*
X236152Y380308D01*
X236157Y380361D01*
X236217Y380232D01*
X236317Y380089D01*
X236440Y379966D01*
X236583Y379866D01*
X236741Y379792D01*
X236909Y379747D01*
X237083Y379732D01*
X240035D01*
X240209Y379747D01*
X240377Y379792D01*
X240535Y379866D01*
X240678Y379966D01*
X240801Y380089D01*
X240901Y380232D01*
X240975Y380390D01*
X241020Y380558D01*
X241035Y380732D01*
Y384668D01*
X241020Y384842D01*
X240975Y385010D01*
X240901Y385168D01*
X240801Y385311D01*
X240678Y385434D01*
X240535Y385534D01*
X240377Y385608D01*
X240209Y385653D01*
X240035Y385668D01*
X237083D01*
X236909Y385653D01*
X236741Y385608D01*
X236583Y385534D01*
X236440Y385434D01*
X236317Y385311D01*
X236217Y385168D01*
X236157Y385039D01*
X236152Y385092D01*
X236150Y385099D01*
Y388238D01*
X236177Y388340D01*
X236200Y388600D01*
Y389248D01*
X238600Y391648D01*
Y388600D01*
X238623Y388340D01*
X238690Y388087D01*
X238801Y387850D01*
X238951Y387636D01*
X239136Y387451D01*
X239350Y387301D01*
X239587Y387190D01*
X239840Y387123D01*
X240100Y387100D01*
X242500D01*
X242760Y387123D01*
X243013Y387190D01*
X243250Y387301D01*
X243464Y387451D01*
X243600Y387587D01*
Y387026D01*
X243402Y386828D01*
X243102Y386400D01*
X242881Y385926D01*
X242746Y385421D01*
X242700Y384900D01*
X242746Y384379D01*
X242881Y383874D01*
X243102Y383400D01*
X243402Y382972D01*
X243600Y382774D01*
Y374400D01*
X212659D01*
Y375150D01*
G37*
G36*
X243600Y393613D02*X243464Y393749D01*
X243250Y393899D01*
X243013Y394010D01*
X242975Y394020D01*
X243059Y394331D01*
X243100Y394800D01*
X243059Y395269D01*
X243025Y395396D01*
X243250Y395501D01*
X243464Y395651D01*
X243600Y395787D01*
Y393613D01*
G37*
G36*
Y401813D02*X243464Y401949D01*
X243250Y402099D01*
X243013Y402210D01*
X242760Y402277D01*
X242500Y402300D01*
X240100D01*
X239840Y402277D01*
X239650Y402227D01*
Y404670D01*
X240012Y405032D01*
X242017D01*
X242191Y405047D01*
X242359Y405092D01*
X242517Y405166D01*
X242660Y405266D01*
X242783Y405389D01*
X242883Y405532D01*
X242957Y405690D01*
X243002Y405858D01*
X243017Y406032D01*
Y409968D01*
X243002Y410142D01*
X242957Y410310D01*
X242883Y410468D01*
X242783Y410611D01*
X242660Y410734D01*
X242517Y410834D01*
X242359Y410908D01*
X242191Y410953D01*
X242017Y410968D01*
X239065D01*
X238891Y410953D01*
X238723Y410908D01*
X238565Y410834D01*
X238422Y410734D01*
X238299Y410611D01*
X238199Y410468D01*
X238125Y410310D01*
X238080Y410142D01*
X238065Y409968D01*
Y409447D01*
X235809Y407191D01*
X235810Y407190D01*
X235758Y407128D01*
X235750Y407120D01*
Y413950D01*
X236050D01*
X236224Y413965D01*
X236392Y414010D01*
X236550Y414084D01*
X236693Y414184D01*
X236816Y414307D01*
X236916Y414450D01*
X236990Y414608D01*
X237035Y414776D01*
X237050Y414950D01*
Y423450D01*
X237035Y423624D01*
X236990Y423792D01*
X236916Y423950D01*
X236816Y424093D01*
X236693Y424216D01*
X236550Y424316D01*
X236392Y424390D01*
X236224Y424435D01*
X236050Y424450D01*
X231150D01*
X230976Y424435D01*
X230808Y424390D01*
X230650Y424316D01*
X230507Y424216D01*
X230384Y424093D01*
X230284Y423950D01*
X230210Y423792D01*
X230165Y423624D01*
X230150Y423450D01*
Y414950D01*
X230165Y414776D01*
X230210Y414608D01*
X230284Y414450D01*
X230384Y414307D01*
X230507Y414184D01*
X230650Y414084D01*
X230808Y414010D01*
X230976Y413965D01*
X231150Y413950D01*
X231250D01*
Y401863D01*
X231151Y401764D01*
X231001Y401550D01*
X230890Y401313D01*
X230823Y401060D01*
X230800Y400800D01*
Y400450D01*
X230411D01*
X230200Y400598D01*
X229726Y400819D01*
X229221Y400954D01*
X228700Y401000D01*
X228179Y400954D01*
X227674Y400819D01*
X227200Y400598D01*
X226772Y400298D01*
X226402Y399928D01*
X226102Y399500D01*
X225881Y399026D01*
X225746Y398521D01*
X225700Y398000D01*
X225746Y397479D01*
X225881Y396974D01*
X226102Y396500D01*
X226402Y396072D01*
X226772Y395702D01*
X227200Y395402D01*
X227674Y395181D01*
X228179Y395046D01*
X228700Y395000D01*
X229221Y395046D01*
X229726Y395181D01*
X230200Y395402D01*
X230411Y395550D01*
X231480D01*
X231550Y395501D01*
X231787Y395390D01*
X232040Y395323D01*
X232300Y395300D01*
X234700D01*
X234960Y395323D01*
X235213Y395390D01*
X235450Y395501D01*
X235687Y395390D01*
X235805Y395359D01*
X234546Y394100D01*
X232300D01*
X232040Y394077D01*
X231787Y394010D01*
X231550Y393899D01*
X231336Y393749D01*
X231151Y393564D01*
X231001Y393350D01*
X230890Y393113D01*
X230823Y392860D01*
X230800Y392600D01*
Y388600D01*
X230823Y388340D01*
X230850Y388238D01*
Y385419D01*
X230849Y385418D01*
X230775Y385260D01*
X230730Y385092D01*
X230715Y384918D01*
Y380482D01*
X230730Y380308D01*
X230775Y380140D01*
X230849Y379982D01*
X230949Y379839D01*
X230950Y379838D01*
Y379832D01*
X230768Y379650D01*
X212659D01*
Y382941D01*
X212721Y382946D01*
X213226Y383081D01*
X213700Y383302D01*
X214128Y383602D01*
X214498Y383972D01*
X214798Y384400D01*
X215019Y384874D01*
X215154Y385379D01*
X215200Y385900D01*
X215154Y386421D01*
X215019Y386926D01*
X214798Y387400D01*
X214498Y387828D01*
X214128Y388198D01*
X213700Y388498D01*
X213226Y388719D01*
X212721Y388854D01*
X212659Y388859D01*
Y405432D01*
X212735D01*
X212909Y405447D01*
X213077Y405492D01*
X213235Y405566D01*
X213378Y405666D01*
X213501Y405789D01*
X213601Y405932D01*
X213675Y406090D01*
X213720Y406258D01*
X213735Y406432D01*
Y410368D01*
X213720Y410542D01*
X213675Y410710D01*
X213601Y410868D01*
X213501Y411011D01*
X213378Y411134D01*
X213235Y411234D01*
X213077Y411308D01*
X212909Y411353D01*
X212735Y411368D01*
X212659D01*
Y412832D01*
X214135D01*
X214309Y412847D01*
X214477Y412892D01*
X214635Y412966D01*
X214778Y413066D01*
X214901Y413189D01*
X215001Y413332D01*
X215075Y413490D01*
X215120Y413658D01*
X215135Y413832D01*
Y417768D01*
X215120Y417942D01*
X215075Y418110D01*
X215001Y418268D01*
X214901Y418411D01*
X214778Y418534D01*
X214635Y418634D01*
X214477Y418708D01*
X214309Y418753D01*
X214135Y418768D01*
X212659D01*
Y419350D01*
X214900D01*
X215291Y419384D01*
X215670Y419486D01*
X216025Y419651D01*
X216346Y419876D01*
X216527Y420057D01*
X216590Y420110D01*
X226290Y429810D01*
X226291Y429809D01*
X226352Y429882D01*
X226424Y429954D01*
X226480Y430035D01*
X226543Y430109D01*
X226593Y430195D01*
X226649Y430275D01*
X226692Y430367D01*
X226739Y430449D01*
X226772Y430539D01*
X226814Y430630D01*
X226841Y430729D01*
X226873Y430818D01*
X226889Y430907D01*
X226916Y431009D01*
X226925Y431114D01*
X226941Y431204D01*
Y431297D01*
X226950Y431400D01*
Y482400D01*
X234700D01*
Y481900D01*
X234723Y481640D01*
X234790Y481387D01*
X234901Y481150D01*
X235051Y480936D01*
X235236Y480751D01*
X235450Y480601D01*
X235687Y480490D01*
X235940Y480423D01*
X236200Y480400D01*
X237700D01*
Y474400D01*
X237706Y474332D01*
Y474270D01*
X237717Y474207D01*
X237723Y474140D01*
X237740Y474076D01*
X237751Y474013D01*
X237772Y473955D01*
X237790Y473887D01*
X237819Y473825D01*
X237840Y473767D01*
X237873Y473710D01*
X237901Y473650D01*
X237938Y473597D01*
X237971Y473540D01*
X238014Y473489D01*
X238051Y473436D01*
X238097Y473390D01*
X238139Y473340D01*
X243600Y467879D01*
Y462900D01*
X235798D01*
X235498Y463328D01*
X235128Y463698D01*
X234700Y463998D01*
X234226Y464219D01*
X233721Y464354D01*
X233200Y464400D01*
X232679Y464354D01*
X232174Y464219D01*
X231700Y463998D01*
X231272Y463698D01*
X230902Y463328D01*
X230602Y462900D01*
X230381Y462426D01*
X230246Y461921D01*
X230200Y461400D01*
X230246Y460879D01*
X230381Y460374D01*
X230602Y459900D01*
X230902Y459472D01*
X231001Y459373D01*
X230700Y459400D01*
X230179Y459354D01*
X229674Y459219D01*
X229200Y458998D01*
X228772Y458698D01*
X228402Y458328D01*
X228102Y457900D01*
X227881Y457426D01*
X227746Y456921D01*
X227700Y456400D01*
X227746Y455879D01*
X227881Y455374D01*
X228102Y454900D01*
X228402Y454472D01*
X228772Y454102D01*
X229200Y453802D01*
X229674Y453581D01*
X230179Y453446D01*
X230700Y453400D01*
X231001Y453427D01*
X230902Y453328D01*
X230602Y452900D01*
X230381Y452426D01*
X230246Y451921D01*
X230200Y451400D01*
X230246Y450879D01*
X230381Y450374D01*
X230602Y449900D01*
X230902Y449472D01*
X231001Y449373D01*
X230700Y449400D01*
X230179Y449354D01*
X229674Y449219D01*
X229200Y448998D01*
X228772Y448698D01*
X228402Y448328D01*
X228102Y447900D01*
X227881Y447426D01*
X227746Y446921D01*
X227700Y446400D01*
X227746Y445879D01*
X227881Y445374D01*
X228102Y444900D01*
X228402Y444472D01*
X228772Y444102D01*
X229200Y443802D01*
X229674Y443581D01*
X230179Y443446D01*
X230700Y443400D01*
X231221Y443446D01*
X231726Y443581D01*
X232200Y443802D01*
X232628Y444102D01*
X232998Y444472D01*
X233298Y444900D01*
X243600D01*
Y441900D01*
X241798D01*
X241498Y442328D01*
X241128Y442698D01*
X240700Y442998D01*
X240226Y443219D01*
X239721Y443354D01*
X239200Y443400D01*
X238679Y443354D01*
X238174Y443219D01*
X237700Y442998D01*
X237272Y442698D01*
X236902Y442328D01*
X236602Y441900D01*
X236381Y441426D01*
X236246Y440921D01*
X236200Y440400D01*
X236246Y439879D01*
X236381Y439374D01*
X236602Y438900D01*
X236902Y438472D01*
X237272Y438102D01*
X237700Y437802D01*
X238174Y437581D01*
X238679Y437446D01*
X239200Y437400D01*
X239721Y437446D01*
X240226Y437581D01*
X240700Y437802D01*
X241128Y438102D01*
X241498Y438472D01*
X241798Y438900D01*
X243600D01*
Y424450D01*
X241150D01*
X240976Y424435D01*
X240808Y424390D01*
X240650Y424316D01*
X240507Y424216D01*
X240384Y424093D01*
X240284Y423950D01*
X240210Y423792D01*
X240165Y423624D01*
X240150Y423450D01*
Y414950D01*
X240165Y414776D01*
X240210Y414608D01*
X240284Y414450D01*
X240384Y414307D01*
X240507Y414184D01*
X240650Y414084D01*
X240808Y414010D01*
X240976Y413965D01*
X241150Y413950D01*
X243600D01*
Y410776D01*
X243540Y410734D01*
X243417Y410611D01*
X243317Y410468D01*
X243243Y410310D01*
X243198Y410142D01*
X243183Y409968D01*
Y406032D01*
X243198Y405858D01*
X243243Y405690D01*
X243317Y405532D01*
X243417Y405389D01*
X243540Y405266D01*
X243600Y405224D01*
Y401813D01*
G37*
G36*
Y387587D02*X243649Y387636D01*
X243799Y387850D01*
X243910Y388087D01*
X243977Y388340D01*
X244000Y388600D01*
Y392600D01*
X243977Y392860D01*
X243910Y393113D01*
X243799Y393350D01*
X243649Y393564D01*
X243600Y393613D01*
Y395787D01*
X243649Y395836D01*
X243799Y396050D01*
X243910Y396287D01*
X243977Y396540D01*
X244000Y396800D01*
Y400800D01*
X243977Y401060D01*
X243910Y401313D01*
X243799Y401550D01*
X243649Y401764D01*
X243600Y401813D01*
Y405224D01*
X243683Y405166D01*
X243841Y405092D01*
X244009Y405047D01*
X244183Y405032D01*
X247135D01*
X247309Y405047D01*
X247477Y405092D01*
X247635Y405166D01*
X247778Y405266D01*
X247901Y405389D01*
X248001Y405532D01*
X248075Y405690D01*
X248120Y405858D01*
X248135Y406032D01*
Y409968D01*
X248120Y410142D01*
X248075Y410310D01*
X248001Y410468D01*
X247901Y410611D01*
X247778Y410734D01*
X247635Y410834D01*
X247477Y410908D01*
X247309Y410953D01*
X247135Y410968D01*
X244183D01*
X244009Y410953D01*
X243841Y410908D01*
X243683Y410834D01*
X243600Y410776D01*
Y413950D01*
X246050D01*
X246224Y413965D01*
X246392Y414010D01*
X246550Y414084D01*
X246693Y414184D01*
X246816Y414307D01*
X246916Y414450D01*
X246990Y414608D01*
X247035Y414776D01*
X247050Y414950D01*
Y423450D01*
X247035Y423624D01*
X246990Y423792D01*
X246916Y423950D01*
X246816Y424093D01*
X246693Y424216D01*
X246550Y424316D01*
X246392Y424390D01*
X246224Y424435D01*
X246050Y424450D01*
X243600D01*
Y438900D01*
X248579D01*
X254200Y433279D01*
Y409900D01*
X254206Y409832D01*
Y409770D01*
X254217Y409707D01*
X254223Y409640D01*
X254240Y409576D01*
X254251Y409513D01*
X254272Y409455D01*
X254290Y409387D01*
X254319Y409325D01*
X254340Y409267D01*
X254373Y409210D01*
X254401Y409150D01*
X254438Y409097D01*
X254471Y409040D01*
X254514Y408989D01*
X254551Y408936D01*
X254597Y408890D01*
X254639Y408840D01*
X259434Y404045D01*
Y384458D01*
X258323D01*
X258149Y384443D01*
X257981Y384398D01*
X257823Y384324D01*
X257680Y384224D01*
X257557Y384101D01*
X257457Y383958D01*
X257383Y383800D01*
X257338Y383632D01*
X257323Y383458D01*
Y381490D01*
X257338Y381316D01*
X257383Y381148D01*
X257457Y380990D01*
X257520Y380900D01*
X257485Y380850D01*
X254911D01*
X254700Y380998D01*
X254226Y381219D01*
X253721Y381354D01*
X253200Y381400D01*
X252679Y381354D01*
X252174Y381219D01*
X251700Y380998D01*
X251272Y380698D01*
X250902Y380328D01*
X250602Y379900D01*
X250381Y379426D01*
X250246Y378921D01*
X250200Y378400D01*
X250246Y377879D01*
X250381Y377374D01*
X250602Y376900D01*
X250902Y376472D01*
X251272Y376102D01*
X251700Y375802D01*
X252174Y375581D01*
X252679Y375446D01*
X253200Y375400D01*
X253721Y375446D01*
X254226Y375581D01*
X254700Y375802D01*
X255128Y376102D01*
X255498Y376472D01*
X255798Y376900D01*
X256008Y377350D01*
X258230D01*
X258323Y377342D01*
X259434D01*
Y374400D01*
X243600D01*
Y382774D01*
X243772Y382602D01*
X244200Y382302D01*
X244674Y382081D01*
X245179Y381946D01*
X245700Y381900D01*
X246221Y381946D01*
X246726Y382081D01*
X247200Y382302D01*
X247628Y382602D01*
X247998Y382972D01*
X248298Y383400D01*
X248519Y383874D01*
X248654Y384379D01*
X248700Y384900D01*
X248654Y385421D01*
X248519Y385926D01*
X248298Y386400D01*
X247998Y386828D01*
X247628Y387198D01*
X247200Y387498D01*
X246726Y387719D01*
X246221Y387854D01*
X245700Y387900D01*
X245179Y387854D01*
X244674Y387719D01*
X244200Y387498D01*
X243772Y387198D01*
X243600Y387026D01*
Y387587D01*
G37*
G36*
X259434Y404045D02*X276140Y387339D01*
X276190Y387297D01*
X276236Y387251D01*
X276289Y387214D01*
X276340Y387171D01*
X276397Y387138D01*
X276450Y387101D01*
X276510Y387073D01*
X276567Y387040D01*
X276625Y387019D01*
X276687Y386990D01*
X276755Y386972D01*
X276813Y386951D01*
X276876Y386940D01*
X276940Y386923D01*
X277007Y386917D01*
X277070Y386906D01*
X277132D01*
X277200Y386900D01*
X284184D01*
Y384458D01*
X282823D01*
X282649Y384443D01*
X282481Y384398D01*
X282323Y384324D01*
X282180Y384224D01*
X282057Y384101D01*
X281957Y383958D01*
X281883Y383800D01*
X281838Y383632D01*
X281823Y383458D01*
Y381490D01*
X281838Y381316D01*
X281882Y381150D01*
X281415D01*
X281298Y381400D01*
X280998Y381828D01*
X280628Y382198D01*
X280200Y382498D01*
X279726Y382719D01*
X279221Y382854D01*
X278700Y382900D01*
X278179Y382854D01*
X277674Y382719D01*
X277200Y382498D01*
X276772Y382198D01*
X276402Y381828D01*
X276102Y381400D01*
X275881Y380926D01*
X275746Y380421D01*
X275700Y379900D01*
X275746Y379379D01*
X275881Y378874D01*
X276102Y378400D01*
X276402Y377972D01*
X276772Y377602D01*
X277200Y377302D01*
X277674Y377081D01*
X278179Y376946D01*
X278700Y376900D01*
X279221Y376946D01*
X279726Y377081D01*
X280200Y377302D01*
X280628Y377602D01*
X280676Y377650D01*
X282106D01*
X282180Y377576D01*
X282323Y377476D01*
X282481Y377402D01*
X282649Y377357D01*
X282823Y377342D01*
X284184D01*
Y374400D01*
X267917D01*
X268010Y374425D01*
X268168Y374499D01*
X268311Y374599D01*
X268434Y374722D01*
X268534Y374865D01*
X268608Y375023D01*
X268653Y375191D01*
X268668Y375365D01*
Y378317D01*
X268653Y378491D01*
X268608Y378659D01*
X268534Y378817D01*
X268434Y378960D01*
X268311Y379083D01*
X268168Y379183D01*
X268010Y379257D01*
X267842Y379302D01*
X267668Y379317D01*
X263732D01*
X263558Y379302D01*
X263390Y379257D01*
X263232Y379183D01*
X263089Y379083D01*
X262966Y378960D01*
X262866Y378817D01*
X262792Y378659D01*
X262747Y378491D01*
X262732Y378317D01*
Y375365D01*
X262747Y375191D01*
X262792Y375023D01*
X262866Y374865D01*
X262966Y374722D01*
X263089Y374599D01*
X263232Y374499D01*
X263390Y374425D01*
X263483Y374400D01*
X259434D01*
Y377342D01*
X261077D01*
X261251Y377357D01*
X261419Y377402D01*
X261577Y377476D01*
X261720Y377576D01*
X261843Y377699D01*
X261943Y377842D01*
X262017Y378000D01*
X262062Y378168D01*
X262077Y378342D01*
Y380310D01*
X262062Y380484D01*
X262017Y380652D01*
X261943Y380810D01*
X261880Y380900D01*
X262732D01*
Y380483D01*
X262747Y380309D01*
X262792Y380141D01*
X262866Y379983D01*
X262966Y379840D01*
X263089Y379717D01*
X263232Y379617D01*
X263390Y379543D01*
X263558Y379498D01*
X263732Y379483D01*
X267668D01*
X267842Y379498D01*
X268010Y379543D01*
X268168Y379617D01*
X268311Y379717D01*
X268434Y379840D01*
X268534Y379983D01*
X268608Y380141D01*
X268653Y380309D01*
X268668Y380483D01*
Y383435D01*
X268653Y383609D01*
X268608Y383777D01*
X268534Y383935D01*
X268434Y384078D01*
X268311Y384201D01*
X268168Y384301D01*
X268010Y384375D01*
X267842Y384420D01*
X267668Y384435D01*
X263732D01*
X263558Y384420D01*
X263390Y384375D01*
X263232Y384301D01*
X263089Y384201D01*
X262966Y384078D01*
X262866Y383935D01*
X262850Y383900D01*
X261970D01*
X261943Y383958D01*
X261843Y384101D01*
X261720Y384224D01*
X261577Y384324D01*
X261419Y384398D01*
X261251Y384443D01*
X261077Y384458D01*
X259434D01*
Y404045D01*
G37*
G36*
X284184Y386900D02*X300579D01*
X301700Y385779D01*
Y381900D01*
X301706Y381832D01*
Y381770D01*
X301717Y381707D01*
X301723Y381640D01*
X301740Y381576D01*
X301751Y381513D01*
X301772Y381455D01*
X301790Y381387D01*
X301819Y381325D01*
X301840Y381267D01*
X301873Y381210D01*
X301901Y381150D01*
X301938Y381097D01*
X301971Y381040D01*
X302014Y380989D01*
X302051Y380936D01*
X302097Y380890D01*
X302139Y380840D01*
X304640Y378339D01*
X304690Y378297D01*
X304736Y378251D01*
X304789Y378214D01*
X304840Y378171D01*
X304897Y378138D01*
X304950Y378101D01*
X305010Y378073D01*
X305067Y378040D01*
X305125Y378019D01*
X305187Y377990D01*
X305255Y377972D01*
X305313Y377951D01*
X305376Y377940D01*
X305440Y377923D01*
X305507Y377917D01*
X305570Y377906D01*
X305632D01*
X305700Y377900D01*
X305930D01*
X305957Y377842D01*
X306057Y377699D01*
X306180Y377576D01*
X306323Y377476D01*
X306481Y377402D01*
X306649Y377357D01*
X306823Y377342D01*
X309577D01*
X309751Y377357D01*
X309919Y377402D01*
X310077Y377476D01*
X310220Y377576D01*
X310343Y377699D01*
X310443Y377842D01*
X310517Y378000D01*
X310562Y378168D01*
X310577Y378342D01*
Y380310D01*
X310562Y380484D01*
X310517Y380652D01*
X310443Y380810D01*
X310380Y380900D01*
X311732D01*
Y380483D01*
X311747Y380309D01*
X311792Y380141D01*
X311866Y379983D01*
X311966Y379840D01*
X312089Y379717D01*
X312232Y379617D01*
X312390Y379543D01*
X312558Y379498D01*
X312732Y379483D01*
X316668D01*
X316842Y379498D01*
X317010Y379543D01*
X317168Y379617D01*
X317311Y379717D01*
X317434Y379840D01*
X317534Y379983D01*
X317608Y380141D01*
X317653Y380309D01*
X317668Y380483D01*
Y383435D01*
X317653Y383609D01*
X317608Y383777D01*
X317534Y383935D01*
X317434Y384078D01*
X317311Y384201D01*
X317168Y384301D01*
X317010Y384375D01*
X316842Y384420D01*
X316668Y384435D01*
X312732D01*
X312558Y384420D01*
X312390Y384375D01*
X312232Y384301D01*
X312089Y384201D01*
X311966Y384078D01*
X311866Y383935D01*
X311850Y383900D01*
X310470D01*
X310443Y383958D01*
X310343Y384101D01*
X310220Y384224D01*
X310077Y384324D01*
X309919Y384398D01*
X309751Y384443D01*
X309577Y384458D01*
X306823D01*
X306649Y384443D01*
X306481Y384398D01*
X306323Y384324D01*
X306180Y384224D01*
X306057Y384101D01*
X305957Y383958D01*
X305883Y383800D01*
X305838Y383632D01*
X305823Y383458D01*
Y381490D01*
X305832Y381390D01*
X304700Y382521D01*
Y386400D01*
X304694Y386468D01*
Y386531D01*
X304683Y386594D01*
X304677Y386660D01*
X304659Y386728D01*
X304648Y386789D01*
X304629Y386840D01*
X304610Y386913D01*
X304578Y386980D01*
X304559Y387034D01*
X304530Y387084D01*
X304499Y387150D01*
X304459Y387206D01*
X304428Y387261D01*
X304387Y387310D01*
X304349Y387364D01*
X304302Y387411D01*
X304260Y387461D01*
X302321Y389400D01*
X304700D01*
X304779Y389407D01*
X304831D01*
X304885Y389416D01*
X304960Y389423D01*
X305033Y389442D01*
X305088Y389452D01*
X305137Y389470D01*
X305213Y389490D01*
X305281Y389522D01*
X305334Y389541D01*
X305386Y389571D01*
X305450Y389601D01*
X305510Y389643D01*
X305560Y389672D01*
X305604Y389709D01*
X305664Y389751D01*
X305716Y389803D01*
X305760Y389840D01*
X310760Y394840D01*
X310761Y394839D01*
X310808Y394895D01*
X310849Y394936D01*
X310881Y394982D01*
X310929Y395039D01*
X310965Y395102D01*
X310999Y395150D01*
X311025Y395206D01*
X311060Y395266D01*
X311083Y395329D01*
X311110Y395387D01*
X311126Y395449D01*
X311149Y395512D01*
X311161Y395581D01*
X311177Y395640D01*
X311182Y395698D01*
X311195Y395769D01*
Y395843D01*
X311200Y395900D01*
Y396899D01*
X311400Y396805D01*
X311653Y396738D01*
X311913Y396715D01*
X313487D01*
X313747Y396738D01*
X314000Y396805D01*
X314237Y396916D01*
X314274Y396942D01*
X314312Y396916D01*
X314349Y396899D01*
Y395251D01*
X314355Y395183D01*
Y395121D01*
X314366Y395057D01*
X314372Y394991D01*
X314389Y394926D01*
X314400Y394864D01*
X314421Y394805D01*
X314439Y394738D01*
X314468Y394675D01*
X314489Y394618D01*
X314521Y394562D01*
X314550Y394501D01*
X314587Y394449D01*
X314620Y394391D01*
X314663Y394340D01*
X314700Y394287D01*
X314746Y394241D01*
X314788Y394191D01*
X314790Y394189D01*
X314726Y394219D01*
X314221Y394354D01*
X313700Y394400D01*
X313179Y394354D01*
X312674Y394219D01*
X312200Y393998D01*
X311772Y393698D01*
X311402Y393328D01*
X311102Y392900D01*
X310881Y392426D01*
X310746Y391921D01*
X310700Y391400D01*
X310746Y390879D01*
X310881Y390374D01*
X311102Y389900D01*
X311402Y389472D01*
X311772Y389102D01*
X312200Y388802D01*
X312674Y388581D01*
X313179Y388446D01*
X313700Y388400D01*
X314221Y388446D01*
X314726Y388581D01*
X315200Y388802D01*
X315628Y389102D01*
X315998Y389472D01*
X316298Y389900D01*
X316519Y390374D01*
X316654Y390879D01*
X316700Y391400D01*
X316654Y391921D01*
X316519Y392426D01*
X316489Y392490D01*
X324200Y384779D01*
Y380900D01*
X323679Y380854D01*
X323174Y380719D01*
X322700Y380498D01*
X322272Y380198D01*
X321902Y379828D01*
X321602Y379400D01*
X321381Y378926D01*
X321246Y378421D01*
X321200Y377900D01*
X321246Y377379D01*
X321381Y376874D01*
X321602Y376400D01*
X321902Y375972D01*
X322272Y375602D01*
X322700Y375302D01*
X323174Y375081D01*
X323679Y374946D01*
X324200Y374900D01*
Y374400D01*
X316917D01*
X317010Y374425D01*
X317168Y374499D01*
X317311Y374599D01*
X317434Y374722D01*
X317534Y374865D01*
X317608Y375023D01*
X317653Y375191D01*
X317668Y375365D01*
Y378317D01*
X317653Y378491D01*
X317608Y378659D01*
X317534Y378817D01*
X317434Y378960D01*
X317311Y379083D01*
X317168Y379183D01*
X317010Y379257D01*
X316842Y379302D01*
X316668Y379317D01*
X312732D01*
X312558Y379302D01*
X312390Y379257D01*
X312232Y379183D01*
X312089Y379083D01*
X311966Y378960D01*
X311866Y378817D01*
X311792Y378659D01*
X311747Y378491D01*
X311732Y378317D01*
Y375365D01*
X311747Y375191D01*
X311792Y375023D01*
X311866Y374865D01*
X311966Y374722D01*
X312089Y374599D01*
X312232Y374499D01*
X312390Y374425D01*
X312483Y374400D01*
X291917D01*
X292010Y374425D01*
X292168Y374499D01*
X292311Y374599D01*
X292434Y374722D01*
X292534Y374865D01*
X292608Y375023D01*
X292653Y375191D01*
X292668Y375365D01*
Y378317D01*
X292653Y378491D01*
X292608Y378659D01*
X292534Y378817D01*
X292434Y378960D01*
X292311Y379083D01*
X292168Y379183D01*
X292010Y379257D01*
X291842Y379302D01*
X291668Y379317D01*
X287732D01*
X287558Y379302D01*
X287390Y379257D01*
X287232Y379183D01*
X287089Y379083D01*
X286966Y378960D01*
X286866Y378817D01*
X286792Y378659D01*
X286747Y378491D01*
X286732Y378317D01*
Y375365D01*
X286747Y375191D01*
X286792Y375023D01*
X286866Y374865D01*
X286966Y374722D01*
X287089Y374599D01*
X287232Y374499D01*
X287390Y374425D01*
X287483Y374400D01*
X284184D01*
Y377342D01*
X285577D01*
X285751Y377357D01*
X285919Y377402D01*
X286077Y377476D01*
X286220Y377576D01*
X286343Y377699D01*
X286443Y377842D01*
X286517Y378000D01*
X286562Y378168D01*
X286577Y378342D01*
Y380310D01*
X286562Y380484D01*
X286517Y380652D01*
X286443Y380810D01*
X286380Y380900D01*
X286732D01*
Y380483D01*
X286747Y380309D01*
X286792Y380141D01*
X286866Y379983D01*
X286966Y379840D01*
X287089Y379717D01*
X287232Y379617D01*
X287390Y379543D01*
X287558Y379498D01*
X287732Y379483D01*
X291668D01*
X291842Y379498D01*
X292010Y379543D01*
X292168Y379617D01*
X292311Y379717D01*
X292434Y379840D01*
X292534Y379983D01*
X292608Y380141D01*
X292653Y380309D01*
X292668Y380483D01*
Y383435D01*
X292653Y383609D01*
X292608Y383777D01*
X292534Y383935D01*
X292434Y384078D01*
X292311Y384201D01*
X292168Y384301D01*
X292010Y384375D01*
X291842Y384420D01*
X291668Y384435D01*
X287732D01*
X287558Y384420D01*
X287390Y384375D01*
X287232Y384301D01*
X287089Y384201D01*
X286966Y384078D01*
X286866Y383935D01*
X286850Y383900D01*
X286470D01*
X286443Y383958D01*
X286343Y384101D01*
X286220Y384224D01*
X286077Y384324D01*
X285919Y384398D01*
X285751Y384443D01*
X285577Y384458D01*
X284184D01*
Y386900D01*
G37*
G36*
X324200Y384779D02*X325140Y383839D01*
X325190Y383797D01*
X325236Y383751D01*
X325289Y383714D01*
X325340Y383671D01*
X325397Y383638D01*
X325450Y383601D01*
X325510Y383573D01*
X325567Y383540D01*
X325625Y383519D01*
X325687Y383490D01*
X325755Y383472D01*
X325813Y383451D01*
X325876Y383440D01*
X325940Y383423D01*
X326007Y383417D01*
X326070Y383406D01*
X326132D01*
X326200Y383400D01*
X334079D01*
X343079Y374400D01*
X324200D01*
Y374900D01*
X324721Y374946D01*
X325226Y375081D01*
X325700Y375302D01*
X326128Y375602D01*
X326498Y375972D01*
X326798Y376400D01*
X327019Y376874D01*
X327154Y377379D01*
X327200Y377900D01*
X327154Y378421D01*
X327019Y378926D01*
X326798Y379400D01*
X326498Y379828D01*
X326128Y380198D01*
X325700Y380498D01*
X325226Y380719D01*
X324721Y380854D01*
X324200Y380900D01*
Y384779D01*
G37*
G36*
X243600Y467879D02*X245140Y466339D01*
X245190Y466297D01*
X245236Y466251D01*
X245289Y466214D01*
X245340Y466171D01*
X245397Y466138D01*
X245450Y466101D01*
X245510Y466073D01*
X245567Y466040D01*
X245625Y466019D01*
X245687Y465990D01*
X245755Y465972D01*
X245813Y465951D01*
X245876Y465940D01*
X245940Y465923D01*
X246007Y465917D01*
X246070Y465906D01*
X246132D01*
X246200Y465900D01*
X272579D01*
X275700Y462779D01*
Y458521D01*
X274088Y460133D01*
X274154Y460379D01*
X274200Y460900D01*
X274154Y461421D01*
X274019Y461926D01*
X273798Y462400D01*
X273498Y462828D01*
X273128Y463198D01*
X272700Y463498D01*
X272226Y463719D01*
X271721Y463854D01*
X271200Y463900D01*
X270679Y463854D01*
X270174Y463719D01*
X269700Y463498D01*
X269272Y463198D01*
X268902Y462828D01*
X268602Y462400D01*
X268381Y461926D01*
X268246Y461421D01*
X268200Y460900D01*
X268246Y460379D01*
X268381Y459874D01*
X268602Y459400D01*
X268902Y458972D01*
X269272Y458602D01*
X269700Y458302D01*
X270174Y458081D01*
X270679Y457946D01*
X271200Y457900D01*
X271721Y457946D01*
X271967Y458012D01*
X273200Y456779D01*
Y451521D01*
X272088Y452633D01*
X272154Y452879D01*
X272200Y453400D01*
X272154Y453921D01*
X272019Y454426D01*
X271798Y454900D01*
X271498Y455328D01*
X271128Y455698D01*
X270700Y455998D01*
X270226Y456219D01*
X269721Y456354D01*
X269200Y456400D01*
X268679Y456354D01*
X268174Y456219D01*
X267700Y455998D01*
X267272Y455698D01*
X266902Y455328D01*
X266602Y454900D01*
X266381Y454426D01*
X266246Y453921D01*
X266200Y453400D01*
X266246Y452879D01*
X266381Y452374D01*
X266602Y451900D01*
X266902Y451472D01*
X267272Y451102D01*
X267700Y450802D01*
X268174Y450581D01*
X268679Y450446D01*
X269200Y450400D01*
X269721Y450446D01*
X269967Y450512D01*
X270700Y449779D01*
Y446521D01*
X260829Y456392D01*
X261128Y456602D01*
X261498Y456972D01*
X261798Y457400D01*
X262019Y457874D01*
X262154Y458379D01*
X262200Y458900D01*
X262154Y459421D01*
X262019Y459926D01*
X261798Y460400D01*
X261498Y460828D01*
X261128Y461198D01*
X260700Y461498D01*
X260226Y461719D01*
X259721Y461854D01*
X259200Y461900D01*
X258679Y461854D01*
X258174Y461719D01*
X257700Y461498D01*
X257272Y461198D01*
X256902Y460828D01*
X256602Y460400D01*
X256381Y459926D01*
X256246Y459421D01*
X256200Y458900D01*
X256246Y458379D01*
X256381Y457874D01*
X256602Y457400D01*
X256902Y456972D01*
X257272Y456602D01*
X257700Y456302D01*
Y455900D01*
X257706Y455832D01*
Y455770D01*
X257717Y455707D01*
X257723Y455640D01*
X257740Y455576D01*
X257751Y455513D01*
X257772Y455455D01*
X257790Y455387D01*
X257819Y455325D01*
X257840Y455267D01*
X257873Y455210D01*
X257901Y455150D01*
X257938Y455097D01*
X257971Y455040D01*
X258014Y454989D01*
X258051Y454936D01*
X258097Y454890D01*
X258139Y454840D01*
X268200Y444779D01*
Y442400D01*
X268194Y442468D01*
Y442531D01*
X268183Y442593D01*
X268177Y442660D01*
X268159Y442729D01*
X268148Y442789D01*
X268129Y442841D01*
X268110Y442913D01*
X268078Y442980D01*
X268059Y443034D01*
X268029Y443086D01*
X267999Y443150D01*
X267959Y443206D01*
X267928Y443261D01*
X267887Y443310D01*
X267849Y443364D01*
X267802Y443411D01*
X267760Y443461D01*
X248761Y462460D01*
X248710Y462503D01*
X248664Y462549D01*
X248609Y462588D01*
X248561Y462628D01*
X248505Y462661D01*
X248450Y462699D01*
X248387Y462729D01*
X248334Y462759D01*
X248281Y462778D01*
X248213Y462810D01*
X248140Y462829D01*
X248089Y462848D01*
X248029Y462859D01*
X247960Y462877D01*
X247893Y462883D01*
X247831Y462894D01*
X247768D01*
X247700Y462900D01*
X243600D01*
Y467879D01*
G37*
G36*
Y444900D02*X247079D01*
X257200Y434779D01*
Y433900D01*
X257194Y433968D01*
Y434031D01*
X257183Y434093D01*
X257177Y434160D01*
X257159Y434229D01*
X257148Y434289D01*
X257129Y434341D01*
X257110Y434413D01*
X257078Y434480D01*
X257059Y434534D01*
X257029Y434586D01*
X256999Y434650D01*
X256959Y434706D01*
X256928Y434761D01*
X256887Y434810D01*
X256849Y434864D01*
X256802Y434911D01*
X256760Y434961D01*
X250261Y441460D01*
X250211Y441502D01*
X250164Y441549D01*
X250109Y441587D01*
X250061Y441628D01*
X250006Y441660D01*
X249950Y441699D01*
X249886Y441729D01*
X249834Y441759D01*
X249780Y441779D01*
X249713Y441810D01*
X249641Y441829D01*
X249589Y441848D01*
X249529Y441859D01*
X249460Y441877D01*
X249394Y441883D01*
X249331Y441894D01*
X249268D01*
X249200Y441900D01*
X243600D01*
Y444900D01*
G37*
G36*
X212659Y471052D02*X213200Y470799D01*
Y470522D01*
X212659Y469981D01*
Y471052D01*
G37*
G54D13*X207791Y435401D02*X209200Y436810D01*
X207791Y435401D02*X209200Y434900D01*
X239200Y440400D02*X249200D01*
X239900Y408100D02*X240800D01*
X255700Y433900D02*Y409900D01*
G54D23*X247200Y414300D02*X243800Y417700D01*
G54D13*X263700Y412900D02*Y439900D01*
X261200Y411900D02*Y437400D01*
X258700Y410900D02*Y435400D01*
X249200Y440400D02*X255700Y433900D01*
X206700Y427867D02*Y432900D01*
X190200Y446400D02*X218200D01*
G54D24*X237400Y399600D02*Y405600D01*
G54D13*X233500Y389800D02*X238500Y394800D01*
X240400D01*
X241300Y395700D01*
G54D25*X239400Y380500D02*Y384700D01*
G54D24*X196200Y415400D02*Y401400D01*
Y415700D02*X198300D01*
X199100Y421600D02*X214900D01*
X196200Y418700D02*X199100Y421600D01*
X196200Y415500D02*Y418700D01*
G54D13*X193667Y427400D02*X203200D01*
G54D14*X180200Y400900D02*X191700Y389400D01*
G54D15*X203800Y398600D02*Y406900D01*
X205200Y408300D01*
G54D13*X199941Y382808D02*X199700Y382567D01*
G54D25*X205700Y382900D02*X210000Y391500D01*
G54D15*X203200Y386900D02*Y380900D01*
G54D24*X199700Y382567D02*Y379900D01*
X202200Y377400D01*
X231700D01*
X233200Y378900D01*
Y381900D01*
G54D26*X214000Y403600D02*Y416400D01*
G54D24*X215000Y421700D02*X224700Y431400D01*
X237400Y405600D02*X239900Y408100D01*
G54D13*X241300Y395700D02*Y398500D01*
G54D25*X244200Y390900D02*X239600Y388400D01*
G54D13*X241300Y398500D02*X241800Y399000D01*
X233441Y382208D02*X233200Y381900D01*
X233441Y383192D02*X233500Y383251D01*
G54D24*Y390600D01*
Y398000D02*Y417600D01*
Y398000D02*X228700D01*
G54D13*X259307Y382474D02*X259381Y382400D01*
X279700Y461900D02*Y438900D01*
X282200Y460400D02*Y439900D01*
G54D15*X286200Y441900D02*Y445900D01*
G54D13*X277200Y437400D02*Y463400D01*
X274700Y457400D02*X271200Y460900D01*
X274700Y417900D02*Y457400D01*
X272200Y416400D02*Y450400D01*
X277200Y463400D02*X273200Y467400D01*
X279700Y470900D02*X289200Y480400D01*
X274200Y410400D02*X269700Y414900D01*
Y445400D01*
X266700Y413900D02*Y442400D01*
X339498Y410352D02*X339546Y410400D01*
X371300D01*
X333700Y406900D02*X371200D01*
X332700Y404400D02*X370200D01*
X310300Y430700D02*X305700Y426100D01*
X289200Y422900D02*X318700D01*
X367700Y463400D02*Y461900D01*
X366700Y460900D01*
X358700D02*X366700D01*
X311700Y485900D02*X370200D01*
X315700Y419400D02*X299700D01*
X289200Y480400D02*Y484900D01*
G54D15*X325300Y448273D02*Y444400D01*
G54D13*X279700Y461900D02*X308700Y490900D01*
X297200Y471400D02*X311700Y485900D01*
X310200Y488400D02*X282200Y460400D01*
X273200Y467400D02*X246200D01*
X239200Y474400D01*
Y484900D01*
G54D24*X224700Y431400D02*Y484400D01*
G54D14*X239200Y484900D02*X214600D01*
G54D13*X263700Y439900D02*X247200Y456400D01*
X269700Y445400D02*X259200Y455900D01*
Y458900D01*
X266700Y442400D02*X247700Y461400D01*
X261200Y437400D02*X247200Y451400D01*
X258700Y435400D02*X247700Y446400D01*
X272200Y450400D02*X269200Y453400D01*
X247200Y456400D02*X230700D01*
X247700Y461400D02*X233200D01*
X247200Y451400D02*X233200D01*
X247700Y446400D02*X230700D01*
X315800Y465700D02*Y451900D01*
X303200Y469400D02*Y451400D01*
X306200Y468400D02*Y451400D01*
X312700Y466900D02*Y452798D01*
X321800Y458700D02*X318900Y455800D01*
Y450700D01*
X309700Y467900D02*Y450900D01*
X320900Y470900D02*X315800Y465700D01*
X314700Y480900D02*X303200Y469400D01*
X316200Y478400D02*X306200Y468400D01*
X312700Y466900D02*X319200Y473400D01*
X317700Y475900D02*X309700Y467900D01*
X313200Y483400D02*X300200Y470400D01*
Y451400D01*
X296952Y452798D02*X297200Y453046D01*
Y471400D02*Y453046D01*
X338200Y423000D02*X361247D01*
X338600Y426100D02*X360694D01*
X338500Y429300D02*X360041D01*
X337900Y432400D02*X359488D01*
X337300Y435500D02*X358935D01*
X334972Y419400D02*X322200D01*
X332700Y404400D02*X322700Y414400D01*
X330700Y419400D02*Y409900D01*
X333700Y406900D02*X330700Y409900D01*
X339598Y413301D02*X339697Y413400D01*
X322200Y419400D02*X318700Y422900D01*
X311700Y414400D02*X322700D01*
X316200Y418900D02*X315700Y419400D01*
X335172Y419600D02*X334972Y419400D01*
X343700Y416400D02*X345700Y418400D01*
X339649Y416400D02*X343700D01*
X339598Y416451D02*X339649Y416400D01*
X339697Y413400D02*X349200D01*
X351200Y415400D01*
X326200Y384900D02*X334700D01*
X344700Y374900D01*
X349700Y384900D02*X339700Y394900D01*
X330200D02*X339700D01*
X348700Y382400D02*X338700Y392400D01*
X347700Y379900D02*X337700Y389900D01*
X346200Y377400D02*X336200Y387400D01*
X329200Y392400D02*X338700D01*
X328200Y389900D02*X337700D01*
X327200Y387400D02*X336200D01*
X371300Y410400D02*X381600Y400100D01*
X383600Y400647D02*X361247Y423000D01*
X385600Y401194D02*X360694Y426100D01*
X373700Y404400D02*X371200Y406900D01*
X371700Y402900D02*X370200Y404400D01*
X387600Y401741D02*X360041Y429300D01*
X389600Y402288D02*X359488Y432400D01*
X391600Y402835D02*X358935Y435500D01*
X393600Y403382D02*X358282Y438700D01*
X393600Y403400D02*X393500Y403500D01*
X381600Y400100D02*Y389300D01*
X373700Y404400D02*Y389900D01*
X375700Y392900D02*Y389900D01*
X377200Y394400D02*X375700Y392900D01*
X383600Y400647D02*Y390400D01*
X385600Y401194D02*Y390400D01*
X387600Y401741D02*Y390400D01*
X389600Y402288D02*Y390400D01*
X391600Y402835D02*Y390400D01*
X393600Y403382D02*Y390400D01*
X367700Y382900D02*X364700Y379900D01*
X365700Y384400D02*X363700Y382400D01*
X369700Y381400D02*X365700Y377400D01*
X371200Y374900D02*X375700Y379400D01*
X363700Y386800D02*Y385900D01*
X367700Y387300D02*Y382900D01*
X365700Y387300D02*Y384400D01*
X344700Y374900D02*X371200D01*
X349700Y384900D02*X362700D01*
X348700Y382400D02*X363700D01*
X347700Y379900D02*X364700D01*
X346200Y377400D02*X365700D01*
X315849Y395251D02*X326200Y384900D01*
X312700Y399002D02*Y392400D01*
X330200Y394900D02*X328200Y396900D01*
Y399900D02*Y396900D01*
X329200Y392400D02*X325200Y396400D01*
Y398900D02*Y396400D01*
X328200Y389900D02*X322200Y395900D01*
X315849Y399002D02*Y395251D01*
X322200Y398900D02*Y395900D01*
X315749Y399202D02*X315800Y399151D01*
X319200Y399900D02*Y395400D01*
X327200Y387400D02*X319200Y395400D01*
X363700Y385900D02*X362700Y384900D01*
X369700Y387300D02*Y381400D01*
X373700Y387300D02*Y385900D01*
X374700Y384900D01*
X371600Y390400D02*X371700Y402900D01*
X374700Y384900D02*X377200D01*
X379700Y383400D02*X381200D01*
X377700Y387400D02*Y385400D01*
X377200Y384900D02*X377700Y385400D01*
X379700Y383400D01*
X308700Y490900D02*X373200D01*
X371700Y469900D02*X365700Y475900D01*
X319200Y473400D02*X364700D01*
X325700Y468400D02*X361300D01*
X310200Y488400D02*X371700D01*
X314700Y480900D02*X367700D01*
X313200Y483400D02*X368700D01*
X317700Y475900D02*X365700D01*
X320900Y470900D02*X363200D01*
X316200Y478400D02*X366700D01*
X371700Y469900D02*Y466000D01*
X373200Y490900D02*X385700Y478400D01*
X393600Y463900D02*Y453700D01*
X391600Y463900D02*Y455200D01*
X389600Y463900D02*Y457100D01*
X381700Y474400D02*Y465400D01*
X383700Y476400D02*Y466000D01*
Y476400D02*X371700Y488400D01*
X339498Y441848D02*X339546Y441800D01*
X339498Y441848D02*X339646Y441700D01*
X325299Y448372D02*X325200Y448273D01*
X325199Y448572D02*X325400Y448371D01*
X363300Y470800D02*X365600Y468500D01*
Y466300D01*
X363700Y466000D02*X361300Y468400D01*
X358700Y460900D02*X354700Y464900D01*
X329700D02*X354700D01*
X325700Y468400D02*X322200Y464900D01*
X345200Y443800D02*X335700Y453300D01*
X347300Y446300D02*X337100Y456500D01*
X349300Y448800D02*X339400Y458700D01*
X328400Y453300D02*X335700D01*
X323900Y456500D02*X337100D01*
X323900D02*X321900Y454500D01*
Y450800D01*
X321800Y458700D02*X339400D01*
X337500Y438700D02*X358282D01*
X393600Y453700D02*X381600Y441700D01*
X391600Y455200D02*X380300Y443900D01*
X389600Y457100D02*X378800Y446300D01*
X355200Y438700D02*X357847D01*
X338100Y441700D02*X381600D01*
X368400Y443900D02*X380300D01*
X368400D02*X368300Y443800D01*
X345200D02*X368300D01*
X347300Y446300D02*X378800D01*
X387600Y459500D02*X376900Y448800D01*
X349300D02*X376900D01*
X385700Y478400D02*Y465900D01*
X379700Y463400D02*Y459400D01*
X375700Y472900D02*Y466000D01*
X373700Y471400D02*Y466000D01*
X369700Y468400D02*Y465900D01*
X364700Y473400D02*X369700Y468400D01*
X387600Y463900D02*Y459500D01*
X377700Y474400D02*Y466000D01*
X375700Y472900D02*X367700Y480900D01*
X373700Y471400D02*X366700Y478400D01*
X377700Y474400D02*X368700Y483400D01*
X370200Y485900D02*X381700Y474400D01*
X255700Y409900D02*X277200Y388400D01*
G54D14*X247200Y393900D02*Y414300D01*
G54D13*X275700Y412900D02*X272200Y416400D01*
X280700Y395900D02*X263700Y412900D01*
X285802Y413302D02*X285704Y413400D01*
X284700D01*
X284200Y412900D01*
X275700D01*
X285802Y410152D02*X285554Y410400D01*
X274200D01*
X281476Y398900D02*X266700Y413900D01*
X279700Y393400D02*X261200Y411900D01*
X278700Y390900D02*X258700Y410900D01*
X283200Y435400D02*X279700Y438900D01*
X282200Y439900D02*X283700Y438400D01*
X286200D01*
X283200Y435400D02*X285751D01*
X278700Y435900D02*X277200Y437400D01*
G54D15*X290428Y432200D02*X294200D01*
G54D13*X294000Y432700D02*X294700Y432900D01*
X290228Y432200D02*X290428Y432400D01*
X294200D02*X294700Y432900D01*
X285802Y435349D02*X285751Y435400D01*
X284600Y429000D02*X282200Y431400D01*
X284600Y429000D02*X286200D01*
X310200Y437400D02*X301700Y428900D01*
X288700Y426100D02*X305700D01*
X290200Y428900D02*X301700D01*
X285802Y419801D02*X285601Y419600D01*
G54D15*X282700D02*X285601D01*
G54D13*X299700Y419400D02*X298700Y418400D01*
X293700D01*
X292700Y419400D01*
X289700D01*
G54D15*X282700Y425900D02*X285802D01*
G54D13*X279000Y422800D02*X285700D01*
X278700Y418900D02*Y435900D01*
X285802Y416452D02*X285750Y416400D01*
X284700D01*
X283700Y415400D01*
X277200D01*
X274700Y417900D01*
X306600Y403428D02*X306400Y403628D01*
G54D15*Y408400D02*Y403628D01*
G54D13*X300101Y399499D02*X300200Y399400D01*
X303251Y399002D02*X303200Y398951D01*
X309550Y399002D02*X309700Y398852D01*
Y395900D01*
X304700Y390900D01*
X303200Y395900D02*X300700Y393400D01*
X303200Y398951D02*Y395900D01*
Y386400D02*X301200Y388400D01*
X303200Y381900D02*Y386400D01*
X307807Y379326D02*X307733Y379400D01*
X305700D02*X303200Y381900D01*
X307733Y379400D02*X305700D01*
X307807Y382474D02*X307881Y382400D01*
X314200D01*
X283807Y379326D02*X283733Y379400D01*
X300200Y399400D02*Y396897D01*
X299200Y395900D01*
X283881Y382400D02*X289200D01*
X299200Y395900D02*X280700D01*
X300700Y393400D02*X279700D01*
X304700Y390900D02*X278700D01*
X296700Y398900D02*X281476D01*
X277200Y388400D02*X301200D01*
G54D15*X253200Y379100D02*X260200D01*
G54D13*X283807Y382474D02*X283881Y382400D01*
X259381D02*X265700D01*
G54D15*X283733Y379400D02*X278700D01*
G54D11*X263200Y375400D02*X324200D01*
G54D15*X149200Y416849D02*Y395900D01*
X152200Y392900D01*
X156200D01*
X154200Y400900D02*Y408400D01*
X154700Y411400D02*Y416900D01*
X154200Y408400D02*X159700D01*
G54D14*X164269Y400900D02*X180200D01*
G54D27*X176300Y415400D02*X169700D01*
G54D11*X186200Y421900D02*Y417400D01*
X162700Y424400D02*X183700D01*
G54D15*X159700Y411400D02*Y408400D01*
G54D11*X159800Y427300D02*X162700Y424400D01*
X159800Y439200D02*Y427300D01*
G54D15*X159700Y411400D02*X154700D01*
G54D13*X186500Y415400D02*X186400D01*
X201693Y415693D02*X201700Y415700D01*
G54D11*X206919D01*
G54D13*X207600Y396600D02*Y399000D01*
X205000Y395500D02*X206500D01*
X207600Y396600D01*
X199941Y383792D02*X199800Y383933D01*
G54D24*X199700Y389400D01*
G54D13*X199900Y390400D02*X205000Y395500D01*
G54D11*X203200Y387800D02*X208900Y393400D01*
G54D14*X191700Y389400D02*X199200D01*
G54D24*X198200Y399400D02*X199700D01*
X196200Y401400D02*X198200Y399400D01*
G54D14*X196200Y415400D02*X186200D01*
G54D11*X64700Y443900D02*X71700D01*
X64700Y428900D02*X69700D01*
X64700Y433900D02*X71700D01*
X55700Y438900D02*X59200D01*
X64700D02*X69700D01*
X53700Y436900D02*X55700Y438900D01*
X58149Y449400D02*X53700D01*
G54D13*X63759Y449892D02*X64200Y449451D01*
G54D11*Y443900D01*
X22200Y406900D02*X14200D01*
X29200Y413900D02*X22200Y406900D01*
X31200Y408900D02*X19200Y396900D01*
X14200D01*
X37700Y413900D02*X29200D01*
X44200Y418900D02*X46700D01*
X48700Y416900D01*
Y403900D01*
G54D13*X53759Y403892D02*X53700Y403951D01*
G54D11*X37700Y408900D02*X31200D01*
X19200Y417400D02*X22200Y420400D01*
G54D13*X14200Y416900D02*X14700Y417400D01*
G54D11*X19200D01*
G54D15*X115700Y446400D02*Y389900D01*
X112200Y447900D02*Y403900D01*
X108700Y448900D02*Y410400D01*
X116200Y456400D02*X108700Y448900D01*
G54D11*X123700Y426800D02*Y384400D01*
X121700Y382400D01*
G54D15*X104700Y449900D02*Y416400D01*
G54D13*X101700Y418400D02*Y451400D01*
X99200Y452900D02*Y420400D01*
G54D11*X123700Y426900D02*Y431900D01*
G54D15*X123168Y440700D02*X123200Y435900D01*
G54D11*X46200Y438900D02*X48200Y440900D01*
Y448900D02*Y440900D01*
X53700Y449400D02*Y436400D01*
G54D24*Y436900D02*Y403951D01*
G54D11*X44200Y438900D02*X46200D01*
X32200Y443900D02*X37700D01*
X22200Y420400D02*Y463900D01*
X19200Y466900D01*
X14700D01*
X14200Y436900D02*X21700D01*
X32200Y423900D02*X37700D01*
X32700Y428900D02*X37700D01*
X34200Y433900D02*X37700D01*
X34200D02*X31700Y436400D01*
Y438900D02*Y436400D01*
X121700Y382400D02*X67700D01*
X65700Y384400D01*
Y390400D01*
G54D13*X99200Y420400D02*X92700Y413900D01*
G54D15*X108700Y410400D02*X95700Y397400D01*
X104700Y416400D02*X85700Y397400D01*
X112200Y403900D02*X105700Y397400D01*
G54D13*X92700Y409400D02*X101700Y418400D01*
G54D15*X95700Y397400D02*Y390400D01*
X85700Y397400D02*Y390400D01*
X105700Y397400D02*Y390400D01*
G54D13*X92700Y413900D02*X63200D01*
X64700Y408900D02*X65200Y409400D01*
X92700D01*
X64700Y418900D02*X93200D01*
X96700Y422400D01*
X93700Y425400D02*Y455400D01*
X92200Y423900D02*X93700Y425400D01*
X96700Y422400D02*Y454400D01*
G54D15*X78900Y456000D02*Y448300D01*
G54D13*X64700Y423900D02*X92200D01*
G54D15*X78900Y448300D02*X74500Y443900D01*
X71800D01*
G54D13*X84208Y447341D02*X84200Y447333D01*
X84208Y447341D02*X84100Y447233D01*
G54D24*X84200Y442400D01*
G54D13*X83708Y452459D02*X83649Y452400D01*
G54D11*X83700Y456900D02*Y452400D01*
G54D15*X83649D02*X79200D01*
X150200Y424900D02*Y431400D01*
X154700Y423400D02*X153300Y424800D01*
Y431300D01*
G54D13*X148708Y417341D02*X149200Y416849D01*
G54D15*X148700Y423400D02*X150200Y424900D01*
G54D13*X146825Y430675D02*X147000Y430500D01*
G54D15*Y427500D02*X142700Y423200D01*
Y411400D01*
G54D28*X130300D01*
G54D15*X147000Y430500D02*Y427500D01*
G54D11*X130400Y421400D02*X124300D01*
X123700Y426800D02*X136300Y439400D01*
G54D13*X127576Y440976D02*X127300Y440700D01*
G54D15*X123668D01*
G54D11*X136300Y439400D02*X143700D01*
G54D15*X127600Y450100D02*X119367D01*
X115700Y446400D01*
X127600Y453300D02*X117617D01*
X112200Y447900D01*
G54D13*X127608Y456424D02*X127584Y456400D01*
X127608Y462723D02*X127431Y462900D01*
X124700D01*
X122700Y464900D01*
G54D15*X127700Y459500D02*X114466D01*
X127584Y456400D02*X116200D01*
G54D13*X127525Y453175D02*X127600Y453300D01*
X127608Y446975D02*X127533Y446900D01*
X132034Y446975D02*X132109Y446900D01*
X122700D01*
X122200Y483900D02*X158700D01*
X123700Y481400D02*X156700D01*
X126700Y476400D02*X145200D01*
X146200Y478900D02*X125200D01*
X132200Y470900D02*X137700D01*
X153324Y468266D02*X153200Y468142D01*
X156200Y450400D02*X152200Y446400D01*
X137200D01*
X153200Y468142D02*Y452400D01*
X151700Y450900D01*
X142200D01*
X127874Y459674D02*X127700Y459500D01*
X140700Y463900D02*X143200Y461400D01*
X146200Y464700D02*X148700D01*
X140700Y468240D02*Y463900D01*
X140726Y468266D02*X140700Y468240D01*
X137700Y460900D02*Y468400D01*
G54D15*X95200Y480400D02*X83700D01*
G54D11*X68700Y481400D02*X64200D01*
G54D15*X73700Y476400D02*X70700Y473400D01*
X66200D01*
X64200Y471400D01*
Y449400D01*
G54D13*X68700Y468400D02*Y462900D01*
X78700Y474400D02*Y477400D01*
X80200Y471900D02*X78700Y474400D01*
X90200Y471900D02*X80200D01*
G54D15*X73700Y483900D02*Y485400D01*
X75200Y486900D01*
X88700D02*X89700Y485900D01*
Y483900D01*
X75200Y486900D02*X88700D01*
G54D13*X93700Y455400D02*X122200Y483900D01*
G54D15*X95200Y480400D02*X97200Y482400D01*
X114466Y459500D02*X104700Y449900D01*
G54D13*X125200Y478900D02*X99200Y452900D01*
X96700Y454400D02*X123700Y481400D01*
X101700Y451400D02*X126700Y476400D01*
X176200Y474900D02*X194700D01*
X179700Y462900D02*X175200Y467400D01*
X184200D02*X201200D01*
X214800Y475000D02*X214700Y474900D01*
Y469900D01*
X201200Y467400D02*X204200Y470400D01*
X207700Y462900D02*X179700D01*
X214700Y469900D02*X207700Y462900D01*
X204200Y470400D02*Y474900D01*
G54D15*X143900Y435300D02*X144000Y440190D01*
G54D11*X145300Y439200D02*X159800D01*
G54D13*X156274Y435174D02*X156500Y435400D01*
G54D15*Y438440D01*
G54D13*X159624Y430708D02*X159800Y439200D01*
G54D11*Y439700D02*Y448600D01*
X161300Y450100D01*
G54D15*X165700D01*
G54D13*X169869Y440400D02*X176700D01*
X186200Y431900D02*Y435081D01*
X190126Y427793D02*X186200Y431900D01*
X169592Y440677D02*X169869Y440400D01*
G54D11*X183700Y424400D02*X186200Y421900D01*
G54D13*X169666Y443900D02*X205200D01*
X169592Y443826D02*X169666Y443900D01*
X169624Y447076D02*X169700Y447000D01*
G54D15*X173232D01*
X174700Y448500D01*
G54D13*X206700Y442400D02*Y438400D01*
X205200Y443900D02*X206700Y442400D01*
G54D15*X174200Y456400D02*X169200D01*
G54D13*X169592Y459574D02*X169918Y459900D01*
X176700D01*
X190200Y446400D01*
X158700Y483900D02*X165200Y477400D01*
X156700Y481400D02*X159700Y478400D01*
X144100Y468200D02*Y466900D01*
X156474Y468266D02*X156200Y467992D01*
X144100Y466900D02*X146200Y464700D01*
X145200Y476400D02*X147200Y474400D01*
Y471900D01*
X150175Y472692D02*X150200Y472717D01*
Y474900D01*
X146200Y478900D01*
X165200Y477400D02*Y462900D01*
X159700Y478400D02*Y471900D01*
X156200Y467992D02*Y450400D01*
G54D17*X75700Y390400D03*
X85700D03*
X95700D03*
X105700D03*
X115700D03*
G54D18*X154427Y400900D03*
X164269D03*
X154427Y393026D03*
X164269D03*
G54D19*X182971Y382199D03*
X135727D03*
G54D17*X14200Y436900D03*
Y426900D03*
Y416900D03*
Y406900D03*
G54D11*G36*
X11200Y469900D02*Y463900D01*
X17200D01*
Y469900D01*
X11200D01*
G37*
G54D17*X14200Y456900D03*
Y446900D03*
Y396900D03*
Y386900D03*
G54D11*G36*
X62700Y393400D02*Y387400D01*
X68700D01*
Y393400D01*
X62700D01*
G37*
G36*
X211800Y488000D02*Y482000D01*
X217800D01*
Y488000D01*
X211800D01*
G37*
G54D17*X204800Y485000D03*
X194800D03*
Y475000D03*
X204800D03*
X214800D03*
G54D11*G36*
X236200Y487900D02*Y481900D01*
X242200D01*
Y487900D01*
X236200D01*
G37*
G54D17*X249200Y484900D03*
X259200D03*
X269200D03*
X279200D03*
X289200D03*
G54D12*X142700Y411400D03*
X169700Y415400D03*
X143700Y439400D03*
X123200Y440400D03*
X122700Y445900D03*
X71700Y443900D03*
X97700Y481900D03*
X69700Y438900D03*
X84200Y442400D03*
X90200Y471900D03*
X69700Y428900D03*
X71700Y433900D03*
X64200Y481400D03*
X69200Y468400D03*
X245700Y384900D03*
X375700Y379400D03*
X313700Y391400D03*
X381200Y383400D03*
X278700Y379900D03*
X324200Y377900D03*
X325200Y444400D03*
X345700Y418400D03*
X310200Y437400D03*
X310300Y430700D03*
X330700Y419400D03*
X351200Y415400D03*
X329700Y464900D03*
X379700Y459400D03*
X306200Y408400D03*
X316200Y418900D03*
X294700Y432900D03*
X310700Y414400D03*
X296200Y422400D03*
X286200Y445900D03*
X253200Y378400D03*
X377700Y394400D03*
X322200Y464900D03*
X271200Y460900D03*
X269200Y453400D03*
X279700Y470900D03*
X212200Y385900D03*
X228700Y398000D03*
X259200Y458900D03*
X198200Y427400D03*
X233200Y461400D03*
X230700Y456400D03*
X233200Y451400D03*
X230700Y446400D03*
X218200D03*
X239200Y440400D03*
X122700Y464900D03*
X132200Y470900D03*
X174700Y448400D03*
X161300Y449900D03*
X174200Y455400D03*
X137200Y446400D03*
X142200Y450900D03*
X137700Y460900D03*
X148700Y464700D03*
X184200Y467400D03*
X175200D03*
X176200Y474900D03*
X143200Y462400D03*
G54D29*X68700Y463400D02*Y456900D01*
X73700Y463400D02*Y456900D01*
X78700Y463400D02*Y456900D01*
X83700Y483900D02*Y477400D01*
Y463400D02*Y456900D01*
X78700Y483900D02*Y477400D01*
X73700Y483900D02*Y477400D01*
X68700Y483900D02*Y477400D01*
G54D21*X89307Y480826D02*X90093D01*
X89307Y483974D02*X90093D01*
G54D20*X83708Y447341D02*X84692D01*
X83708Y452459D02*X84692D01*
X148708Y417341D02*X149692D01*
X154208D02*X155192D01*
X148708Y422459D02*X149692D01*
X154208D02*X155192D01*
G54D30*X130400Y421400D02*X134000D01*
X130400Y411400D02*X134000D01*
G54D21*X123307Y435474D02*X124093D01*
X123307Y432326D02*X124093D01*
G54D31*X137577Y435134D02*Y430708D01*
X140726Y435134D02*Y430708D01*
X143876Y435134D02*Y430708D01*
X147025Y435134D02*Y430708D01*
X150175Y435134D02*Y430708D01*
X153325Y435134D02*Y430708D01*
X156474Y435134D02*Y430708D01*
X159624Y435134D02*Y430708D01*
G54D20*X63759Y449892D02*Y448908D01*
X58641Y449892D02*Y448908D01*
X53259Y449892D02*Y448908D01*
X48141Y449892D02*Y448908D01*
G54D29*X37700Y443900D02*X44200D01*
X37700Y438900D02*X44200D01*
X37700Y433900D02*X44200D01*
X37700Y428900D02*X44200D01*
X58200Y438900D02*X64700D01*
X58200Y443900D02*X64700D01*
G54D20*X31208Y443959D02*X32192D01*
X31208Y438841D02*X32192D01*
X31208Y423841D02*X32192D01*
X31208Y428959D02*X32192D01*
X53759Y403892D02*Y402908D01*
G54D29*X58200Y408900D02*X64700D01*
X58200Y413900D02*X64700D01*
G54D20*X48641Y403892D02*Y402908D01*
G54D29*X37700Y423900D02*X44200D01*
X37700Y418900D02*X44200D01*
X37700Y413900D02*X44200D01*
X37700Y408900D02*X44200D01*
X58200Y418900D02*X64700D01*
X58200Y423900D02*X64700D01*
X58200Y428900D02*X64700D01*
X58200Y433900D02*X64700D01*
G54D31*X159623Y472692D02*Y468266D01*
X156474Y472692D02*Y468266D01*
X153324Y472692D02*Y468266D01*
X150175Y472692D02*Y468266D01*
X147025Y472692D02*Y468266D01*
X143875Y472692D02*Y468266D01*
X140726Y472692D02*Y468266D01*
X137576Y472692D02*Y468266D01*
X127608Y462723D02*X132034D01*
X127608Y459574D02*X132034D01*
X127608Y456424D02*X132034D01*
X127608Y453275D02*X132034D01*
X127608Y450125D02*X132034D01*
X127608Y446975D02*X132034D01*
X127608Y443826D02*X132034D01*
X127608Y440676D02*X132034D01*
G54D20*X265208Y381959D02*X266192D01*
X265208Y376841D02*X266192D01*
X238559Y383192D02*Y382208D01*
G54D32*X233441Y383192D02*Y382208D01*
G54D20*X205059Y383792D02*Y382808D01*
X199941Y383792D02*Y382808D01*
G54D21*X259307Y379326D02*X260093D01*
X259307Y382474D02*X260093D01*
G54D30*X186200Y417200D02*Y413600D01*
X176200Y417200D02*Y413600D01*
G54D21*X193274Y427793D02*Y427007D01*
X190126Y427793D02*Y427007D01*
X201674Y416093D02*Y415307D01*
X198526Y416093D02*Y415307D01*
X203626Y427793D02*Y427007D01*
X206774Y427793D02*Y427007D01*
G54D31*X165166Y440677D02*X169592D01*
G54D11*G36*
X175233Y441403D02*X189170Y441399D01*
X189167Y431399D01*
X175230Y431403D01*
X175233Y441403D01*
G37*
G54D33*X207791Y436401D02*X211728D01*
G54D31*X165166Y443826D02*X169592D01*
X165166Y446976D02*X169592D01*
X165166Y450125D02*X169592D01*
X165166Y453275D02*X169592D01*
X165166Y456425D02*X169592D01*
X165166Y459574D02*X169592D01*
X165166Y462724D02*X169592D01*
G54D30*X243600Y421000D02*Y417400D01*
G54D20*X245659Y408492D02*Y407508D01*
X240541Y408492D02*Y407508D01*
G54D34*X241300Y391400D02*Y389800D01*
Y399600D02*Y398000D01*
X237400Y399600D02*Y398000D01*
G54D30*X233600Y421000D02*Y417400D01*
G54D34*X233500Y391400D02*Y389800D01*
Y399600D02*Y398000D01*
G54D20*X207541Y416292D02*Y415308D01*
X212659Y416292D02*Y415308D01*
G54D34*X199900Y392000D02*Y390400D01*
X207700Y392000D02*Y390400D01*
Y400200D02*Y398600D01*
X203800Y400200D02*Y398600D01*
X199900Y400200D02*Y398600D01*
G54D20*X211259Y408892D02*Y407908D01*
X206141Y408892D02*Y407908D01*
G54D35*X363700Y389900D02*Y387300D01*
G54D36*X365700Y389900D02*Y387300D01*
X367700Y389900D02*Y387300D01*
X369700Y389900D02*Y387300D01*
X371700Y389900D02*Y387300D01*
X373700Y389900D02*Y387300D01*
X375700Y389900D02*Y387300D01*
X377700Y389900D02*Y387300D01*
X379700Y389900D02*Y387300D01*
X381700Y389900D02*Y387300D01*
X383700Y389900D02*Y387300D01*
X385700Y389900D02*Y387300D01*
X387700Y389900D02*Y387300D01*
X389700Y389900D02*Y387300D01*
X391700Y389900D02*Y387300D01*
X393700Y389900D02*Y387300D01*
Y466000D02*Y463400D01*
X391700Y466000D02*Y463400D01*
X389700Y466000D02*Y463400D01*
X387700Y466000D02*Y463400D01*
X385700Y466000D02*Y463400D01*
X383700Y466000D02*Y463400D01*
X381700Y466000D02*Y463400D01*
X379700Y466000D02*Y463400D01*
X377700Y466000D02*Y463400D01*
X375700Y466000D02*Y463400D01*
X373700Y466000D02*Y463400D01*
X371700Y466000D02*Y463400D01*
X369700Y466000D02*Y463400D01*
X367700Y466000D02*Y463400D01*
X365700Y466000D02*Y463400D01*
X363700Y466000D02*Y463400D01*
G54D21*X282274Y431293D02*Y430507D01*
X279126Y431293D02*Y430507D01*
X282274Y419793D02*Y419007D01*
X279126Y419793D02*Y419007D01*
X282274Y426793D02*Y426007D01*
X279126Y426793D02*Y426007D01*
G54D31*X285802Y441648D02*X290228D01*
X285802Y438499D02*X290228D01*
X285802Y435349D02*X290228D01*
X285802Y432200D02*X290228D01*
X285802Y429050D02*X290228D01*
X285802Y425900D02*X290228D01*
X285802Y422751D02*X290228D01*
X335172Y425900D02*X339598D01*
X335172Y429049D02*X339598D01*
X335172Y432199D02*X339598D01*
X335172Y435348D02*X339598D01*
X335172Y438498D02*X339598D01*
X335172Y441648D02*X339598D01*
X328448Y452798D02*Y448372D01*
X325299Y452798D02*Y448372D01*
X322149Y452798D02*Y448372D01*
X319000Y452798D02*Y448372D01*
X315850Y452798D02*Y448372D01*
X312700Y452798D02*Y448372D01*
X309551Y452798D02*Y448372D01*
X306401Y452798D02*Y448372D01*
X303252Y452798D02*Y448372D01*
X300102Y452798D02*Y448372D01*
X296952Y452798D02*Y448372D01*
X285802Y419601D02*X290228D01*
X285802Y416452D02*X290228D01*
X285802Y413302D02*X290228D01*
X285802Y410152D02*X290228D01*
X296952Y403428D02*Y399002D01*
X300101Y403428D02*Y399002D01*
X303251Y403428D02*Y399002D01*
X306400Y403428D02*Y399002D01*
X309550Y403428D02*Y399002D01*
X312700Y403428D02*Y399002D01*
X315849Y403428D02*Y399002D01*
X318999Y403428D02*Y399002D01*
X322148Y403428D02*Y399002D01*
X325298Y403428D02*Y399002D01*
X328448Y403428D02*Y399002D01*
X335172Y410152D02*X339598D01*
X335172Y413301D02*X339598D01*
X335172Y416451D02*X339598D01*
X335172Y419600D02*X339598D01*
X335172Y422750D02*X339598D01*
G54D21*X307807Y379326D02*X308593D01*
X307807Y382474D02*X308593D01*
G54D20*X314208Y381959D02*X315192D01*
X314208Y376841D02*X315192D01*
G54D21*X283807Y379326D02*X284593D01*
X283807Y382474D02*X284593D01*
G54D20*X289208Y381959D02*X290192D01*
X289208Y376841D02*X290192D01*
G54D22*G54D14*G54D17*G54D22*G54D11*M02*
