G04 start of page 11 for group -4015 idx -4015 *
G04 Title: (unknown), toppaste *
G04 Creator: pcb 1.99y *
G04 CreationDate: Tue 31 Mar 2009 11:14:50 PM GMT UTC *
G04 For: jean *
G04 Format: Gerber/RS-274X *
G04 PCB-Dimensions: 600000 500000 *
G04 PCB-Coordinate-Origin: lower left *
%MOIN*%
%FSLAX25Y25*%
%LNFRONTPASTE*%
%ADD11C,0.0200*%
%ADD20R,0.0295X0.0295*%
%ADD21R,0.0197X0.0197*%
%ADD29R,0.0200X0.0200*%
%ADD30R,0.0490X0.0490*%
%ADD31R,0.0157X0.0157*%
%ADD32R,0.0345X0.0345*%
%ADD33R,0.1000X0.1000*%
%ADD34R,0.0240X0.0240*%
%ADD35C,0.0120*%
%ADD36R,0.0120X0.0120*%
G54D20*X83708Y447341D02*X84692D01*
X83708Y452459D02*X84692D01*
X289208Y381959D02*X290192D01*
X289208Y376841D02*X290192D01*
X314208Y381959D02*X315192D01*
X314208Y376841D02*X315192D01*
G54D21*X307807Y379326D02*X308593D01*
X307807Y382474D02*X308593D01*
X283807Y379326D02*X284593D01*
X283807Y382474D02*X284593D01*
X259307Y379326D02*X260093D01*
X259307Y382474D02*X260093D01*
G54D11*G36*
X175233Y441403D02*X189170Y441399D01*
X189167Y431399D01*
X175230Y431403D01*
X175233Y441403D01*
G37*
G54D33*X207791Y436401D02*X211728D01*
G54D20*X205059Y383792D02*Y382808D01*
X199941Y383792D02*Y382808D01*
G54D21*X89307Y480826D02*X90093D01*
X89307Y483974D02*X90093D01*
G54D34*X233500Y391400D02*Y389800D01*
X241300Y391400D02*Y389800D01*
Y399600D02*Y398000D01*
X237400Y399600D02*Y398000D01*
X233500Y399600D02*Y398000D01*
G54D20*X211259Y408892D02*Y407908D01*
X206141Y408892D02*Y407908D01*
G54D21*X282274Y426793D02*Y426007D01*
X279126Y426793D02*Y426007D01*
G54D31*X285802Y441648D02*X290228D01*
X285802Y438499D02*X290228D01*
X285802Y435349D02*X290228D01*
X285802Y432200D02*X290228D01*
X285802Y429050D02*X290228D01*
X285802Y425900D02*X290228D01*
X285802Y422751D02*X290228D01*
X285802Y419601D02*X290228D01*
X285802Y416452D02*X290228D01*
X285802Y413302D02*X290228D01*
X285802Y410152D02*X290228D01*
X296952Y403428D02*Y399002D01*
X300101Y403428D02*Y399002D01*
X303251Y403428D02*Y399002D01*
X306400Y403428D02*Y399002D01*
X309550Y403428D02*Y399002D01*
X312700Y403428D02*Y399002D01*
X315849Y403428D02*Y399002D01*
X318999Y403428D02*Y399002D01*
X322148Y403428D02*Y399002D01*
X325298Y403428D02*Y399002D01*
X328448Y403428D02*Y399002D01*
X335172Y410152D02*X339598D01*
X335172Y413301D02*X339598D01*
X335172Y416451D02*X339598D01*
X335172Y419600D02*X339598D01*
X335172Y422750D02*X339598D01*
X335172Y425900D02*X339598D01*
X335172Y429049D02*X339598D01*
X335172Y432199D02*X339598D01*
X335172Y435348D02*X339598D01*
X335172Y438498D02*X339598D01*
X335172Y441648D02*X339598D01*
X328448Y452798D02*Y448372D01*
X325299Y452798D02*Y448372D01*
X322149Y452798D02*Y448372D01*
X319000Y452798D02*Y448372D01*
X315850Y452798D02*Y448372D01*
X312700Y452798D02*Y448372D01*
X309551Y452798D02*Y448372D01*
X306401Y452798D02*Y448372D01*
X303252Y452798D02*Y448372D01*
X300102Y452798D02*Y448372D01*
X296952Y452798D02*Y448372D01*
X165166Y440677D02*X169592D01*
X165166Y443826D02*X169592D01*
X165166Y446976D02*X169592D01*
X165166Y450125D02*X169592D01*
X165166Y453275D02*X169592D01*
X165166Y456425D02*X169592D01*
X165166Y459574D02*X169592D01*
X165166Y462724D02*X169592D01*
X159623Y472692D02*Y468266D01*
X156474Y472692D02*Y468266D01*
X153324Y472692D02*Y468266D01*
X150175Y472692D02*Y468266D01*
X147025Y472692D02*Y468266D01*
X143875Y472692D02*Y468266D01*
X140726Y472692D02*Y468266D01*
X137576Y472692D02*Y468266D01*
X127608Y462723D02*X132034D01*
X127608Y459574D02*X132034D01*
X127608Y456424D02*X132034D01*
X127608Y453275D02*X132034D01*
X127608Y450125D02*X132034D01*
X127608Y446975D02*X132034D01*
X127608Y443826D02*X132034D01*
X127608Y440676D02*X132034D01*
X137577Y435134D02*Y430708D01*
X140726Y435134D02*Y430708D01*
X143876Y435134D02*Y430708D01*
X147025Y435134D02*Y430708D01*
X150175Y435134D02*Y430708D01*
X153325Y435134D02*Y430708D01*
X156474Y435134D02*Y430708D01*
X159624Y435134D02*Y430708D01*
G54D20*X31208Y423841D02*X32192D01*
X31208Y428959D02*X32192D01*
G54D34*X199900Y392000D02*Y390400D01*
X207700Y392000D02*Y390400D01*
Y400200D02*Y398600D01*
X203800Y400200D02*Y398600D01*
X199900Y400200D02*Y398600D01*
G54D21*X282274Y419793D02*Y419007D01*
X279126Y419793D02*Y419007D01*
G54D35*X363700Y389900D02*Y387300D01*
G54D36*X365700Y389900D02*Y387300D01*
X367700Y389900D02*Y387300D01*
X369700Y389900D02*Y387300D01*
X371700Y389900D02*Y387300D01*
X373700Y389900D02*Y387300D01*
X375700Y389900D02*Y387300D01*
X377700Y389900D02*Y387300D01*
X379700Y389900D02*Y387300D01*
X381700Y389900D02*Y387300D01*
X383700Y389900D02*Y387300D01*
X385700Y389900D02*Y387300D01*
X387700Y389900D02*Y387300D01*
X389700Y389900D02*Y387300D01*
X391700Y389900D02*Y387300D01*
X393700Y389900D02*Y387300D01*
Y466000D02*Y463400D01*
X391700Y466000D02*Y463400D01*
X389700Y466000D02*Y463400D01*
X387700Y466000D02*Y463400D01*
X385700Y466000D02*Y463400D01*
X383700Y466000D02*Y463400D01*
X381700Y466000D02*Y463400D01*
X379700Y466000D02*Y463400D01*
X377700Y466000D02*Y463400D01*
X375700Y466000D02*Y463400D01*
X373700Y466000D02*Y463400D01*
X371700Y466000D02*Y463400D01*
X369700Y466000D02*Y463400D01*
X367700Y466000D02*Y463400D01*
X365700Y466000D02*Y463400D01*
X363700Y466000D02*Y463400D01*
G54D30*X130400Y421400D02*X134000D01*
X130400Y411400D02*X134000D01*
G54D20*X238559Y383192D02*Y382208D01*
G54D32*X233441Y383192D02*Y382208D01*
G54D20*X31208Y443959D02*X32192D01*
X31208Y438841D02*X32192D01*
G54D29*X37700Y443900D02*X44200D01*
X37700Y438900D02*X44200D01*
X37700Y433900D02*X44200D01*
X37700Y428900D02*X44200D01*
X37700Y423900D02*X44200D01*
X37700Y418900D02*X44200D01*
X37700Y413900D02*X44200D01*
X37700Y408900D02*X44200D01*
X58200D02*X64700D01*
X58200Y413900D02*X64700D01*
X58200Y418900D02*X64700D01*
X58200Y423900D02*X64700D01*
X58200Y428900D02*X64700D01*
X58200Y433900D02*X64700D01*
X58200Y438900D02*X64700D01*
X58200Y443900D02*X64700D01*
G54D20*X207541Y416292D02*Y415308D01*
X212659Y416292D02*Y415308D01*
G54D21*X203626Y427793D02*Y427007D01*
X206774Y427793D02*Y427007D01*
G54D20*X245659Y408492D02*Y407508D01*
X240541Y408492D02*Y407508D01*
G54D30*X233600Y421000D02*Y417400D01*
X243600Y421000D02*Y417400D01*
G54D21*X123307Y435474D02*X124093D01*
X123307Y432326D02*X124093D01*
G54D20*X53759Y403892D02*Y402908D01*
X48641Y403892D02*Y402908D01*
X154208Y417341D02*X155192D01*
X154208Y422459D02*X155192D01*
G54D30*X186200Y417200D02*Y413600D01*
X176200Y417200D02*Y413600D01*
G54D20*X148708Y417341D02*X149692D01*
X148708Y422459D02*X149692D01*
X53259Y449892D02*Y448908D01*
X48141Y449892D02*Y448908D01*
G54D29*X83700Y483900D02*Y477400D01*
X78700Y483900D02*Y477400D01*
X73700Y483900D02*Y477400D01*
X68700Y483900D02*Y477400D01*
Y463400D02*Y456900D01*
X73700Y463400D02*Y456900D01*
X78700Y463400D02*Y456900D01*
X83700Y463400D02*Y456900D01*
G54D20*X265208Y381959D02*X266192D01*
X265208Y376841D02*X266192D01*
G54D21*X201674Y416093D02*Y415307D01*
X198526Y416093D02*Y415307D01*
G54D20*X63759Y449892D02*Y448908D01*
X58641Y449892D02*Y448908D01*
G54D21*X193274Y427793D02*Y427007D01*
X190126Y427793D02*Y427007D01*
X282274Y431293D02*Y430507D01*
X279126Y431293D02*Y430507D01*
M02*
