G04 start of page 9 for group -4078 idx -4078 *
G04 Title: (unknown), bottomsilk *
G04 Creator: pcb 1.99y *
G04 CreationDate: Mon 27 Apr 2009 04:40:54 PM GMT UTC *
G04 For: jean *
G04 Format: Gerber/RS-274X *
G04 PCB-Dimensions: 600000 500000 *
G04 PCB-Coordinate-Origin: lower left *
%MOIN*%
%FSLAX25Y25*%
%LNBACKSILK*%
%ADD49C,0.0080*%
G54D49*X316590Y440800D02*X317760D01*
X316200Y440410D02*X316590Y440800D01*
X316200Y438070D02*Y440410D01*
Y438070D02*X316590Y437680D01*
X317760D01*
X318696Y438070D02*X319086Y437680D01*
X320256D01*
X320646Y438070D01*
Y438850D01*
X318696Y440800D02*X320646Y438850D01*
X318696Y440800D02*X320646D01*
X321583Y438070D02*X321973Y437680D01*
X323143D01*
X323533Y438070D01*
Y438850D01*
X321583Y440800D02*X323533Y438850D01*
X321583Y440800D02*X323533D01*
X334100Y435340D02*Y436510D01*
X333710Y436900D02*X334100Y436510D01*
X331370Y436900D02*X333710D01*
X331370D02*X330980Y436510D01*
Y435340D02*Y436510D01*
X334100Y433234D02*Y434014D01*
X330980Y433624D02*X334100D01*
X331760Y434404D02*X330980Y433624D01*
X333710Y432297D02*X334100Y431907D01*
X332930Y432297D02*X333710D01*
X332930D02*X332540Y431907D01*
Y431127D02*Y431907D01*
Y431127D02*X332930Y430737D01*
X333710D01*
X334100Y431127D02*X333710Y430737D01*
X334100Y431127D02*Y431907D01*
X332150Y432297D02*X332540Y431907D01*
X331370Y432297D02*X332150D01*
X331370D02*X330980Y431907D01*
Y431127D02*Y431907D01*
Y431127D02*X331370Y430737D01*
X332150D01*
X332540Y431127D02*X332150Y430737D01*
X302100Y417840D02*Y419010D01*
X301710Y419400D02*X302100Y419010D01*
X299370Y419400D02*X301710D01*
X299370D02*X298980Y419010D01*
Y417840D02*Y419010D01*
X299370Y416904D02*X298980Y416514D01*
Y415344D02*Y416514D01*
Y415344D02*X299370Y414954D01*
X300150D01*
X302100Y416904D02*X300150Y414954D01*
X302100D02*Y416904D01*
X301710Y414017D02*X302100Y413627D01*
X299370Y414017D02*X301710D01*
X299370D02*X298980Y413627D01*
Y412847D02*Y413627D01*
Y412847D02*X299370Y412457D01*
X301710D01*
X302100Y412847D02*X301710Y412457D01*
X302100Y412847D02*Y413627D01*
X301320Y414017D02*X299760Y412457D01*
X317090Y435800D02*X318260D01*
X316700Y435410D02*X317090Y435800D01*
X316700Y433070D02*Y435410D01*
Y433070D02*X317090Y432680D01*
X318260D01*
X319196Y433070D02*X319586Y432680D01*
X320756D01*
X321146Y433070D01*
Y433850D01*
X319196Y435800D02*X321146Y433850D01*
X319196Y435800D02*X321146D01*
X322083Y433070D02*X322473Y432680D01*
X323253D01*
X323643Y433070D01*
Y435410D01*
X323253Y435800D02*X323643Y435410D01*
X322473Y435800D02*X323253D01*
X322083Y435410D02*X322473Y435800D01*
Y434240D02*X323643D01*
X289090Y405300D02*X290260D01*
X288700Y404910D02*X289090Y405300D01*
X288700Y402570D02*Y404910D01*
Y402570D02*X289090Y402180D01*
X290260D01*
X291196Y402570D02*X291586Y402180D01*
X292756D01*
X293146Y402570D01*
Y403350D01*
X291196Y405300D02*X293146Y403350D01*
X291196Y405300D02*X293146D01*
X294083Y402180D02*X295643D01*
X294083D02*Y403740D01*
X294473Y403350D01*
X295253D01*
X295643Y403740D01*
Y404910D01*
X295253Y405300D02*X295643Y404910D01*
X294473Y405300D02*X295253D01*
X294083Y404910D02*X294473Y405300D01*
X289090Y410300D02*X290260D01*
X288700Y409910D02*X289090Y410300D01*
X288700Y407570D02*Y409910D01*
Y407570D02*X289090Y407180D01*
X290260D01*
X291196Y407570D02*X291586Y407180D01*
X292756D01*
X293146Y407570D01*
Y408350D01*
X291196Y410300D02*X293146Y408350D01*
X291196Y410300D02*X293146D01*
X294083Y408740D02*X295643Y407180D01*
X294083Y408740D02*X296033D01*
X295643Y407180D02*Y410300D01*
X289100Y418340D02*Y419510D01*
X288710Y419900D02*X289100Y419510D01*
X286370Y419900D02*X288710D01*
X286370D02*X285980Y419510D01*
Y418340D02*Y419510D01*
X286370Y417404D02*X285980Y417014D01*
Y415844D02*Y417014D01*
Y415844D02*X286370Y415454D01*
X287150D01*
X289100Y417404D02*X287150Y415454D01*
X289100D02*Y417404D01*
Y413347D02*Y414127D01*
X285980Y413737D02*X289100D01*
X286760Y414517D02*X285980Y413737D01*
X168700Y444400D02*Y445900D01*
X168200Y446400D02*X168700Y445900D01*
X165200Y446400D02*X168200D01*
X165200D02*X164700Y445900D01*
Y444400D02*Y445900D01*
X168700Y441699D02*Y442699D01*
X164700Y442199D02*X168700D01*
X165700Y443199D02*X164700Y442199D01*
Y438498D02*Y440498D01*
X166700D01*
X166200Y439998D01*
Y438998D02*Y439998D01*
Y438998D02*X166700Y438498D01*
X168200D01*
X168700Y438998D02*X168200Y438498D01*
X168700Y438998D02*Y439998D01*
X168200Y440498D02*X168700Y439998D01*
X148200Y435900D02*X149700D01*
X147700Y435400D02*X148200Y435900D01*
X147700Y432400D02*Y435400D01*
Y432400D02*X148200Y431900D01*
X149700D01*
X151401Y435900D02*X152401D01*
X151901Y431900D02*Y435900D01*
X150901Y432900D02*X151901Y431900D01*
X155102D02*X155602Y432400D01*
X154102Y431900D02*X155102D01*
X153602Y432400D02*X154102Y431900D01*
X153602Y432400D02*Y435400D01*
X154102Y435900D01*
X155102Y433900D02*X155602Y434400D01*
X153602Y433900D02*X155102D01*
X154102Y435900D02*X155102D01*
X155602Y435400D01*
Y434400D02*Y435400D01*
X338600Y435340D02*Y436510D01*
X338210Y436900D02*X338600Y436510D01*
X335870Y436900D02*X338210D01*
X335870D02*X335480Y436510D01*
Y435340D02*Y436510D01*
X338600Y433234D02*Y434014D01*
X335480Y433624D02*X338600D01*
X336260Y434404D02*X335480Y433624D01*
X338600Y432297D02*X337040Y430737D01*
X335870D02*X337040D01*
X335480Y431127D02*X335870Y430737D01*
X335480Y431127D02*Y431907D01*
X335870Y432297D02*X335480Y431907D01*
X335870Y432297D02*X336650D01*
X337040Y431907D01*
Y430737D02*Y431907D01*
X391100Y393340D02*Y394510D01*
X390710Y394900D02*X391100Y394510D01*
X388370Y394900D02*X390710D01*
X388370D02*X387980Y394510D01*
Y393340D02*Y394510D01*
X388370Y392404D02*X387980Y392014D01*
Y390844D02*Y392014D01*
Y390844D02*X388370Y390454D01*
X389150D01*
X391100Y392404D02*X389150Y390454D01*
X391100D02*Y392404D01*
X387980Y388347D02*X388370Y387957D01*
X387980Y388347D02*Y389127D01*
X388370Y389517D02*X387980Y389127D01*
X388370Y389517D02*X390710D01*
X391100Y389127D01*
X389540Y388347D02*X389930Y387957D01*
X389540Y388347D02*Y389517D01*
X391100Y388347D02*Y389127D01*
Y388347D02*X390710Y387957D01*
X389930D02*X390710D01*
M02*
