G04 start of page 6 for group -4062 idx -4062 *
G04 Title: (unknown), soldermask *
G04 Creator: pcb 1.99y *
G04 CreationDate: Mon 27 Apr 2009 03:53:18 PM GMT UTC *
G04 For: jean *
G04 Format: Gerber/RS-274X *
G04 PCB-Dimensions: 600000 500000 *
G04 PCB-Coordinate-Origin: lower left *
%MOIN*%
%FSLAX25Y25*%
%LNBACKMASK*%
%ADD11C,0.0200*%
%ADD37C,0.0660*%
%ADD38C,0.0570*%
%ADD39C,0.0870*%
%ADD41R,0.0257X0.0257*%
%ADD42R,0.0355X0.0355*%
G54D37*X75700Y390400D03*
X85700D03*
X95700D03*
X105700D03*
X115700D03*
G54D38*X154427Y400900D03*
X164269D03*
X154427Y393026D03*
X164269D03*
G54D39*X182971Y382199D03*
X135727D03*
G54D37*X14200Y436900D03*
Y426900D03*
Y416900D03*
Y406900D03*
G54D11*G36*
X10900Y470200D02*Y463600D01*
X17500D01*
Y470200D01*
X10900D01*
G37*
G54D37*X14200Y456900D03*
Y446900D03*
Y396900D03*
Y386900D03*
G54D11*G36*
X62400Y393700D02*Y387100D01*
X69000D01*
Y393700D01*
X62400D01*
G37*
G36*
X211500Y488300D02*Y481700D01*
X218100D01*
Y488300D01*
X211500D01*
G37*
G54D37*X204800Y485000D03*
X194800D03*
Y475000D03*
X204800D03*
X214800D03*
G54D11*G36*
X235900Y488200D02*Y481600D01*
X242500D01*
Y488200D01*
X235900D01*
G37*
G54D37*X249200Y484900D03*
X259200D03*
X269200D03*
X279200D03*
X289200D03*
G54D42*X154259Y439892D02*Y438908D01*
X149141Y439892D02*Y438908D01*
X160708Y439841D02*X161692D01*
X160708Y444959D02*X161692D01*
X384208Y393959D02*X385192D01*
X384208Y388841D02*X385192D01*
G54D41*X334807Y428474D02*X335593D01*
X330807D02*X331593D01*
X334807Y425326D02*X335593D01*
X330807D02*X331593D01*
X328774Y439293D02*Y438507D01*
X325626Y439293D02*Y438507D01*
X328774Y435293D02*Y434507D01*
X325626Y435293D02*Y434507D01*
X298126Y408293D02*Y407507D01*
X295807Y414326D02*X296593D01*
X295807Y417474D02*X296593D01*
X291307Y414326D02*X292093D01*
X291307Y417474D02*X292093D01*
X301274Y408293D02*Y407507D01*
X298126Y404293D02*Y403507D01*
X301274Y404293D02*Y403507D01*
M02*
