G04 start of page 8 for group -4079 idx -4079 *
G04 Title: (unknown), topsilk *
G04 Creator: pcb 1.99y *
G04 CreationDate: Tue 31 Mar 2009 05:55:46 AM GMT UTC *
G04 For: jean *
G04 Format: Gerber/RS-274X *
G04 PCB-Dimensions: 600000 500000 *
G04 PCB-Coordinate-Origin: lower left *
%MOIN*%
%FSLAX25Y25*%
%LNFRONTSILK*%
%ADD11C,0.0200*%
%ADD13C,0.0100*%
%ADD49C,0.0080*%
G54D13*X227300Y407200D02*Y393300D01*
X239100D01*
Y407200D01*
X227300D01*
X174063Y447906D02*X209497D01*
X174062Y436095D02*X209496D01*
X81500Y473500D02*Y460500D01*
Y491500D02*Y478500D01*
X62500Y460500D02*X81500D01*
X62500Y491500D02*Y460500D01*
Y491500D02*X81500D01*
Y478500D02*G75*G03X81500Y473500I0J-2500D01*G01*
G54D49*X131021Y443921D02*X154879D01*
X131021Y470679D02*Y443921D01*
Y470679D02*X157779D01*
Y446821D01*
X154879Y443921D01*
X155879Y446821D02*G75*G03X155879Y446821I-1000J0D01*G01*
G54D13*X184200Y415500D02*X186600Y416700D01*
X168400Y415500D02*X184200D01*
X168400Y426500D02*Y415500D01*
Y426500D02*X184200D01*
X186600Y425300D02*X184200Y426500D01*
G54D11*X186600Y425300D02*Y416700D01*
G54D13*X357500Y430200D02*Y391300D01*
Y473200D02*Y434200D01*
Y473200D02*X391500D01*
Y391300D01*
X357500D02*X391500D01*
X357500Y430200D02*G75*G03X357500Y434200I0J2000D01*G01*
G54D49*X292115Y450785D02*X327785D01*
Y412215D01*
X289215D02*X327785D01*
X289215Y447885D02*Y412215D01*
Y447885D02*X292115Y450785D01*
X291115Y447885D02*G75*G03X291115Y447885I1000J0D01*G01*
G54D13*X49500Y451500D02*X62500D01*
X31500D02*X44500D01*
X62500D02*Y412500D01*
X31500D02*X62500D01*
X31500Y451500D02*Y412500D01*
X44500Y451500D02*G75*G03X49500Y451500I2500J0D01*G01*
G54D11*X123700Y431600D02*X132300D01*
G54D13*X123700D02*X122500Y429200D01*
Y413400D01*
X133500D01*
Y429200D02*Y413400D01*
Y429200D02*X132300Y431600D01*
X5000Y477500D02*Y387500D01*
X15000D01*
Y477500D02*Y387500D01*
X5000Y477500D02*X15000D01*
X5000Y467500D02*X15000D01*
Y477500D02*Y467500D01*
X183771Y410799D02*Y382799D01*
X126771Y410799D02*X183771D01*
X126771Y382799D02*Y410799D01*
X193700Y407800D02*Y393900D01*
X205500D01*
Y407800D01*
X193700D01*
X56500Y391000D02*X116500D01*
Y401000D02*Y391000D01*
X56500Y401000D02*X116500D01*
X56500D02*Y391000D01*
X66500Y401000D02*Y391000D01*
X56500Y401000D02*X66500D01*
X230000Y485500D02*X290000D01*
Y495500D02*Y485500D01*
X230000Y495500D02*X290000D01*
X230000D02*Y485500D01*
X240000Y495500D02*Y485500D01*
X230000Y495500D02*X240000D01*
X185600Y495600D02*X215600D01*
X185600D02*Y475600D01*
X215600D01*
Y495600D02*Y475600D01*
X205600Y495600D02*Y485600D01*
X215600D01*
X227200Y430300D02*X224800Y429100D01*
X243000Y430300D02*X227200D01*
X243000Y419300D02*Y430300D01*
X227200Y419300D02*X243000D01*
X224800Y420500D02*X227200Y419300D01*
G54D11*X224800Y429100D02*Y420500D01*
G54D49*X278280Y391560D02*Y390000D01*
Y391560D02*X278670Y391950D01*
X279450D01*
X279840Y391560D02*X279450Y391950D01*
X279840Y391560D02*Y390390D01*
X278280D02*X281400D01*
X279840D02*X281400Y391950D01*
X278280Y394056D02*X278670Y394446D01*
X278280Y394056D02*Y393276D01*
X278670Y392886D02*X278280Y393276D01*
X278670Y392886D02*X281010D01*
X281400Y393276D01*
X279840Y394056D02*X280230Y394446D01*
X279840Y394056D02*Y392886D01*
X281400Y394056D02*Y393276D01*
Y394056D02*X281010Y394446D01*
X280230D02*X281010D01*
X253780Y391560D02*Y390000D01*
Y391560D02*X254170Y391950D01*
X254950D01*
X255340Y391560D02*X254950Y391950D01*
X255340Y391560D02*Y390390D01*
X253780D02*X256900D01*
X255340D02*X256900Y391950D01*
Y392886D02*X254950Y394836D01*
X253780D02*X254950D01*
X253780D02*Y392886D01*
X260280Y390390D02*X263400D01*
X260280Y391560D02*X260670Y391950D01*
X263010D01*
X263400Y391560D02*X263010Y391950D01*
X263400Y391560D02*Y390000D01*
X260280Y391560D02*Y390000D01*
X261840Y392886D02*X260280Y394446D01*
X261840Y394836D02*Y392886D01*
X260280Y394446D02*X263400D01*
X302280Y391560D02*Y390000D01*
Y391560D02*X302670Y391950D01*
X303450D01*
X303840Y391560D02*X303450Y391950D01*
X303840Y391560D02*Y390390D01*
X302280D02*X305400D01*
X303840D02*X305400Y391950D01*
X302280Y394446D02*Y392886D01*
X303840D01*
X303450Y393276D01*
Y394056D02*Y393276D01*
Y394056D02*X303840Y394446D01*
X305010D01*
X305400Y394056D02*X305010Y394446D01*
X305400Y394056D02*Y393276D01*
X305010Y392886D02*X305400Y393276D01*
X308780Y390390D02*X311900D01*
X308780Y391560D02*X309170Y391950D01*
X311510D01*
X311900Y391560D02*X311510Y391950D01*
X311900Y391560D02*Y390000D01*
X308780Y391560D02*Y390000D01*
X309170Y392886D02*X308780Y393276D01*
Y394446D02*Y393276D01*
Y394446D02*X309170Y394836D01*
X309950D01*
X311900Y392886D02*X309950Y394836D01*
X311900D02*Y392886D01*
X283780Y390390D02*X286900D01*
X283780Y391560D02*X284170Y391950D01*
X286510D01*
X286900Y391560D02*X286510Y391950D01*
X286900Y391560D02*Y390000D01*
X283780Y391560D02*Y390000D01*
X284170Y392886D02*X283780Y393276D01*
Y394056D02*Y393276D01*
Y394056D02*X284170Y394446D01*
X286510D01*
X286900Y394056D02*X286510Y394446D01*
X286900Y394056D02*Y393276D01*
X286510Y392886D02*X286900Y393276D01*
X285340Y394446D02*Y393276D01*
X284000Y455500D02*Y452000D01*
X284500Y451500D01*
X285500D01*
X286000Y452000D01*
Y455500D02*Y452000D01*
X287201D02*X287701Y451500D01*
X287201Y453000D02*Y452000D01*
Y453000D02*X287701Y453500D01*
X288701D01*
X289201Y453000D01*
Y452000D01*
X288701Y451500D02*X289201Y452000D01*
X287701Y451500D02*X288701D01*
X287201Y454000D02*X287701Y453500D01*
X287201Y455000D02*Y454000D01*
Y455000D02*X287701Y455500D01*
X288701D01*
X289201Y455000D01*
Y454000D01*
X288701Y453500D02*X289201Y454000D01*
X268000Y433220D02*X269560D01*
X269950Y432830D01*
Y432050D01*
X269560Y431660D02*X269950Y432050D01*
X268390Y431660D02*X269560D01*
X268390Y433220D02*Y430100D01*
Y431660D02*X269950Y430100D01*
X270886D02*X272446Y431660D01*
Y432830D02*Y431660D01*
X272056Y433220D02*X272446Y432830D01*
X271276Y433220D02*X272056D01*
X270886Y432830D02*X271276Y433220D01*
X270886Y432830D02*Y432050D01*
X271276Y431660D01*
X272446D01*
X266500Y426720D02*X268060D01*
X268450Y426330D01*
Y425550D01*
X268060Y425160D02*X268450Y425550D01*
X266890Y425160D02*X268060D01*
X266890Y426720D02*Y423600D01*
Y425160D02*X268450Y423600D01*
X269776D02*X270556D01*
X270166Y426720D02*Y423600D01*
X269386Y425940D02*X270166Y426720D01*
X271883Y423600D02*X272663D01*
X272273Y426720D02*Y423600D01*
X271493Y425940D02*X272273Y426720D01*
X266000Y438220D02*X267560D01*
X267950Y437830D01*
Y437050D01*
X267560Y436660D02*X267950Y437050D01*
X266390Y436660D02*X267560D01*
X266390Y438220D02*Y435100D01*
Y436660D02*X267950Y435100D01*
X269276D02*X270056D01*
X269666Y438220D02*Y435100D01*
X268886Y437440D02*X269666Y438220D01*
X270993Y435490D02*X271383Y435100D01*
X270993Y437830D02*Y435490D01*
Y437830D02*X271383Y438220D01*
X272163D01*
X272553Y437830D01*
Y435490D01*
X272163Y435100D02*X272553Y435490D01*
X271383Y435100D02*X272163D01*
X270993Y435880D02*X272553Y437440D01*
X174000Y453500D02*Y450000D01*
X174500Y449500D01*
X175500D01*
X176000Y450000D01*
Y453500D02*Y450000D01*
X178701Y453500D02*X179201Y453000D01*
X177701Y453500D02*X178701D01*
X177201Y453000D02*X177701Y453500D01*
X177201Y453000D02*Y450000D01*
X177701Y449500D01*
X178701Y451500D02*X179201Y451000D01*
X177201Y451500D02*X178701D01*
X177701Y449500D02*X178701D01*
X179201Y450000D01*
Y451000D02*Y450000D01*
X153500Y425000D02*Y423000D01*
Y425000D02*X154000Y425500D01*
X155000D01*
X155500Y425000D02*X155000Y425500D01*
X155500Y425000D02*Y423500D01*
X153500D02*X157500D01*
X155500D02*X157500Y425500D01*
Y428201D02*Y427201D01*
X153500Y427701D02*X157500D01*
X154500Y426701D02*X153500Y427701D01*
X168500Y428000D02*X170000D01*
X168000Y428500D02*X168500Y428000D01*
X168000Y431500D02*Y428500D01*
Y431500D02*X168500Y432000D01*
X170000D01*
X171201Y431500D02*X171701Y432000D01*
X172701D01*
X173201Y431500D01*
Y428500D01*
X172701Y428000D02*X173201Y428500D01*
X171701Y428000D02*X172701D01*
X171201Y428500D02*X171701Y428000D01*
Y430000D02*X173201D01*
X179990Y431000D02*X181160D01*
X179600Y431390D02*X179990Y431000D01*
X179600Y433730D02*Y431390D01*
Y433730D02*X179990Y434120D01*
X181160D01*
X182096Y431000D02*X184046Y432950D01*
Y434120D02*Y432950D01*
X182096Y434120D02*X184046D01*
X88280Y487560D02*Y486000D01*
Y487560D02*X88670Y487950D01*
X89450D01*
X89840Y487560D02*X89450Y487950D01*
X89840Y487560D02*Y486390D01*
X88280D02*X91400D01*
X89840D02*X91400Y487950D01*
X91010Y488886D02*X91400Y489276D01*
X90230Y488886D02*X91010D01*
X90230D02*X89840Y489276D01*
Y490056D02*Y489276D01*
Y490056D02*X90230Y490446D01*
X91010D01*
X91400Y490056D02*X91010Y490446D01*
X91400Y490056D02*Y489276D01*
X89450Y488886D02*X89840Y489276D01*
X88670Y488886D02*X89450D01*
X88670D02*X88280Y489276D01*
Y490056D02*Y489276D01*
Y490056D02*X88670Y490446D01*
X89450D01*
X89840Y490056D02*X89450Y490446D01*
X224400Y489400D02*Y487900D01*
Y489400D02*X227900D01*
X228400Y488900D02*X227900Y489400D01*
X228400Y488900D02*Y488400D01*
X227900Y487900D02*X228400Y488400D01*
X226400Y490601D02*X224400Y492601D01*
X226400Y493101D02*Y490601D01*
X224400Y492601D02*X228400D01*
X179600Y490400D02*Y488900D01*
Y490400D02*X183100D01*
X183600Y489900D02*X183100Y490400D01*
X183600Y489900D02*Y489400D01*
X183100Y488900D02*X183600Y489400D01*
X180100Y491601D02*X179600Y492101D01*
Y493101D02*Y492101D01*
Y493101D02*X180100Y493601D01*
X183100D01*
X183600Y493101D02*X183100Y493601D01*
X183600Y493101D02*Y492101D01*
X183100Y491601D02*X183600Y492101D01*
X181600Y493601D02*Y492101D01*
X124500Y479000D02*Y475500D01*
X125000Y475000D01*
X126000D01*
X126500Y475500D01*
Y479000D02*Y475500D01*
X127701Y478500D02*X128201Y479000D01*
X129201D01*
X129701Y478500D01*
Y475500D01*
X129201Y475000D02*X129701Y475500D01*
X128201Y475000D02*X129201D01*
X127701Y475500D02*X128201Y475000D01*
Y477000D02*X129701D01*
X222000Y423900D02*Y422400D01*
X221500Y421900D02*X222000Y422400D01*
X218500Y421900D02*X221500D01*
X218500D02*X218000Y422400D01*
Y423900D02*Y422400D01*
Y426601D02*X218500Y427101D01*
X218000Y426601D02*Y425601D01*
X218500Y425101D02*X218000Y425601D01*
X218500Y425101D02*X221500D01*
X222000Y425601D01*
X220000Y426601D02*X220500Y427101D01*
X220000Y426601D02*Y425101D01*
X222000Y426601D02*Y425601D01*
Y426601D02*X221500Y427101D01*
X220500D02*X221500D01*
X138000Y424000D02*Y422000D01*
Y424000D02*X138500Y424500D01*
X139500D01*
X140000Y424000D02*X139500Y424500D01*
X140000Y424000D02*Y422500D01*
X138000D02*X142000D01*
X140000D02*X142000Y424500D01*
X138500Y425701D02*X138000Y426201D01*
Y427701D02*Y426201D01*
Y427701D02*X138500Y428201D01*
X139500D01*
X142000Y425701D02*X139500Y428201D01*
X142000D02*Y425701D01*
X193500Y427220D02*X195060D01*
X195450Y426830D01*
Y426050D01*
X195060Y425660D02*X195450Y426050D01*
X193890Y425660D02*X195060D01*
X193890Y427220D02*Y424100D01*
Y425660D02*X195450Y424100D01*
X196386Y426830D02*X196776Y427220D01*
X197556D01*
X197946Y426830D01*
Y424490D01*
X197556Y424100D02*X197946Y424490D01*
X196776Y424100D02*X197556D01*
X196386Y424490D02*X196776Y424100D01*
Y425660D02*X197946D01*
X204390Y427720D02*Y424600D01*
X205560Y427720D02*X205950Y427330D01*
Y424990D01*
X205560Y424600D02*X205950Y424990D01*
X204000Y424600D02*X205560D01*
X204000Y427720D02*X205560D01*
X207276Y424600D02*X208056D01*
X207666Y427720D02*Y424600D01*
X206886Y426940D02*X207666Y427720D01*
X199400Y413060D02*Y411890D01*
X199010Y411500D02*X199400Y411890D01*
X196670Y411500D02*X199010D01*
X196670D02*X196280Y411890D01*
Y413060D02*Y411890D01*
X196670Y413996D02*X196280Y414386D01*
Y415556D02*Y414386D01*
Y415556D02*X196670Y415946D01*
X197450D01*
X199400Y413996D02*X197450Y415946D01*
X199400D02*Y413996D01*
X222280Y394000D02*X225010D01*
X225400Y394390D01*
Y395170D02*Y394390D01*
Y395170D02*X225010Y395560D01*
X222280D02*X225010D01*
X222670Y396496D02*X222280Y396886D01*
Y398056D02*Y396886D01*
Y398056D02*X222670Y398446D01*
X223450D01*
X225400Y396496D02*X223450Y398446D01*
X225400D02*Y396496D01*
X226400Y387560D02*Y386390D01*
X226010Y386000D02*X226400Y386390D01*
X223670Y386000D02*X226010D01*
X223670D02*X223280Y386390D01*
Y387560D02*Y386390D01*
X224840Y388496D02*X223280Y390056D01*
X224840Y390446D02*Y388496D01*
X223280Y390056D02*X226400D01*
X205090Y431400D02*X206260D01*
X204700Y431790D02*X205090Y431400D01*
X204700Y434130D02*Y431790D01*
Y434130D02*X205090Y434520D01*
X206260D01*
X207196Y431790D02*X207586Y431400D01*
X207196Y432570D02*Y431790D01*
Y432570D02*X207586Y432960D01*
X208366D01*
X208756Y432570D01*
Y431790D01*
X208366Y431400D02*X208756Y431790D01*
X207586Y431400D02*X208366D01*
X207196Y433350D02*X207586Y432960D01*
X207196Y434130D02*Y433350D01*
Y434130D02*X207586Y434520D01*
X208366D01*
X208756Y434130D01*
Y433350D01*
X208366Y432960D02*X208756Y433350D01*
X232200Y413100D02*Y411600D01*
X231700Y411100D02*X232200Y411600D01*
X228700Y411100D02*X231700D01*
X228700D02*X228200Y411600D01*
Y413100D02*Y411600D01*
Y416301D02*Y414301D01*
X230200D01*
X229700Y414801D01*
Y415801D02*Y414801D01*
Y415801D02*X230200Y416301D01*
X231700D01*
X232200Y415801D02*X231700Y416301D01*
X232200Y415801D02*Y414801D01*
X231700Y414301D02*X232200Y414801D01*
X188780Y395000D02*X191510D01*
X191900Y395390D01*
Y396170D02*Y395390D01*
Y396170D02*X191510Y396560D01*
X188780D02*X191510D01*
X191900Y398666D02*Y397886D01*
X188780Y398276D02*X191900D01*
X189560Y397496D02*X188780Y398276D01*
X192900Y388560D02*Y387390D01*
X192510Y387000D02*X192900Y387390D01*
X190170Y387000D02*X192510D01*
X190170D02*X189780Y387390D01*
Y388560D02*Y387390D01*
X192900Y390666D02*Y389886D01*
X189780Y390276D02*X192900D01*
X190560Y389496D02*X189780Y390276D01*
X24400Y431060D02*Y429890D01*
X24010Y429500D02*X24400Y429890D01*
X21670Y429500D02*X24010D01*
X21670D02*X21280Y429890D01*
Y431060D02*Y429890D01*
X24400Y433166D02*Y432386D01*
X21280Y432776D02*X24400D01*
X22060Y431996D02*X21280Y432776D01*
X24400Y435273D02*Y434493D01*
X21280Y434883D02*X24400D01*
X22060Y434103D02*X21280Y434883D01*
X45390Y402600D02*X46560D01*
X45000Y402990D02*X45390Y402600D01*
X45000Y405330D02*Y402990D01*
Y405330D02*X45390Y405720D01*
X46560D01*
X47496Y402600D02*X49056Y404160D01*
Y405330D02*Y404160D01*
X48666Y405720D02*X49056Y405330D01*
X47886Y405720D02*X48666D01*
X47496Y405330D02*X47886Y405720D01*
X47496Y405330D02*Y404550D01*
X47886Y404160D01*
X49056D01*
X24400Y445560D02*Y444390D01*
X24010Y444000D02*X24400Y444390D01*
X21670Y444000D02*X24010D01*
X21670D02*X21280Y444390D01*
Y445560D02*Y444390D01*
X24400Y447666D02*Y446886D01*
X21280Y447276D02*X24400D01*
X22060Y446496D02*X21280Y447276D01*
X21670Y448603D02*X21280Y448993D01*
Y450163D02*Y448993D01*
Y450163D02*X21670Y450553D01*
X22450D01*
X24400Y448603D02*X22450Y450553D01*
X24400D02*Y448603D01*
X113390Y438780D02*Y437000D01*
Y438780D02*X113835Y439225D01*
X114725D01*
X115170Y438780D02*X114725Y439225D01*
X115170Y438780D02*Y437445D01*
X113390D02*X116950D01*
X115170D02*X116950Y439225D01*
X115170Y440293D02*X113390Y442073D01*
X115170Y442518D02*Y440293D01*
X113390Y442073D02*X116950D01*
X121000Y385000D02*Y383500D01*
Y385000D02*X124500D01*
X125000Y384500D02*X124500Y385000D01*
X125000Y384500D02*Y384000D01*
X124500Y383500D02*X125000Y384000D01*
X121500Y386201D02*X121000Y386701D01*
Y388201D02*Y386701D01*
Y388201D02*X121500Y388701D01*
X122500D01*
X125000Y386201D02*X122500Y388701D01*
X125000D02*Y386201D01*
X120500Y417500D02*Y416000D01*
X120000Y415500D02*X120500Y416000D01*
X117000Y415500D02*X120000D01*
X117000D02*X116500Y416000D01*
Y417500D02*Y416000D01*
X120500Y420201D02*Y419201D01*
X116500Y419701D02*X120500D01*
X117500Y418701D02*X116500Y419701D01*
X120500Y421402D02*X118000Y423902D01*
X116500D02*X118000D01*
X116500D02*Y421402D01*
X51000Y394500D02*Y393000D01*
Y394500D02*X54500D01*
X55000Y394000D02*X54500Y394500D01*
X55000Y394000D02*Y393500D01*
X54500Y393000D02*X55000Y393500D01*
X51000Y397701D02*Y395701D01*
X53000D01*
X52500Y396201D01*
Y397201D02*Y396201D01*
Y397201D02*X53000Y397701D01*
X54500D01*
X55000Y397201D02*X54500Y397701D01*
X55000Y397201D02*Y396201D01*
X54500Y395701D02*X55000Y396201D01*
X43890Y458600D02*X45060D01*
X43500Y458990D02*X43890Y458600D01*
X43500Y461330D02*Y458990D01*
Y461330D02*X43890Y461720D01*
X45060D01*
X46386Y458600D02*X47166D01*
X46776Y461720D02*Y458600D01*
X45996Y460940D02*X46776Y461720D01*
X48103Y458990D02*X48493Y458600D01*
X48103Y461330D02*Y458990D01*
Y461330D02*X48493Y461720D01*
X49273D01*
X49663Y461330D01*
Y458990D01*
X49273Y458600D02*X49663Y458990D01*
X48493Y458600D02*X49273D01*
X48103Y459380D02*X49663Y460940D01*
X76900Y454060D02*Y452890D01*
X76510Y452500D02*X76900Y452890D01*
X74170Y452500D02*X76510D01*
X74170D02*X73780Y452890D01*
Y454060D02*Y452890D01*
X76900Y456166D02*Y455386D01*
X73780Y455776D02*X76900D01*
X74560Y454996D02*X73780Y455776D01*
X74170Y457103D02*X73780Y457493D01*
Y458273D02*Y457493D01*
Y458273D02*X74170Y458663D01*
X76510D01*
X76900Y458273D02*X76510Y458663D01*
X76900Y458273D02*Y457493D01*
X76510Y457103D02*X76900Y457493D01*
X75340Y458663D02*Y457493D01*
X31500Y456220D02*Y453490D01*
X31890Y453100D01*
X32670D01*
X33060Y453490D01*
Y456220D02*Y453490D01*
X33996Y456220D02*X35556D01*
X33996D02*Y454660D01*
X34386Y455050D01*
X35166D01*
X35556Y454660D01*
Y453490D01*
X35166Y453100D02*X35556Y453490D01*
X34386Y453100D02*X35166D01*
X33996Y453490D02*X34386Y453100D01*
X53890Y458600D02*X55060D01*
X53500Y458990D02*X53890Y458600D01*
X53500Y461330D02*Y458990D01*
Y461330D02*X53890Y461720D01*
X55060D01*
X56386Y458600D02*X57166D01*
X56776Y461720D02*Y458600D01*
X55996Y460940D02*X56776Y461720D01*
X58103Y460160D02*X59663Y461720D01*
X58103Y460160D02*X60053D01*
X59663Y461720D02*Y458600D01*
X57390Y464500D02*X60505D01*
X60950Y464945D01*
Y465835D02*Y464945D01*
Y465835D02*X60505Y466280D01*
X57390D02*X60505D01*
X59170Y467348D02*X57390Y469128D01*
X59170Y469573D02*Y467348D01*
X57390Y469128D02*X60950D01*
X7500Y484000D02*X9000D01*
Y480500D01*
X8500Y480000D02*X9000Y480500D01*
X8000Y480000D02*X8500D01*
X7500Y480500D02*X8000Y480000D01*
X10701D02*X11701D01*
X11201Y484000D02*Y480000D01*
X10201Y483000D02*X11201Y484000D01*
X351500Y392000D02*X355000D01*
X355500Y392500D01*
Y393500D02*Y392500D01*
Y393500D02*X355000Y394000D01*
X351500D02*X355000D01*
X355500Y395201D02*X353000Y397701D01*
X351500D02*X353000D01*
X351500D02*Y395201D01*
M02*
