G04 start of page 9 for group -4078 idx -4078 *
G04 Title: (unknown), bottomsilk *
G04 Creator: pcb 1.99y *
G04 CreationDate: Tue 31 Mar 2009 05:55:46 AM GMT UTC *
G04 For: jean *
G04 Format: Gerber/RS-274X *
G04 PCB-Dimensions: 600000 500000 *
G04 PCB-Coordinate-Origin: lower left *
%MOIN*%
%FSLAX25Y25*%
%LNBACKSILK*%
%ADD49C,0.0080*%
G54D49*X312390Y446400D02*X313560D01*
X312000Y446010D02*X312390Y446400D01*
X312000Y443670D02*Y446010D01*
Y443670D02*X312390Y443280D01*
X313560D01*
X314496Y443670D02*X314886Y443280D01*
X316056D01*
X316446Y443670D01*
Y444450D01*
X314496Y446400D02*X316446Y444450D01*
X314496Y446400D02*X316446D01*
X317383Y443670D02*X317773Y443280D01*
X318943D01*
X319333Y443670D01*
Y444450D01*
X317383Y446400D02*X319333Y444450D01*
X317383Y446400D02*X319333D01*
X329900Y440940D02*Y442110D01*
X329510Y442500D02*X329900Y442110D01*
X327170Y442500D02*X329510D01*
X327170D02*X326780Y442110D01*
Y440940D02*Y442110D01*
X329900Y438834D02*Y439614D01*
X326780Y439224D02*X329900D01*
X327560Y440004D02*X326780Y439224D01*
X329510Y437897D02*X329900Y437507D01*
X328730Y437897D02*X329510D01*
X328730D02*X328340Y437507D01*
Y436727D02*Y437507D01*
Y436727D02*X328730Y436337D01*
X329510D01*
X329900Y436727D02*X329510Y436337D01*
X329900Y436727D02*Y437507D01*
X327950Y437897D02*X328340Y437507D01*
X327170Y437897D02*X327950D01*
X327170D02*X326780Y437507D01*
Y436727D02*Y437507D01*
Y436727D02*X327170Y436337D01*
X327950D01*
X328340Y436727D02*X327950Y436337D01*
X297900Y423440D02*Y424610D01*
X297510Y425000D02*X297900Y424610D01*
X295170Y425000D02*X297510D01*
X295170D02*X294780Y424610D01*
Y423440D02*Y424610D01*
X295170Y422504D02*X294780Y422114D01*
Y420944D02*Y422114D01*
Y420944D02*X295170Y420554D01*
X295950D01*
X297900Y422504D02*X295950Y420554D01*
X297900D02*Y422504D01*
X297510Y419617D02*X297900Y419227D01*
X295170Y419617D02*X297510D01*
X295170D02*X294780Y419227D01*
Y418447D02*Y419227D01*
Y418447D02*X295170Y418057D01*
X297510D01*
X297900Y418447D02*X297510Y418057D01*
X297900Y418447D02*Y419227D01*
X297120Y419617D02*X295560Y418057D01*
X312890Y441400D02*X314060D01*
X312500Y441010D02*X312890Y441400D01*
X312500Y438670D02*Y441010D01*
Y438670D02*X312890Y438280D01*
X314060D01*
X314996Y438670D02*X315386Y438280D01*
X316556D01*
X316946Y438670D01*
Y439450D01*
X314996Y441400D02*X316946Y439450D01*
X314996Y441400D02*X316946D01*
X317883Y438670D02*X318273Y438280D01*
X319053D01*
X319443Y438670D01*
Y441010D01*
X319053Y441400D02*X319443Y441010D01*
X318273Y441400D02*X319053D01*
X317883Y441010D02*X318273Y441400D01*
Y439840D02*X319443D01*
X284890Y410900D02*X286060D01*
X284500Y410510D02*X284890Y410900D01*
X284500Y408170D02*Y410510D01*
Y408170D02*X284890Y407780D01*
X286060D01*
X286996Y408170D02*X287386Y407780D01*
X288556D01*
X288946Y408170D01*
Y408950D01*
X286996Y410900D02*X288946Y408950D01*
X286996Y410900D02*X288946D01*
X289883Y407780D02*X291443D01*
X289883D02*Y409340D01*
X290273Y408950D01*
X291053D01*
X291443Y409340D01*
Y410510D01*
X291053Y410900D02*X291443Y410510D01*
X290273Y410900D02*X291053D01*
X289883Y410510D02*X290273Y410900D01*
X284890Y415900D02*X286060D01*
X284500Y415510D02*X284890Y415900D01*
X284500Y413170D02*Y415510D01*
Y413170D02*X284890Y412780D01*
X286060D01*
X286996Y413170D02*X287386Y412780D01*
X288556D01*
X288946Y413170D01*
Y413950D01*
X286996Y415900D02*X288946Y413950D01*
X286996Y415900D02*X288946D01*
X289883Y414340D02*X291443Y412780D01*
X289883Y414340D02*X291833D01*
X291443Y412780D02*Y415900D01*
X284900Y423940D02*Y425110D01*
X284510Y425500D02*X284900Y425110D01*
X282170Y425500D02*X284510D01*
X282170D02*X281780Y425110D01*
Y423940D02*Y425110D01*
X282170Y423004D02*X281780Y422614D01*
Y421444D02*Y422614D01*
Y421444D02*X282170Y421054D01*
X282950D01*
X284900Y423004D02*X282950Y421054D01*
X284900D02*Y423004D01*
Y418947D02*Y419727D01*
X281780Y419337D02*X284900D01*
X282560Y420117D02*X281780Y419337D01*
X164500Y450000D02*Y451500D01*
X164000Y452000D02*X164500Y451500D01*
X161000Y452000D02*X164000D01*
X161000D02*X160500Y451500D01*
Y450000D02*Y451500D01*
X164500Y447299D02*Y448299D01*
X160500Y447799D02*X164500D01*
X161500Y448799D02*X160500Y447799D01*
Y444098D02*Y446098D01*
X162500D01*
X162000Y445598D01*
Y444598D02*Y445598D01*
Y444598D02*X162500Y444098D01*
X164000D01*
X164500Y444598D02*X164000Y444098D01*
X164500Y444598D02*Y445598D01*
X164000Y446098D02*X164500Y445598D01*
X144000Y441500D02*X145500D01*
X143500Y441000D02*X144000Y441500D01*
X143500Y438000D02*Y441000D01*
Y438000D02*X144000Y437500D01*
X145500D01*
X147201Y441500D02*X148201D01*
X147701Y437500D02*Y441500D01*
X146701Y438500D02*X147701Y437500D01*
X150902D02*X151402Y438000D01*
X149902Y437500D02*X150902D01*
X149402Y438000D02*X149902Y437500D01*
X149402Y438000D02*Y441000D01*
X149902Y441500D01*
X150902Y439500D02*X151402Y440000D01*
X149402Y439500D02*X150902D01*
X149902Y441500D02*X150902D01*
X151402Y441000D01*
Y440000D02*Y441000D01*
X334400Y440940D02*Y442110D01*
X334010Y442500D02*X334400Y442110D01*
X331670Y442500D02*X334010D01*
X331670D02*X331280Y442110D01*
Y440940D02*Y442110D01*
X334400Y438834D02*Y439614D01*
X331280Y439224D02*X334400D01*
X332060Y440004D02*X331280Y439224D01*
X334400Y437897D02*X332840Y436337D01*
X331670D02*X332840D01*
X331280Y436727D02*X331670Y436337D01*
X331280Y436727D02*Y437507D01*
X331670Y437897D02*X331280Y437507D01*
X331670Y437897D02*X332450D01*
X332840Y437507D01*
Y436337D02*Y437507D01*
X386900Y398940D02*Y400110D01*
X386510Y400500D02*X386900Y400110D01*
X384170Y400500D02*X386510D01*
X384170D02*X383780Y400110D01*
Y398940D02*Y400110D01*
X384170Y398004D02*X383780Y397614D01*
Y396444D02*Y397614D01*
Y396444D02*X384170Y396054D01*
X384950D01*
X386900Y398004D02*X384950Y396054D01*
X386900D02*Y398004D01*
X383780Y393947D02*X384170Y393557D01*
X383780Y393947D02*Y394727D01*
X384170Y395117D02*X383780Y394727D01*
X384170Y395117D02*X386510D01*
X386900Y394727D01*
X385340Y393947D02*X385730Y393557D01*
X385340Y393947D02*Y395117D01*
X386900Y393947D02*Y394727D01*
Y393947D02*X386510Y393557D01*
X385730D02*X386510D01*
M02*
