G04 start of page 10 for group -4014 idx -4014 *
G04 Title: (unknown), bottompaste *
G04 Creator: pcb 1.99y *
G04 CreationDate: Tue 31 Mar 2009 05:55:46 AM GMT UTC *
G04 For: jean *
G04 Format: Gerber/RS-274X *
G04 PCB-Dimensions: 600000 500000 *
G04 PCB-Coordinate-Origin: lower left *
%MOIN*%
%FSLAX25Y25*%
%LNBACKPASTE*%
%ADD20R,0.0295X0.0295*%
%ADD21R,0.0197X0.0197*%
G54D21*X287107Y419926D02*X287893D01*
X287107Y423074D02*X287893D01*
X326607Y434074D02*X327393D01*
X326607Y430926D02*X327393D01*
X291607Y419926D02*X292393D01*
X291607Y423074D02*X292393D01*
G54D20*X156508Y445441D02*X157492D01*
X156508Y450559D02*X157492D01*
G54D21*X324574Y440893D02*Y440107D01*
X321426Y440893D02*Y440107D01*
X324574Y444893D02*Y444107D01*
X321426Y444893D02*Y444107D01*
X330607Y434074D02*X331393D01*
X330607Y430926D02*X331393D01*
G54D20*X380008Y399559D02*X380992D01*
X380008Y394441D02*X380992D01*
X150059Y445492D02*Y444508D01*
X144941Y445492D02*Y444508D01*
G54D21*X293926Y409893D02*Y409107D01*
X297074Y409893D02*Y409107D01*
X293926Y413893D02*Y413107D01*
X297074Y413893D02*Y413107D01*
M02*
